<svg xmlns="http://www.w3.org/2000/svg" width="750" height="700" shape-rendering="geometricPrecision" text-rendering="geometricPrecision" image-rendering="optimizeQuality" fill-rule="evenodd" clip-rule="evenodd"><defs><style>.str0{stroke:#fff;stroke-width:3.07;stroke-linecap:square;stroke-linejoin:bevel;stroke-miterlimit:10}.fil0{fill:#969696}</style></defs><g id="Capa_x0020_1"><path class="fil0 str0" d="M343 120h-2v1h-1v1h-2v1h-1v1h-1v1h-2v-1h-4v-1h-3v-1h-5v1h-1v1-1h-1v-1h-2v-1h-1v-1h-1l-1-1v1h-2v3h-1v1h1v2h1v1h1l1 1v1l-1 1v2h1-1v1h1v-1 1h-1v2h-1v2h-1v2h-1v1h1v1h-1v1h-1v4l-4 23-7-24-1-1v-1l-1-1v-2h-1v-1h-1v-1h-2v-1h-3v-1h-1l-54 13-1 1h-1l-1 1h-1v1h-1v-1h-1v-1h-2v-1h-1v-2h-1v-4h-1v-1h-2v-1h-2v-1 1-1h-4v1h-2v-1h-1v-1h-1v-1 1-1h-1v1h-2v-2l-1-1h1v-1l-1-1v-1 2h-1v3h-1v1h-1v1h-2v2h-1 1-1v2h-1v1h-1v2h-1 1-1v1h-2v2h-1v1h-1v5h-1v1h-1v3h-1v2h-1v1h-2v1h-2v1h-1v1h-3v1h-1v1h-2v1h-1v1h-2v1h-2v1h-1v1h-2v-1h-2l-1-1h-1v1h-1v-1h-1v-1h-3l-1-1h-2v-1h-1l-1-1h-2v-1h-1v1h-1v-1h-2v-1h-4v-1h-1v-1h-1v1-1l-1 1h-3v-1h-3l-1 1h-4v-1h-1v-1h-1v1-1h-1v-1h-1v-1h-1v-1h-1l1-3 1-5 1-6 3-14 12-6 8 1 3 2 4-6 34-8 5-2 7-2 16-4v-1h2v-1 1h2v-3h1v-1h-1 1v-1h1v-2h-1v-1h2l1 1v-1 1h1v1h1v-1h2v-1h2v-2h-1v-1h1v-1h1-1v-1h-1v-1h1v-2h1v-1h-1v1h-1v-1h1v-2h-1v-1h1v-1h1v-1h1v-8h-1v-2h1v-1h1l-1-1h1v-6l1-1h1v-1h1v-1h-1v-1h1v-5l1-1h1v-1h1v-3l1-1v-3h1v-3h1v-2h-1v-2h-1 1-1v-1h1v-6l-1-1v-2l1-1h4v-2l7 3 4 2 11 4 11 4 8 8-1 4v7l16 1 12 2 9 10 5 7 12 14v3l-1 2v11l-1 1v1l-1 2v7h-1z"/><path class="fil0 str0" d="M343 120h1v-7l1-2v-1l1-1V98l1-2v-3l1 1h3v1h1v1h1v1h1v1h1v1h1v1h3v1h1v1h6l1-1v-1h6v1h1v1h9v-1h2v1h1v-1h3v-1h1l1-1v1h1v-1h2v1h1v-1 1h1v-1l1 1h1v-1h1v-1h-1v-1h1-1 1v-2h2v-1 1h4l4 1 5 1 3 1 4 1 3-2h65l-1 1-1 2v4l1 1v3l-1 2v2h-1v1h-4v1l-1 2v8l-1 1v1l-1 2v7l-1 1v4l-1 1v1h1v1l-1 1v1h1v3h1v1l1 1-1 1h-1v1h-2v3h1l-1 1v1h-1l-3 2-1 1-2 1-1 1v1l-1 1v4l-3 7v1l-1 2v3h-1v1l-1 1v2l-1 1v1h-1l-1 1v2l-2 1v1l-1 1v1l-1 1v4l1 1v2h1v1l-7-1-1 1-1-1h-13l-2 1-1 1h-1l-1-1h-1l-1-1h-1v-1h-1l-1-1h-1l-1-1h-1l-1-1h-2l-1-1h-2l-1-1v-1h-1v-1h-1v-1l-1-1v-2l-1-1-1-1h-1v-1h-5v-1 1h-1v-1h-1v-1h-5l-3-1h-12v-1h-8l-1-1h-1l-10-1-14-3h-2l-2-1-36-8 4-23v-4h1v-1h1v-1h-1v-1h1v-2h1v-2h1v-2h1v-1 1h-1v-1h1-1v-2l1-1v-1l-1-1h-1v-1h-1v-2h-1v-1h1v-3h2v-1l1 1h1v1h1v1h2v1h1v1-1h1v-1h5v1h3v1h4v1h2v-1h1v-1h1v-1h2v-1h1v-1h2z"/><path class="fil0 str0" d="M209 133v1l1 1v1h-1l1 1v2h2v-1h1v1-1 1h1v1h1v1h2v-1h4v1-1 1h2v1h2v1h1v4h1v2h1v1h2v1h1v1h1v-1h1l1-1h1l1-1 54-13h1v1h3v1h2v1h1v1h1v2l1 1v1l1 1 7 24 36 8v5l-1 1v9l-1 1v6l-1 1-7 7-3-3-1 1v2l-1 2v1l-1 1v1h-1l-1 2-1 1-1 2-2 2v-1h-1l-1-1h-2v-1h-1l-1-1-12-3h1v1h-1v2h-2v2h-1v1h-1v1h-1v1l-1 1-1 1v2h-1v1h-1l-1 1h-1v1h-2v1h-3v1h-1v1h-1v-1 1h-5v1h-1l-1-1v1h-2v1h-3v1h-1v-1h-4v1-1h-2v1-1h-3v-2h-1v1h-1v1h-1v2h-1v1h-1v1l-1 1v1h-1v-1 2h-5v-2h-2v-1h-2v-1h-2l-13 1-4 4-3 8-3 4-17-9v2h-2v1h-1v1h1v3l1 1v2h-1v4h-2v1h-1v1h-1v1h1-6v-1l-1 1h-2v2h-4v3h-1v2h-5v-1h-2v1h-6v1h-1v1h-1l-2 3v3l2 10-1 20H77l-25-25-10-9-8-8 13-21 26-16-2-12-1-14h12l10-11 13-4 16-6 5-2-1-1v-7l4-10h1v1h1v1h1v1h1v1-1h1v1h1v1h4l1-1h3v1h3l1-1v1-1h1v1h1v1h4v1h2v1h1v-1h1v1h2l1 1h1v1h2l1 1h3v1h1v1h1v-1h1l1 1h2v1h2v-1h1v-1h2v-1h2v-1h1v-1h2v-1h1v-1h3v-1h1v-1h2v-1h2v-1h1v-2h1v-3h1v-1h1v-5h1v-1h1v-2h2v-1h1-1 1v-2h1v-1h1v-2h1-1 1v-2h2v-1h1v-1h1v-3h1v-2z"/><path class="fil0 str0" d="M343 177l2 1h2l14 3 10 1h1l1 1h8v1h12l3 1h5v1h1v1h1v-1 1h5v1h1l1 1 1 1v2l1 1v1h1v1h1v1l1 1h2l1 1h2l1 1h1l1 1h1l1 1h1v1h1l1 1h1l1 1h1l1-1 2-1h13l1 1 1-1 7 1v2l-1 2v1l-1 2v4l-1 1v1l-1 1v2l-1 1v1l-1 1h-1v1l-1 2-1 2-1 1v3l-1 1-1 2v2l-1 1v2h-1v3h-1l-1 2-1 1-1 2-1 1h-2v1l-2 1-2 1-5 1-1-1-1 1h-3l-2-1-1 1h-3v1l-1 2v2l-1 4v1l-1 3-1 1-3 2-1 1-4 2-3 3h-1l-1 1v2l-2 1v3h-1v1h-1v3l-1 2-2 2-2 1h-2l-3 1-3 2-2 1-1 1v2l-1 1-1 2-1 2-2 2v3l-1 1h1v1l-1 3v3l-1 1v4l1 1 1 1v4l-1 1-1 2-1 1v1l-1 2v2l-1 1v7h-1v2h1v1h-1v2l1 1v1h-1v1l-1 3-1 1v1l-2 1 1 3 1 1v2h1v2l1 1v2l-1 1-1 1v2h-1v3h-1l-1 1v3l1 1 1 1-1 2h1v1h1v3h-1v3h-1v4l-1 1v5h-1v-1 1h-4v-1h-1v-1h-1v-1h-1v-1h-1v-1h-3v-1h-1v-1h-1v-1h-1v-1h-2v-1h-1v1h-1 1v1h-3v1h1v1h-1v2h-1 1v1h-1l1 1h-1 1-1v1-1 3h-1v1h-1v2h-2v1h-1v1h-1v5h1l1 1h1v2h1v1h1v1l-3 14h-2l-1 1v1h-1v1h-1v4h-1v2h-2v1h-1v2h-1v3l-1 1-1 1h-1v1l-1 1h-1l1 1h-2v1h-1v1h-2v1h-1v2h-2v1h-1v1h-1v1h1v2h-1v-2h-4v1h-1l-1 1h-3l-1 1h-1v1h-3l5-40h-1v-1h-2v-1h-3v-1h-1v-1h-2v-1h-3v-1h-2v-1h-1l-1-1v-1l-4-2v-1h-2v-1h-1v-2h-2v-2h-2v-1h-2v-1h-2v-1h-5v-1h-5l-2-2-2-4 1-2 1-1h1v-2h1l1-2v-2l1-1 1-2 1-2 2-1v-2l1-1v-3l1-2 1-1 1-1 2-3 1-1v-1l1-3 1-1 1-1v-1l1-2v-14l-1-1-1-1-19-20-19-16h-69l1-20-2-10v-3l2-3h1v-1h1v-1h6v-1h2v1h5v-2h1v-3h4v-2h2l1-1v1h6-1v-1h1v-1h1v-1h2v-4h1v-2l-1-1v-3h-1v-1h1v-1h2v-2l17 9 3-4 3-8 4-4 13-1h2v1h2v1h2v2h5v-2 1h1v-1l1-1v-1h1v-1h1v-2h1v-1h1v-1h1v2h3v1-1h2v1-1h4v1h1v-1h3v-1h2v-1l1 1h1v-1h5v-1 1h1v-1h1v-1h3v-1h2v-1h1l1-1h1v-1h1v-2l1-1 1-1v-1h1v-1h1v-1h1v-2h2v-2h1v-1h-1l12 3 1 1h1v1h2l1 1h1v1l2-2 1-2 1-1 1-2h1v-1l1-1v-1l1-2v-2l1-1 3 3 7-7 1-1v-6l1-1v-9l1-1v-5z"/><path class="fil0 str0" d="M456 203h1v2h1v1l1 1v2h1l1 1 2 1 1 1 2 1 2 1h1l1 1h-1v1l-1 1v2l-1 1h-1v3l-1 1-1 1-1 1v10l1 3 1 1 1 1v9l1 1h1l2 3v1h1l1 1h3v5l-2 2v1l1 1v7h1l1 1 1 1v1l1 2-1 1v2l-1 2v3l3 2 1 1v2h1v2h2l1 1 2 1v1l2-1 1 1h2v3l2 1 1 1 4 1 1 1h1l3 2v1l3 1 3 1 4 1h1v1l1 1 1 1 1 1h1v2l-1 1h-1v3l1 1v1l1 1v1l-1 1-1 1v3h1v2h-1l1 1v3h-1v1l-1 1v2h1v1h1l1 1 1-1v1l1 1h1v4l-1 1h-1v1h-1 1v1h-1v2h-1v1h-5v1l-1 1v2l-1 1-1 1-1 1h-1v1h-1v1l-1 1-1 1v4h-1l-1 1v1h-1v1h-1v1l-1 1-1 1v1h-1l-2 3-2 2h-1v1h-1l-37 16v-1l-2-1h-1v-1l-2-1-3-1-1-1v1h-4l-1-1v-1h-1v-1h-1v-1h-2v-2h-1v-1h-2v-1h-4v-1h-10v-1h-1v-1h-1v-1h-5v-1h-2l-36 15h-1v1h-2v1h-2v1h-1v1h-1v1h-1v1h-2v1h-1v1h-1v-4l1-1v-4h1v-3h1v-3h-1v-1h-1l1-2-1-1-1-1v-3l1-1h1v-3h1v-2l1-1 1-1v-2l-1-1v-2h-1v-2l-1-1-1-3 2-1v-1l1-1 1-3v-1h1v-1l-1-1v-2h1v-1h-1v-2h1v-7l1-1v-2l1-2v-1l1-1 1-2 1-1v-4l-1-1-1-1v-4l1-1v-3l1-3v-1h-1l1-1v-3l2-2 1-2 1-2 1-1v-2l1-1 2-1 3-2 3-1h2l2-1 2-2 1-2v-3h1v-1h1v-3l2-1v-2l1-1h1l3-3 4-2 1-1 3-2 1-1 1-3v-1l1-4v-2l1-2v-1h3l1-1 2 1h3l1-1 1 1 5-1 2-1 2-1v-1h2l1-1 1-2 1-1 1-2h1v-3h1v-2l1-1v-2l1-2 1-1v-3l1-1 1-2 1-2v-1h1l1-1v-1l1-1v-2l1-1v-1l1-1v-4l1-2v-1l1-2v-2zM170 305h69l19 16 19 20 1 1 1 1v14l-1 2v1l-1 1-1 1-1 3v1l-1 1-2 3-1 1-1 1-1 2v3l-1 1v2l-2 1-1 2-1 2-1 1v2l-1 2h-1v2h-1l-1 1-1 2 2 4 2 2-1 1h-2v1l-2 1v3l-1 1v2h1l-1 1v1l-1 1-1 2-3 1-1 1h-1v1l-1 1v1l-1 1v1l-1 1v3l-1 1v4l-1 1v2h-1v1h-1v1l-1 1v2l-1 1v2h-1l-1 1v2l-1 1v2l-9 9h-1l-4 3h-1v1l-1 1-1 2v10l-2 3 1 1-1 2 3 1 1 3v6l1 2v2l-1 1h-3l-1 2v3l1 1 1 1 1 2v1h1l-1 1v2l1 1v1l-1 1v1l1 1-1 1v7h1l-1 3-3 3 3 1h3l2 2-3 3v4l-1 3-2 1-1 1v5l-1 3 2 2 1 1v1l-2 1v2l-1 1v2l-1 2h-4l-4 1-3 4h-6l-5 1v1l-4 3-1 2-2 3h-3v1h-2v2h-3v-1h-1v-2h-1v-1h-2v-1h-2v1h-6v-1h-6v-1h-2v-1h-2v-1h-3v-1h-1v-1h-2v-1h-1v-2h-1v-1h-1v-1h-4v-1h-2v-1h-1l-2-1-2-4-3-3h-10l-11-7-1-3-4-5-1-2-2-2-1-2-1-1v-1h-1v-5H92v1h-1v1h-1l-1 1v-1h-1v-2h-1v-3h-1v-2h-1v-1l-1-1h-1v-2h-1v-1h-1v-2h-1v-3h-1v-2h-1v-2h-1v-1h-1v-1h-1l-1-1-1-1-48-35 2-6 9-30 7-21 7-20 9-29 5-17 4-13 8-21 1-7h93z"/><path class="fil0 str0" d="M516 350v1h-1v4l1 1h1l1 1h5v6h1l1 1v1h-1l1 1v1l1 1v1h3l1 1h1l2-1h3l1 1h3l1-1v-1l1-1v-1h1v1h2v3h1v1l1 1v1l1 1 1 1 1 1 1 1 1 1 1 1 1 1v4l-1 1v1l1 1h2v2h-1v1h-1v4h1-1v1h-1v7h1v2h1v1h1v1h4l1 1h1l-1 2v6h1l1 1h1v1h2v1h1v3l1 1-1 1v4h-1v3h-1v1l-1 1-1 1v6h-1l-1 1h-4l-1 1v5l-1 1v1h-1v4l1 1v2h-1v1h-1v1l1 1-1 2v2l-2 1v1l-1 1v2h1v4h-1v1h-2v-2h-9v-1h-1v-1h-1v-1h-6v-2h-4l1-1v-1h-1v-1l-1-2h-1l-1-1v-1h-1v-1h-2v-1h-1v-1h-1l-1-1 1-1v-1h-1v-1h-1v-1h-2v-1h1l-1-1v-2h-1l-1-1v-2h-1v-1h-3l-1-1v1h-1v-1l-1-1v-2h-1l-2-1v-6l-2-5v-1h-2l-1-1v-3h-1v-2h-1l-1-2-1-1 1-1v-4l-1-1v-1h1v-2l3-2 1-2 1-1v-2l-1-6h-1v-2h-2v-2h-3v-3l-2-9h1v-1h1l2-2 2-3h1v-1l1-1 1-1v-1h1v-1h1v-1l1-1h1v-4l1-1 1-1v-1h1v-1h1l1-1 1-1 1-1v-2l1-1v-1h4z"/><path class="fil0 str0" d="M410 376h2v1h5v1h1v1h1v1h10v1h4v1h2v1h1v2h2v1h1v1h1v1l1 1h4v-1l1 1 3 1 2 1v1h1l2 1v1l37-16 2 9v3h3v2h2v2h1l1 6v2l-1 1-1 2-3 2v2h-1v1l1 1v4l-1 1 1 1 1 2h1v2h1v3l1 1h2v1l2 5v6l2 1h1v2l1 1v1h1v-1l1 1h3v1h1v2l1 1h1v2l1 1h-1v1h2v1h1v1h1v1l-1 1 1 1h1v1h1v1h2v1h1v1l1 1h1l1 2v1h1v1l-1 1h-4v1h-2v1h-1v2h-2v1h-1v1h-3v1h-1v1h-2l1 1-1 1v1h1l-1 1-1 1v1h-1v4h-1v4h1v2h-1v1h1v2h1v3h-1v1h1v1h-2v1h1-1v1h1v1h-3v-1h-1v-1h-3v-1h-1v-1h-1v-1h-2v-1l-1-1v-1h-2v-1h-2v-1h-1v-1h-1v-1h-1v-1h-2v-1 1-1h-1v-1h-4v-1h-1v1h-4v2h-1 1-1 1v1h-3v1h-1v1h-1v2h-1v1h-2v1h-1l-1-1v-1 1l-1-1h-4v-1h-2v-1h-2v-2h-2l-1-1v1h-1v-1h-1v-1h-3l-1-1h-3l-1-1v-2l1-1 1-2v-7l2-2 1-3-3-1h-4v1l-1 1v1l-1 1h-3l-1-1v-1l-1-1v-1h-2v-1h-6v-1 1h-2v-1h-3v-1h-1v-1h-2v-1h-1v-1h-1v-3l-1-1-3-1v-4l1-3v-4h1v-2l-1-1v-3l-1-1-1-2h-1l-2-1-1-1-1-1-1-1v-2l-1-2-1-2h-2v-1l-1-3v-2h-1v-8h-1 1v-1h-1v-3h-1v-2h-1v-1l-1-1-7-6v-1l-2-1-1-1-1-1v-1h-4v-1h-3v-1h-1v1h-5l36-15z"/><path class="fil0 str0" d="M344 390h1v1h2v1h1v1h1v1h1v1h3v1h1v1h1v1h1v1h1v1h4v-1 1h1v-1h1v-1h1v-1h2v-1h1v-1h1v-1h1v-1h2v-1h2v-1h6v-1h1v1h3v1h4v1l1 1 1 1 2 1v1l7 6 1 1v1h1v2h1v3h1v1h-1 1v8h1v2l1 3v1h2l1 2 1 2v2l1 1 1 1 1 1 2 1h1l1 2 1 1v3l1 1v2h-1v4l-1 3v4l3 1 1 1v3h1v1h1v1h2v1h1v1h3v1h2v-1 1h6v1h2v1l1 1v1l1 1h3l1-1v-1l1-1v-1h4l3 1-1 3-2 2v7l-1 2-1 1v2l1 1h3l1 1h3v1h1v1h1v-1l1 1h2v2h2v1h2v1h1l1 1h-1v4h-1 1v3l1 1v1h1-5v-2h-1 1-1v-2h-5l-1 1h-1v1h-2v1h1l1 1h1v1l-1 4 1 2v3l-1 2v3-1h-4v-1h-1v2h-2v1h-1v1h-7l-1 1h-1v8l-1 1v1h-2l-1 1h-1v1h-1v1h1v4h1v2h1-1v1h-1v-1h-3v-1h-2v-1h-3l-1-1h-1v1h-4v-1h-2v1h-7v1h-1v-1h-1v-1h-2v-1h-1l-1-1h-1v-1h-1v1-1h-2v-1h-3v-4l-1-1v-2h1v-7h-1v-5h1-1v-1h2v-5h-1v-1h-1v-1h-1v-1h-1v-1h-2v-2l-1-1-1-1v-1h-1v-1h-2v-1l-1-2-6 3-2 1v3l-1 1-1 1v1l-1 2-1 2v5l1 1v3h-1v3l-1 1v9h-1l-2 1-1 1-1 2v2l-1 1-1 2v1h-1l-1 1-1 1v2l-1 1v1h-6l-1-1h-1l-2-3-2-1v-1h-2l-1-1h-3l-2-1-4-3-2-1h-13l-5 1-1-1v-1l1-1 1-2 1-2v-2l-2-1h-3l-1 1h-1l-1 1-4 1h-1v-3l-1-1v-4l-1-1v-4l-1-3-2-3-1-3-4-14v-8l3-22h3v-1h1l1-1h3l1-1h1v-1h4v2h1v-2h-1v-1h1v-1h1v-1h2v-2h1v-1h2v-1h1v-1h2l-1-1h1l1-1v-1h1l1-1 1-1v-3h1v-2h1v-1h2v-2h1v-4h1v-1h1v-1l1-1h2l3-14v-1h-1v-1h-1v-2h-1l-1-1h-1v-5h1v-1h1v-1h2v-2h1v-1h1v-3 1-1h1-1 1l-1-1h1v-1h-1 1v-2h1v-1h-1v-1h3v-1h-1 1v-1zM596 546v-1h2v-1h1v-1h-1v-1h3v-3h2v-1h-1v1-2h2v-2h-1v1h-1v1h-1v-2h1v-1h1v-2h-1 1v-1h2v1h3v-2h-2v-3h2v-1h-1v-1h1v-3h1-1v-2h-1v-1h1v-2h2v-1h1v1-1h1l-1-1h-1v-1h1-2v-1h1v-1h1v-1h1v-3h1v-1h-1v-2h4v-2h-1v-1h1v-2h1v1h1v-1h-2v-2h1v1h1v1h1v-1h1v-2h-2v-3h2v-1h1v-1h-1v-1h3v1h2v-2h1v-4h1v-1h2v-1h-1v-7h1v-1h1v-1h1v-1h-1v-3h1v-1h5v-3h3v-1h2v-1h5v-1l1 1h2v-2h-1v-2l1-1h2v-1h1l1-1v-3l1-1h1v-1l1 1h2v-1h1l1-1h1v-3h4v-1l1-1v-1h1v-1h2v-1h1v-1h-1v-1h-1 1v-1h1v-2h1v-2h-3v-1h1v-1h2v-2h1v-2h1v-1h2l1-1v-2h1v-1h1v-2h-1v-1h47v127l-1 2v6l2 6-1 7 1 6-3 3v3l-3 5-1 3v3l-1 1v1h-1v2h-1v1h-1v1h-1v2h-1v3h-1v1h-1l-1 1v1h-1 1v2h-1v1l-1 2v1h-1v1l-2 1h-1v1l-1 1h-1v2h-1v1l-1 2v4h-2v-1h-5v-1h-1v2h-1v1h-1v1h-1v1h-2l-1 1h-2l-1-1h-7v1h-2l-2 1h-2l-1-1-1-1h-3l-1 1-1 1h-1v1l-1 1-2 1-1 1-1 1v1l-1 1-6 1v1h-1v1l-1 1v4h-1l-2 2-2-1h-4v-5l1-1v-1l1-1v-3l-1-1v-1h-2v-1l-1-1-1-1h-1l1-1v-3l1-1v-3l1-1v-2l1-1v-6l1-1v-2l1-1v-1h1v-2h1l1-1v-1l2-1 1-1v-1h-1v1h-2v2h-3v1h-2v1h-4v-1h-7v1h-3v1h-4v1h-7v1h-3v-1h-2v1h-4v-1h-2v1l-1-1h-1v-1h-3v-1h1-3v-1h-2v1-1h-1v-1 1-1h-1v-1h-1 1v-2h1v-1h1v-2h-1v-1h1v1h1v-3 1h1v-1h1v-2h1v-3h1v-1h-1 1v-2h-1 1v-3h2v-3h1v-1h-1 1v-6h1v-2h-1v-3h-1v-2h-1v-2h-1 1v-1h-1v-2h-1v-3h-1v-4h-1v-1h1v-4l1-1v-1h-1 1v-1 1h1v-2h-1v-1h-1z"/><path class="fil0 str0" d="M457 498h3v2h1-1 1v2h7v1-1h1v1h1v1h1v1h3v1l1 1h1v1h1v1h3v1h2v1h1v1h2l1 1h1l1 1v1h1l1 1v2l1 2-1 1v1l-1 1h-1l-2 1h-1l-1 1v1h-2l-1 1v1l-1 1v1h1v3h3v-1h2v-1h1v-1h1v-1h2v-1h1-1 1v-1h1v1-1h9v6h1l1 1v1h2v1h1v5h-1v1h1-1v1-1h-1v2h1v1h-2v1-1 2h-1 1v3h-1v-1 1h-1 1v1h-1v1h1-1 1v1h-4v1h-1v1h-4v-1h-1v1h-1v-1h-2v1-1h-1v-2h-1v1h-1v-1 1h-1 1v1h-1v2h-1v2h-1v1h-2v1h-1v1h-3v1h-1l1 1v-1h2v1h2v1h2v6h1-1v6l-1 1v4h1v3h1v1h1-3v-1h-1l-1-1h-2v-1l-2 2v1h-3v1h1v1h1v1h1v1h1l1 1h1v2l-1 4h-1v-1h-4v-1h-6v1h-1v-1 1-1 1-1h-1v1h-1v-1h-2v-1h-1v-1h-2l-1 1v-1 1-1h-5v-1h-1v1h-2v1h-1v1h-1v1h-1l-1 1h-9v-1h-9l-1 1v1h-1v1h-1l-1 1v1h-24l-7-2-5-2-9-6-1-2h-1l-1-1h-1v-1h-2v-4l-1-1-1-1v-1h-1v-1l-2-1h-1v-1h-1v-1h-2v-3l2-2h1l1-1-1-1h-1l-1-1h-1v-1l1-1 1-1v-3l1-1-1-2-1-1v-2h-1v-3h-1v-1h-1v-1h-2v-2h1v-1l-1-1v-1l1-1v-2l1-1 1-1h1v-1l1-2 1-1v-2l1-2 1-1 2-1h1v-9l1-1v-3h1v-3l-1-1v-5l1-2 1-2v-1l1-1 1-1v-3l2-1 6-3 1 2v1h2v1h1v1l1 1 1 1v2h2v1h1v1h1v1h1v1h1v5h-2v1h1-1v5h1v7h-1v2l1 1v4h3v1h2v1-1h1v1h1l1 1h1v1h2v1h1v1h1v-1h7v-1h2v1h4v-1h1l1 1h3v1h2v1h3v1h1v-1h1-1v-2h-1v-4h-1v-1h1v-1h1l1-1h2v-1l1-1v-8h1l1-1h7v-1h1v-1h2v-2h1v1h4v1-3l1-2v-3l-1-2 1-4v-1h-1l-1-1h-1v-1h2v-1h1l1-1h2zM596 546h1v1h1v2h-1v-1 1h-1 1v1l-1 1v4h-1v1h1v4h1v3h1v2h1v1h-1 1v2h1v2h1v3h1v2h-1v6h-1 1v1h-1v3h-2v3h-1 1v2h-1 1v1h-1v3h-1v2h-1v1h-1v-1 3h-1v-1h-1v1h1v2h-1v1h-1v2h-1 1v1h1v1-1 1h1v1-1h2v1h3-1v1h3v1h1l1 1v-1h2v1h4v-1h2v1h3v-1h7v-1h4v-1h3v-1h7v1h4v-1h2v-1h3v-2h2v-1h1v1l-1 1-2 1v1l-1 1h-1v2h-1v1l-1 1v2l-1 1v6l-1 1v2l-1 1v3l-1 1v3l-1 1h1l1 1 1 1v1h2v1l1 1v3l-1 1v1l-1 1v5l-1 1v1h-1v3l-1 1v3l-1 1v2h-1v3h-1v1l-1 1v3l-1 1v1l-2 1h-1l-1 1h-3l-1 1h-1l-1-1h-3v-1h-1v-1l-1-1h-2l-1-1h-3l-1-1h-4v-1l1-1h-1v-1l-1-1h-2l-1-1-1-1-1-1v-1h-1v-1l-1-1v-1l-1-1-1-1h-1v-1h-1v-1h-6v-1h-1v-1h-1l-1-1v-2h-1l-1-1v-1h-2v-2h-1v-1h-2l-1-1h-2l-3-1h-6 1v1l-22-5-1-1 2-2 3-4 2-2 5-7-5-1-6-1-5-1-6-2h-1v1h-2l-1 1v-1h-1l-1-2v-2h-1v-1h1l-1-1v-1h-1l-1-1v-1h1-1v-2h-3v-1h-1v-1l-1-1v-1h-1v-4l1-1v-1l1-2v-2l-1-1v-3h-1v-2h-1v-2l-2-5 1-1h1v-1l-1-2v-1l-1-1h2l1 1h1v1h2v-2l-1-36h3v1h1v-1 1h1v1h1v-1h5l1 1h2v-1h2v-1h5v1h1v-2h3v1h5v-1h1v1h2v1h3v1h2v1h2v1h1v1h1v1h1v1h1v1h2v1l1 1v1h-1v2h1v1h-1 2v1h1v1h6v1h1v1h2v-1h2v1h1l1 1v-1h1v-2h1v2-1h1v-1h-1 2v1-1h1-1v-1h1v1h1v-1h-1 1v-1h-1 2v-1 1h1-1 2v-2h1v1-2h2v1h1v-1h1-1v-1h2z"/><path class="fil0 str0" d="M502 550v-1 1h1v-3h-1 1v-2 1-1h2v-1h-1v-2h1v1-1h1-1v-1h1v-1h2v-2h2v-1h1v1h1v1-1h1v1l1-1h1v-1h-1 5v-1l1 36v2h-2v-1h-1l-1-1h-2l1 1v1l1 2v1h-1l-1 1 2 5v2h1v2h1v3l1 1v2l-1 2v1l-1 1v4h1v1l1 1v1h1v1h3v2h1-1v1l1 1h1v1l1 1h-1v1h1v2l1 2h-1v-1h-3l-1 1v-1h-1v-1h-6v-1h-1v-1 1-1h-1v1h-1v-1h-6v-1 1-1h-2v-1h-3v-1h-1v1-1 1-1h-1v-1h1v-1h-1v-1l-1-1h-1v-1l-1-1v-1h-1v-2h-1v-1h-1v-1h-1l-1-1h-4v1h-4v-1h-4v-1h-1l1-4v-2h-1l-1-1h-1v-1h-1v-1h-1v-1h-1v-1h3v-1l2-2v1h2l1 1h1v1h3-1v-1h-1v-3h-1v-4l1-1v-6h1-1v-6h-2v-1h-2v-1h-2v1l-1-1h1v-1h3v-1h1v-1h2v-1h1v-2h1v-2h1v-1h-1 1v-1 1h1v-1h1v2h1v1-1h2v1h1v-1h1v1h4v-1h1v-1h4v-1h-1 1-1v-1h1v-1h-1 1z"/><path class="fil0 str0" d="M457 592h1v1-1 1l1-1h2v1h1v1h2v1h1v-1h1v1-1 1-1 1h1v-1h6v1h4v1h2v1h4v1h4v-1h4l1 1h1v1h1v1h1v2h1v1l1 1v1h1l1 1v1h1v1h-1v1-1h-5v-1 1h-1v-1 1-1 1-1 1l-1-1v1h-5v-1 1h-1v-1h-5v-1h-6v-1h-5v11h-7v1h-3v1h-2v1h-3l-1 1h-1v-1 1h-3v2l-1 1v3l-1 1v2h2v1h1v3h-1v2l-1 1h1v2h-2v1h-5l-3 1-1-1-1 1-1-1h-2v1h-2v-1h-1v-2h-2v-1h-1v-1l-1-1v-2l1-1h-3l-2 1-1-1h-5v1h-1l-1 1v4h-1v-1h-1v-1h-7v-1l-1-1h-1v-1h-2v-1h-2v-1h-4l-1-1-1-1-1-1v-1h-1l-2-1-5-2h-1v-1h-2l-1-1h-1v-4l1-1v-2l-1-2-3-4-1-1-1-2v-4l1-2v-1l1-1 1-1v-6l9 6 5 2 7 2h24v-1l1-1h1v-1h1v-1l1-1h9v1h9l1-1h1v-1h1v-1h1v-1h2v-1h1v1h4z"/><path class="fil0 str0" d="M470 605h5v1h6v1h5v1h1v-1 1h5v-1l1 1v-1 1-1 1-1 1h1v-1 1h5v1h1v1-1 1-1h1v1h3v1h2v1-1 1h6v1h1v-1h1v1-1 1h1v1h6v1h1v1l1-1h3v1h2v1l1-1h2v-1h1l6 2 5 1 6 1 5 1-5 7-2 2-3 4-2 2 1 1 22 5v1h-2v3h-1v1h-2v2h1-1v1h1-1l-1 1h-1v7h-1v1h-1 1v1h-1v3h1v-1 1h1v2h-1v-1 1h-1 1v1h-1 1v1h-1v-1h-1v1h1v1-1h-1v2h-2v1-1h-1v1h-2v-1h1-1v1h-2v1-1 1-1 1-1h-2v-1 1-1 1h-1v-1 1h-2 1-1v-1 1-1 1-1h-1v-1h-1v1-1h-2l-1-1v1h-1v-1h-1v-1 1h-1v-1h-9v-1 1-1h-4v-1h-2v-1 1h-1v-1h-1v-1h-2v1h-1v-1h-2v-1h-2v-3h-1v-2h-1v-1h-1v-2h-3v-1h-1v-1h-3v-1l-1-1h-1v-1l-1-1v-1h-1v-1h-1v-1h-1v-1h-2v-1h-1v-1h-1v-1h-3v-1 1-1h-1l-4 2-1 4-1 1h-1v-1h-3v1l-1 1-2 1h-4l-1 1h-3l-2 1v-1h-1l-1-1h-6l-1-1h-2l-1-1h-1v-2h-1v-1h1v-1l1-1h-1v-1l-1-1v-2h-1l1-1v-2h1v-3h-1v-1h-2v-2l1-1v-3l1-1v-2h3v-1 1h1l1-1h3v-1h2v-1h3v-1h7v-11zM597 410h4v-2h1v1-1h2-1v1h1l1 1h1v1h1v1h1v2h1v1h3v1h1v-1 1h3v1h4v2h1v-1 1h2v1h2v1h1v1h1v-1h1v1h1v-1h2v1h-1 4v1h1v2h1v-1h1v1-1h1v3h1v2h2v1h1v1h1v1h2v2h1v1h1v4h1v1-2h1v-1h2v3h3v1h1v2h-1v1h1v1h-2v2h3v1h1v1h1v1-1h3v-1h1v1h-1v3h-1l-1 1h-1v1h-2l-1-1v1h-1l-1 1v3l-1 1h-1v1h-2l-1 1v2h1v2h-2l-1-1v1h-5v1h-2v1h-3v3h-5v1h-1v3h1v1h-1v1h-1v1h-1v7h1v1h-2v1h-1v4h-1v2h-2v-1h-3v1h1v1h-1v1h-2v3h2v2h-1v1h-1v-1h-1v-1h-1v2h2v1h-1v-1h-1v2h-1v1h1v2h-4v2h1v1h-1v3h-1v1h-1v1h-1v1h2-1v1h1l1 1h-1v1-1h-1v1h-2v2h-1v1h1v2h1-1v3h-1v1h1v1h-2v3h2v2h-3v-1h-2v1h-1 1v2h-1v1h-1v2h1v-1h1v-1h1v2h-2v2-1h1v1h-2v3h-3v1h1v1h-1v1h-2v1h-2v1h1-1v1h-1v-1h-2v2-1h-1v2h-2 1-1v-1 1h-2 1v1h-1 1v1h-1v-1h-1v1h1-1v1-1h-2 1v1h-1v1-2h-1v2h-1v1l-1-1h-1v-1h-2v1h-2v-1h-1v-1h-6v-1h-1v-1h-2 1v-1h-1v-2h1v-1l-1-1v-1h-2v-1h-1v-1h-1v-1h-1v-1h-1v-1h-2v-1h-2v-1h-3v-1h-2v-1h-1v1h-5v-1h-3v2h-1v-1h-5v1h-2v1h-2l-1-1h-5v1h-1v-1h-1v-1 1h-1v-1h-3v1h-5 1v1h-1l-1 1v-1h-1v1-1h-1v-1h-1v1h-2v2h-2v-4h-1v-1h-2v-1l-1-1h-1v-6h-9v1-1h-1v1h-1 1-1v1h-2v1h-1v1h-1v1h-2v1h-3v-3h-1v-1l1-1v-1l1-1h2v-1l1-1h1l2-1h1l1-1v-1l1-1-1-2v-2l-1-1h-1v-1l-1-1h-1l-1-1h-2v-1h-1v-1h-2v-1h-3v-1h-1v-1h-1l-1-1v-1h-3v-1h-1v-1h-1v-1h-1v1-1h-3v-1l-1-1v-3h-1 1v-4h1l-1-1h3l1 1v-1 1l1 1h1v-1h2v-1h1v-2h1v-1h1v-1h3v-1h-1 1-1 1v-2h4v-1h1v1h4v1h1v1-1 1h2v1h1v1h1v1h1v1h2v1h2v1l1 1v1h2v1h1v1h1v1h3v1h1v1h3v-1h-1v-1h1-1v-1h2v-1h-1v-1h1v-3h-1v-2h-1v-1h1v-2h-1v-4h1v-4h1v-1l1-1 1-1h-1v-1l1-1-1-1h2v-1h1v-1h3v-1h1v-1h2v-2h1v-1h2v-1h8v2h6v1h1v1h1v1h9v2h2v-1h1v-4h-1v-2l1-1v-1l2-1v-2l1-2-1-1v-1h1v-1h1v-2l-1-1v-4h1v-1l1-1v-5l1-1h4l1-1h1v-6l1-1 1-1v-1h1v-3h1v-4l1-1-1-1v-3h2l1 1 1 1v1h1v1h1v-1h1v1h4v-1h2v-1h1v-3h1v-1h1v-1h-1 3v-1h1v-1 1h1v-1 1h1v1h1v-1h2v-2h2v-1h1v-1 1h2v-1h1z"/></g></svg>