<?xml version="1.0" encoding="UTF-8"?>
<!DOCTYPE svg PUBLIC "-//W3C//DTD SVG 1.1//EN" "http://www.w3.org/Graphics/SVG/1.1/DTD/svg11.dtd">
<!-- Creator: CorelDRAW 2020 (64-Bit) -->
<svg xmlns="http://www.w3.org/2000/svg" xml:space="preserve" width="750px" height="700px" version="1.1" style="shape-rendering:geometricPrecision; text-rendering:geometricPrecision; image-rendering:optimizeQuality; fill-rule:evenodd; clip-rule:evenodd"
viewBox="0 0 750 700"
 xmlns:xlink="http://www.w3.org/1999/xlink"
 xmlns:xodm="http://www.corel.com/coreldraw/odm/2003">
 <defs>
  <style type="text/css">
   <![CDATA[
    .fil0 {fill:#FF9500;fill-opacity:0.800000}
   ]]>
  </style>
 </defs>
 <g id="Capa_x0020_1">
  <metadata id="CorelCorpID_0Corel-Layer"/>
  <polygon class="fil0" points="645.56,434.52 646.4,434.52 650.15,443.68 654.73,444.1 653.06,446.6 658.06,451.18 669.31,444.1 668.9,435.77 678.06,423.27 723.48,423.27 723.06,486.6 721.81,486.6 717.23,475.77 717.65,471.6 718.9,469.1 718.48,469.1 718.48,467.02 718.9,466.6 718.06,466.18 718.06,465.77 717.23,464.1 717.23,463.27 715.15,472.02 709.73,466.18 708.48,462.02 706.4,461.6 705.98,457.85 697.65,454.1 693.9,454.93 692.65,457.85 698.9,458.68 699.31,460.77 693.06,461.6 695.15,465.35 698.48,463.69 697.23,465.35 699.73,465.35 700.56,468.27 693.48,465.35 692.23,469.1 689.31,468.69 688.48,462.43 676.81,466.6 676.4,473.27 679.31,473.27 678.9,474.52 682.65,475.77 683.48,477.02 683.48,477.43 679.31,477.43 673.48,474.1 673.06,476.6 665.98,475.77 657.23,482.02 656.81,479.52 660.14,474.52 668.9,467.02 663.9,468.27 658.06,465.77 657.23,468.27 655.98,467.44 655.56,465.77 645.98,473.68 643.9,472.85 644.73,469.93 643.48,469.93 643.48,471.6 640.56,472.02 641.39,475.35 636.4,474.1 634.73,485.35 629.73,486.19 630.56,492.44 627.65,491.6 625.98,498.69 621.81,499.94 622.64,502.85 624.31,503.27 624.31,504.52 619.73,503.27 615.98,509.52 618.06,510.35 612.65,513.69 608.06,524.94 609.73,536.6 603.48,551.6 600.14,556.19 599.31,555.35 598.48,553.27 596.81,553.27 596.39,557.02 594.73,555.35 595.56,552.44 593.9,552.02 593.9,552.44 593.9,553.27 593.06,553.69 593.48,553.69 591.81,557.02 590.98,557.02 588.48,554.1 592.23,549.52 590.56,548.69 588.89,550.77 586.4,550.35 590.15,547.44 588.89,547.85 587.23,546.19 588.48,545.35 587.65,544.94 587.65,544.52 588.06,544.1 585.14,544.94 588.89,539.94 586.4,542.85 585.14,540.35 583.06,539.94 585.14,537.85 578.48,537.02 578.9,532.85 583.9,529.52 586.4,524.94 587.23,527.44 588.48,527.85 587.65,524.52 591.81,522.44 588.06,521.6 590.98,520.35 588.48,517.02 590.15,513.69 587.23,514.1 587.23,515.77 586.4,515.77 586.81,515.35 586.4,514.94 587.23,513.69 585.56,513.27 585.56,511.6 587.23,509.52 585.56,509.1 585.56,506.6 585.98,506.6 585.98,506.19 583.06,507.02 580.98,501.6 583.06,502.02 585.56,499.94 588.06,499.94 594.73,493.27 596.39,492.85 595.15,491.19 595.56,489.1 597.65,487.85 596.39,487.85 595.15,481.18 596.39,479.52 600.56,479.94 600.14,478.69 601.81,476.19 600.98,475.77 599.31,475.77 605.98,472.02 619.73,473.68 630.14,462.43 629.73,460.77 630.56,456.6 634.31,454.1 638.9,454.52 636.81,453.69 635.56,451.18 638.48,452.44 640.15,448.69 643.48,447.85 641.81,439.93 "/>
 </g>
</svg>
