<?xml version="1.0" encoding="UTF-8"?>
<!DOCTYPE svg PUBLIC "-//W3C//DTD SVG 1.1//EN" "http://www.w3.org/Graphics/SVG/1.1/DTD/svg11.dtd">
<!-- Creator: CorelDRAW 2020 (64-Bit) -->
<svg xmlns="http://www.w3.org/2000/svg" xml:space="preserve" width="750px" height="700px" version="1.1" style="shape-rendering:geometricPrecision; text-rendering:geometricPrecision; image-rendering:optimizeQuality; fill-rule:evenodd; clip-rule:evenodd"
viewBox="0 0 750 700"
 xmlns:xlink="http://www.w3.org/1999/xlink"
 xmlns:xodm="http://www.corel.com/coreldraw/odm/2003">
 <defs>
  <style type="text/css">
   <![CDATA[
    .fil0 {fill:#FF9500;fill-opacity:0.800000}
   ]]>
  </style>
 </defs>
 <g id="Capa_x0020_1">
  <metadata id="CorelCorpID_0Corel-Layer"/>
  <polygon class="fil0" points="283.02,38.6 293.52,48 292.43,58.82 320.51,62.06 347.83,94.33 361.08,101.94 370.86,99.35 381.76,101.99 397.97,98.69 399.93,94.07 420.88,98.96 480.89,96.8 474.54,120.38 468.1,116.52 457.81,166.7 441.08,200.15 428.22,245.18 425.64,287.64 430.79,288.93 446.23,250.33 446.23,242.61 451.38,236.17 454.37,256.43 450.88,269.41 454.93,258.33 470.46,297.53 468.59,321.15 474.18,337.93 486.9,354.29 494.7,347.26 497.18,331.72 501.53,327.37 507.13,329.85 507.13,334.83 492.83,369.63 490.7,367.84 466.1,380.2 464.86,392.63 471.7,396.98 474.18,405.06 474.81,411.28 458.65,419.36 452.43,428.06 441.24,480.9 434.38,490.09 437.27,490.57 437.87,496.57 448.05,495.97 452.84,486.38 458.23,483.39 458.33,478.51 462.43,475 466.62,474.4 466.62,469.61 473.21,469.01 474.41,452.83 483.99,455.23 475.91,442.65 476.51,436.66 483.38,425.31 485.44,426.83 484.3,423.54 485.09,421.39 486.52,425.12 487.85,423.73 486.09,401.31 491.48,398.32 493.88,403.71 494.31,404.77 493.99,405.44 494.8,406.01 492.47,406.76 493.67,404.36 493.29,403.28 492.85,403.16 492.22,407.02 493.36,407.65 500.64,402.94 504.66,404.91 506.89,408.92 499.18,413.03 498.48,409.87 497.22,409.74 496.58,411.45 497.15,415.06 501.71,415.18 500.89,418.16 505.07,410.94 516.4,412.65 523.23,407.9 522.64,399.52 516.05,400.11 517.24,390.53 507.66,389.33 504.66,386.34 507.06,382.14 510.95,386.26 518.5,379.29 525.7,391.3 521.78,391.83 524.44,393.73 521.71,393.28 521.84,396.13 530.89,398.85 531.4,394.49 545.4,382.14 545.4,377.95 541.21,377.35 545.75,370.75 554.18,381.27 552.64,401.55 561.39,407.03 562.29,415.63 580.14,417.84 603.05,407.93 609.63,415.18 637.7,423.68 637.23,427.53 643.88,433.54 641.73,446.77 628.43,455.69 630.21,459.24 620.52,472.4 610.52,474.18 603.3,471.2 599.51,474.68 596.53,474.43 591.72,480 592.54,480.7 592.61,483.61 593.43,483.73 592.48,484.43 593.49,484.49 593.94,485.32 593.37,491.2 591.91,493.29 586.91,497.47 575.9,501.14 584.88,517.73 577.61,532.03 576.02,540.77 579.69,543.36 576.53,544.75 579.95,545.77 578.05,547.03 579.88,547.79 579.06,549.37 579.63,549.31 579.82,549.57 579.44,549.37 579.12,549.63 579.88,550.26 579.19,550.26 580.01,551.08 579.5,551.91 580.64,551.4 580.14,547.79 582.1,549.63 582.35,548.99 582.92,548.74 581.72,553.87 580.58,554.25 579.38,552.98 579.06,553.49 580.83,555.01 582.92,553.74 583.05,554.95 580.96,555.2 581.02,556.4 581.59,555.58 582.92,556.15 583.11,554.38 584.57,554.75 583.62,556.46 584.69,556.02 585.26,556.53 583.94,557.41 585.26,557.67 584.82,561.02 586.97,559.12 594.89,559.57 599.38,567.42 597.92,561.53 602.1,561.15 606.03,547.6 610.71,538.55 612.42,538.36 610.01,521.52 615.46,516.14 614.44,512.54 619.51,510.89 616.91,509.31 620.46,504.12 625.52,506.9 622.93,500.76 627.67,499.62 628.5,492.34 631.98,492.41 629.19,488.23 636.28,485.95 634.57,484.24 636.28,479.81 638.37,479.43 637.17,474.05 641.73,476.9 642.8,471.9 646.41,474.94 646.09,473.42 655.97,468.29 668.82,468.35 665.59,472.15 659.58,474.11 656.41,479.43 659.39,484.75 662.93,480.89 665.27,481.71 665.65,482.22 664.96,482.41 665.34,482.41 665.46,483.42 666.16,483.17 668.82,476.2 673.63,478.92 674.01,474.05 679.07,480 680.34,476.77 687.55,478.23 678.38,472.72 678.57,465.32 687.36,464.24 692.05,471.96 693.57,466.45 699.45,471.71 701.23,468.54 702.68,469.24 704.14,471.01 706.29,468.42 701.48,467.34 701.42,463.35 695.4,464.37 700.53,460.88 695.97,456.83 697.43,455.95 700.09,456.71 701.86,455.69 700.72,458.29 705.4,458.99 704.26,460.5 704.52,462.09 707.49,462.78 715.22,474.68 717.81,489.69 723,492.22 724.9,564.16 719.33,581.4 722.18,583.6 708.41,607.73 703.25,609.82 696.92,622.64 687.62,629.79 663.37,624.76 659.8,634.19 655.71,638.75 650.08,638.63 645.38,648.37 636.98,648.75 631.66,664.12 611.36,672.74 605.43,670.08 593.81,653.69 567.54,639.51 557.41,651.22 554.68,667.55 540.45,668.56 512.09,660.65 507.28,652.23 487.3,637.51 479.3,639.76 479.41,643.92 457.29,647.04 450.78,645.06 449.62,638.18 434.44,635.9 432.38,638.48 425.63,631.13 419.74,630.52 416.19,634.52 403.78,627.92 406.12,609.16 411.96,604.95 411.59,599.01 407.69,596.66 408.47,579.47 392.84,571.66 394.4,566.97 408.47,565.41 406.91,557.59 412.38,550.56 411.59,544.31 409.25,541.96 399.87,547.43 395.39,546.4 395.88,543.68 389.72,545.09 394.4,541.18 391.13,530.72 394.13,523.52 403.72,530.71 414.5,525.32 408.51,521.13 413.3,518.13 413.3,512.14 407.31,510.35 410.31,506.75 403.72,492.97 404.92,488.18 410.31,487.58 409.71,482.79 404.92,476.8 403.72,465.41 395.33,471.4 395.93,460.02 397.73,455.23 403.72,455.83 409.11,447.44 412.11,449.24 412.11,460.02 421.69,459.42 419.29,448.04 426.48,448.04 430.08,443.85 426.48,443.25 422.89,430.07 431.28,429.47 430.08,416.89 436.07,417.49 439.66,406.1 439.06,394.12 432.47,384.54 418.84,377.15 408.45,381.48 393.37,401.32 390.75,400.75 392.78,402.1 388.52,432.59 379.8,451.33 367.73,512.29 364.26,520.09 342.61,533.08 341.59,537.15 325.12,534.04 332.21,517.12 331.44,505.55 316,504.78 303.93,519.52 300.02,515.13 298.59,501.29 306.47,421.28 303.76,422.44 276.75,403.41 264.47,399.42 252.95,415.79 248.01,416.07 241.56,433.79 238.96,435.31 238.71,430.44 236.87,430.37 237.19,434.62 229.09,440.19 228.31,455.57 219.21,463.54 217.31,475.89 222.67,493.34 218.01,493.23 217.13,498.99 222.57,507.28 211.8,516.62 209.2,527.88 186.67,514.02 178.88,495.83 186.85,470.69 186.85,443.71 182.22,432.92 209.97,347.36 226.93,331.94 237.72,313.44 251.6,308.05 252.37,335.8 269.33,326.55 286.29,292.63 287.06,279.53 282.43,272.59 260.85,273.36 265.47,261.03 273.95,257.94 284.74,240.21 275.5,240.21 257.77,252.55 248.52,238.67 254.68,187.8 263.16,176.24 263.16,163.38 273.18,152.34 279.35,131.53 272.41,112.26 270.87,84.51 "/>
  <polygon class="fil0" points="530.89,394.64 528.11,395.18 527.28,392.32 "/>
  <polygon class="fil0" points="526.81,392.02 526.14,392.9 525.51,391.76 526.08,391.55 "/>
  <polygon class="fil0" points="517.09,409.64 516.9,409.99 516.59,409.99 "/>
  <polygon class="fil0" points="485.19,420.94 485.25,420.94 485.25,421.2 485.13,421.2 "/>
  <polygon class="fil0" points="485.32,420.37 485.38,420.44 485.28,420.56 "/>
  <polygon class="fil0" points="250.8,206.16 250.8,206.49 250.76,206.49 "/>
  <polygon class="fil0" points="250.84,205.79 250.86,205.98 250.82,205.98 "/>
  <polygon class="fil0" points="486.01,401.57 485.99,401.57 486.01,401.52 "/>
 </g>
</svg>
