<?xml version="1.0" encoding="UTF-8"?>
<!DOCTYPE svg PUBLIC "-//W3C//DTD SVG 1.1//EN" "http://www.w3.org/Graphics/SVG/1.1/DTD/svg11.dtd">
<!-- Creator: CorelDRAW 2020 (64-Bit) -->
<svg xmlns="http://www.w3.org/2000/svg" xml:space="preserve" width="750px" height="700px" version="1.1" style="shape-rendering:geometricPrecision; text-rendering:geometricPrecision; image-rendering:optimizeQuality; fill-rule:evenodd; clip-rule:evenodd"
viewBox="0 0 750 700"
 xmlns:xlink="http://www.w3.org/1999/xlink"
 xmlns:xodm="http://www.corel.com/coreldraw/odm/2003">
 <defs>
  <style type="text/css">
   <![CDATA[
    .fil0 {fill:#FF9500;fill-opacity:0.800000}
   ]]>
  </style>
 </defs>
 <g id="Capa_x0020_1">
  <metadata id="CorelCorpID_0Corel-Layer"/>
  <polygon class="fil0" points="619.45,591.19 603.13,549.64 580.28,532.27 571.85,520.2 576.77,500.16 644.72,433.23 658.25,451.01 669.26,444.17 668.82,435.81 677.94,423.16 723.51,423.19 722.68,542.47 717.81,536.9 708.13,548.49 706.54,544 703.88,545.2 703.25,534.31 701.23,534.5 700.02,531.78 703.06,525.39 699.58,522.98 702.55,522.22 700.4,514.69 692.49,527.92 688.25,529.12 682.74,524.56 679.89,526.27 678.57,525.89 678.38,521.97 674.45,523.68 676.92,517.73 676.35,510.19 673.12,519.05 660.08,504.88 653.25,506.9 643.56,533.11 631.92,552.1 625.46,579.88 "/>
 </g>
</svg>
