<?xml version="1.0" encoding="UTF-8"?>
<!DOCTYPE svg PUBLIC "-//W3C//DTD SVG 1.1//EN" "http://www.w3.org/Graphics/SVG/1.1/DTD/svg11.dtd">
<!-- Creator: CorelDRAW 2020 (64-Bit) -->
<svg xmlns="http://www.w3.org/2000/svg" xml:space="preserve" width="750px" height="700px" version="1.1" style="shape-rendering:geometricPrecision; text-rendering:geometricPrecision; image-rendering:optimizeQuality; fill-rule:evenodd; clip-rule:evenodd"
viewBox="0 0 750 700"
 xmlns:xlink="http://www.w3.org/1999/xlink"
 xmlns:xodm="http://www.corel.com/coreldraw/odm/2003">
 <defs>
  <style type="text/css">
   <![CDATA[
    .fil0 {fill:#FF9500;fill-opacity:0.800000}
   ]]>
  </style>
 </defs>
 <g id="Capa_x0020_1">
  <metadata id="CorelCorpID_0Corel-Layer"/>
  <polygon class="fil0" points="722.39,434.85 692.65,482.43 672.59,505.29 648.33,521.16 626.4,522.09 594.68,510.66 578.11,499.93 570.65,489.2 569.71,471.24 576.09,445.38 574.88,437.72 580.07,437.91 578.37,440.57 581.34,442.34 580.14,447.78 581.53,448.61 583.55,444.24 587.48,444.43 585.08,436.45 591.66,441.96 588.56,437.4 594.44,435.75 588.37,433.79 591.21,429.11 577.35,431.7 592.61,425.31 591.28,422.4 587.92,424.36 589.44,415.56 585.45,415.18 582.54,420.88 577.16,421.7 580.45,418.6 576.66,417.9 586.02,413.22 603.05,407.9 609.63,415.18 637.74,423.67 637.23,427.53 646.41,434.43 657.87,451.01 668.94,444.62 668.75,435.88 677.93,423.16 723.51,423.16 "/>
 </g>
</svg>
