<?xml version="1.0" encoding="UTF-8"?>
<!DOCTYPE svg PUBLIC "-//W3C//DTD SVG 1.1//EN" "http://www.w3.org/Graphics/SVG/1.1/DTD/svg11.dtd">
<!-- Creator: CorelDRAW 2020 (64-Bit) -->
<svg xmlns="http://www.w3.org/2000/svg" xml:space="preserve" width="750px" height="700px" version="1.1" style="shape-rendering:geometricPrecision; text-rendering:geometricPrecision; image-rendering:optimizeQuality; fill-rule:evenodd; clip-rule:evenodd"
viewBox="0 0 750 700"
 xmlns:xlink="http://www.w3.org/1999/xlink"
 xmlns:xodm="http://www.corel.com/coreldraw/odm/2003">
 <defs>
  <style type="text/css">
   <![CDATA[
    .fil0 {fill:#FF9500;fill-opacity:0.800000}
   ]]>
  </style>
 </defs>
 <g id="Capa_x0020_1">
  <metadata id="CorelCorpID_0Corel-Layer"/>
  <path class="fil0" d="M603.48 666.6l-9.58 -12.91 -26.25 -14.17 -10.42 11.67 -0.83 13.75 -10 4.16 -34.17 -8.33 -5 -8.33 -20 -15 -7.92 2.5 0 4.16 -22.08 2.09 -4.17 -2.5 2.5 -2.92 5 2.08 1.25 -7.08 -6.66 3.33 -3.34 -2.5 8.33 -2.91 -0.83 -2.92 -5 0.83 2.5 -5.41 -4.17 -4.17 -3.33 3.33 0 -3.75 -4.58 12.5 -2.09 -12.91 3.75 -4.17 -2.08 -7.08 5 0.41 2.09 -7.08 -4.17 -5 0.42 -2.5 -3.34 0.83 2.5 -7.91 -2.91 1.25 -3.75 -5.84 5.41 -5.83 1.25 0 1.25 -1.25 0.83 0.42 0.84 0 0 -0.42 -1.67 -0.42 -2.5 0.84 -0.83 -0.42 -2.09 1.25 2.92 -4.17 -5 4.17 -0.83 -3.75 -7.08 0.42 9.16 -5.42 -3.33 0 0.83 -8.33 -3.75 -0.42 0 -0.83 3.33 -0.42 2.5 -7.5 0.42 7.08 3.75 7.92 16.67 2.5 -3.75 -3.75 2.08 -4.17 2.09 2.09 0.83 -5.84 5 11.67 7.5 0.83 1.67 -7.08 3.75 -1.25 5.41 5.83 0.42 -4.16 -3.34 -2.09 -6.24 -0.41 0.41 -6.25 -5 1.66 2.5 -9.58 -4.58 0.83 0 5.84 -2.09 -3.75 -1.25 4.58 -2.5 0.42 1.67 -4.17 -2.92 1.67 -1.66 -1.67 6.25 -2.08 -3.75 -2.5 5 1.66 2.5 -2.91 -11.25 -0.84 2.91 -2.08 -2.91 0 -0.84 -1.67 5.84 1.25 -1.25 -5 0.83 -0.83 2.08 6.25 0.84 0 0.83 -2.5 0.84 0 1.66 4.58 3.33 -2.08 3.34 2.92 -1.25 -2.09 0 -0.41 4.58 6.66 5.83 -0.41 0.84 1.25 10.83 -3.34 3.33 -3.75 -6.24 -0.41 0.41 -2.5 0.83 1.66 6.67 -2.91 -4.16 -1.25 -2.92 -8.34 -10 1.67 -2.5 5 -9.17 -3.75 -0.42 3.75 -2.5 -3.75 -1.25 0.83 -3.75 -2.08 -4.99 1.25 -2.09 -1.25 12.5 -0.42 0.84 -5 2.49 6.25 7.5 0.42 6.67 -7.92 5.42 1.25 2.91 -3.33 -2.08 -2.5 3.34 -2.08 -5.84 1.25 -4.17 -6.67 -8.33 7.92 -2.92 0 3.34 -3.75 -3.75 1.66 -2.92 -0.83 -1.66 -1.25 9.58 -2.08 0 -0.84 -1.67 -0.83 -0.41 -1.25 -3.34 -1.67 -0.41 -0.83 9.58 2.5 -4.59 -5 2.51 -2.92 3.33 2.5 -0.42 -2.91 -3.75 -2.09 0.42 -1.25 5 -1.25 0.83 2.5 1.25 0.84 -0.83 -4.17 -2.92 -1.67 4.59 0 0.41 -2.91 -9.17 -7.92 7.09 0.41 6.25 5.42 1.66 -5 -4.16 -3.33 4.58 1.25 7.08 -7.08 -8.75 0.83 -1.66 -3.75 3.75 -1.67 -0.42 2.92 1.67 0 4.16 -11.67 5 2.09 -4.16 -4.59 15.41 3.75 -14.16 -4.16 2.08 -3.34 -3.75 -2.91 -0.83 -4.59 7.08 7.92 3.75 -2.5 -0.41 3.33 6.24 1.25 2.92 -0.83 -3.75 -8.33 7.92 2.91 -0.42 7.5 2.92 -1.25 2.92 5 5 -2.08 -3.76 0 -1.24 -5.42 3.75 0 -4.17 -2.08 4.58 -5 -1.67 -8.33 -8.75 2.08 -13.75 -7.92 5.84 -1.25 0.41 4.17 7.09 1.66 0.83 -7.08 5.84 6.25 2.91 -10 -5.42 -1.25 6.67 -2.08 4.59 -11.25 -2.09 6.25 2.5 0.41 -1.66 3.75 0.41 0.42 2.92 -1.25 0.83 0 0.42 0 0.42 0 0.41 -0.41 0.42 0 -7.09 4.16 2.09 5 -2.5 4.17 3.75 3.33 -3.75 -2.5 -1.25 1.67 7.5 12.92 -1.25 7.91 8.75 -0.83 -3.75 6.66 9.58 -4.16 -2.5 -3.75 1.25 -3.34 1.67 3.34 4.17 -0.83 -4.17 -4.59 5 0 -0.83 -5 3.75 1.67 0.41 7.08 8.75 -3.33 -4.58 -2.5 0 -4.58 5.41 -0.84 -2.08 -5.83 4.59 3.33 -0.84 6.25 3.34 2.5 1.25 -6.66 5.41 1.25 -2.5 -6.67 5.42 4.16 -0.83 -5.41 3.75 0.42 1.24 -5.42 -4.99 0 0.41 -5 -2.5 1.25 -5.41 -0.42 10.41 -1.66 -0.83 -6.26 -1.25 0.84 -1.67 -0.84 2.5 -7.5 -2.08 3.75 -4.17 -3.75 -1.25 0 -1.25 2.09 -0.41 -0.42 -0.84 0.84 -0.41 0 3.33 -2.92 14.16 -3.34 0.84 -2.08 8.75 7.5 27.91 8.34 -0.41 3.75 9.17 7.08 11.66 16.66 10.84 -6.66 0 -8.75 9.16 -12.5 45.42 0 1.25 140.83 -6.67 29.17 -24.58 32.5 -7.08 4.58 -10.42 -1.66 -4.17 -2.5 4.17 -4.17 0.83 5.83 2.92 -6.66 -0.42 -3.34 -1.25 1.67 -1.25 0 1.67 -4.17 -3.75 -12.5 5.83 -3.75 -2.08 -7.91 9.17 -27.92 -2.5 -2.5 3.33 -1.25 -2.92 -2.5 1.25 -2.5 -0.41 -4.17 -2.92 11.25 -3.33 0 3.75 2.5 -8.34 12.09 -1.66 0 -0.84 11.66 -5.83 2.5 2.92 0 0.41 3.34 -3.33 -0.84 -2.92 4.17 -4.58 -2.5 -2.92 5 2.09 4.17 2.91 -3.34 1.25 2.5 -2.08 6.67 -2.92 0.83 0 -6.25 -3.33 -1.25 -1.25 4.59 -7.08 3.33 -0.42 6.25 2.5 0 -2.08 5.42 5.41 0 4.17 -6.25 0.83 2.08 -9.58 16.67 3.33 -11.25 -6.66 1.25 -0.84 -2.5 -3.75 3.75 0 -13.34 -2.08 2.5 -1.67 -0.83 0.84 5.42 -6.26 9.16 5.84 8.75 -2.92 -0.41 0.83 6.25 -2.91 -4.17 -4.59 1.25 2.09 5.42 -3.33 2.5 2.91 3.33 -3.75 -1.25 -0.41 4.17 8.75 2.91 -0.84 3.34 -8.75 -0.84 -0.42 3.75 5.01 1.67 -9.59 3.75 2.09 -4.17 -3.34 0.42 0.84 -2.5 -4.59 2.08 4.59 0.84 -0.84 1.66 -10 0.84 5.42 4.16 -8.75 -6.25 0 0zm-99.17 -101.66l1.25 -2.92 -4.17 -1.25 2.09 3.33 0.83 0.84 0 0zm2.92 -1.25l0 0.41 0.42 0 -0.42 -0.41 0 0z"/>
 </g>
</svg>
