<?xml version="1.0" encoding="UTF-8"?>
<!DOCTYPE svg PUBLIC "-//W3C//DTD SVG 1.1//EN" "http://www.w3.org/Graphics/SVG/1.1/DTD/svg11.dtd">
<!-- Creator: CorelDRAW 2020 (64-Bit) -->
<svg xmlns="http://www.w3.org/2000/svg" xml:space="preserve" width="750px" height="700px" version="1.1" style="shape-rendering:geometricPrecision; text-rendering:geometricPrecision; image-rendering:optimizeQuality; fill-rule:evenodd; clip-rule:evenodd"
viewBox="0 0 750 700"
 xmlns:xlink="http://www.w3.org/1999/xlink"
 xmlns:xodm="http://www.corel.com/coreldraw/odm/2003">
 <defs>
  <style type="text/css">
   <![CDATA[
    .fil0 {fill:#FF9500;fill-opacity:0.800000}
   ]]>
  </style>
 </defs>
 <g id="Capa_x0020_1">
  <metadata id="CorelCorpID_0Corel-Layer"/>
  <polygon class="fil0" points="486.81,545.77 488.48,548.27 477.23,552.85 465.56,556.19 458.48,557.02 456.39,556.6 460.98,555.77 455.56,555.77 458.48,553.69 454.73,554.1 458.06,551.19 454.73,552.85 455.15,551.19 455.98,550.35 454.73,546.6 457.64,547.85 458.9,546.19 453.06,544.52 460.14,542.02 456.39,539.94 455.15,542.02 452.23,542.44 455.15,540.35 450.14,541.19 451.4,539.52 457.64,536.6 461.81,540.77 465.56,534.1 466.81,537.02 471.39,536.6 469.31,532.44 460.56,532.02 460.14,534.94 454.73,534.1 450.98,538.69 452.64,534.1 448.89,537.85 450.56,534.52 449.31,535.35 445.56,534.94 446.81,531.6 450.14,533.69 448.48,528.27 450.98,533.27 454.31,532.44 450.14,525.35 460.56,529.52 455.98,519.52 457.64,515.77 463.48,529.94 469.73,528.27 476.39,534.1 477.23,538.27 474.31,535.77 473.48,541.6 476.81,539.52 "/>
 </g>
</svg>
