<?xml version="1.0" encoding="UTF-8"?>
<!DOCTYPE svg PUBLIC "-//W3C//DTD SVG 1.1//EN" "http://www.w3.org/Graphics/SVG/1.1/DTD/svg11.dtd">
<!-- Creator: CorelDRAW 2020 (64-Bit) -->
<svg xmlns="http://www.w3.org/2000/svg" xml:space="preserve" width="750px" height="700px" version="1.1" style="shape-rendering:geometricPrecision; text-rendering:geometricPrecision; image-rendering:optimizeQuality; fill-rule:evenodd; clip-rule:evenodd"
viewBox="0 0 750 700"
 xmlns:xlink="http://www.w3.org/1999/xlink"
 xmlns:xodm="http://www.corel.com/coreldraw/odm/2003">
 <defs>
  <style type="text/css">
   <![CDATA[
    .fil0 {fill:#FF9500;fill-opacity:0.800000}
   ]]>
  </style>
 </defs>
 <g id="Capa_x0020_1">
  <metadata id="CorelCorpID_0Corel-Layer"/>
  <polygon class="fil0" points="532.73,412.91 527.73,406.35 531.72,403.03 526.02,403.16 528.8,400.69 526.14,397.27 530.89,398.85 536.4,395.06 535.89,399.42 538.42,398.79 539.56,403.92 541.46,401 556.53,428.1 556.53,436.45 550.2,446.9 552.98,445.63 555.32,451.71 557.22,442.65 565.32,444.59 564.76,452.59 559.19,452.53 563.36,457.4 558.05,454.87 555.89,458.29 558.68,461.26 549.94,465.57 553.81,459.37 545.96,461.58 546.59,452.53 538.96,439.36 539.63,437.97 542.86,440.57 544.75,440 539.88,436.83 542.67,432.4 539.75,431.96 540.58,428.35 548.87,423.48 541.84,424.87 544.37,421.32 541.34,420.06 543.36,415.56 542.79,412.27 540.07,420.44 537.03,418.67 539.31,422.27 536.97,425.75 "/>
 </g>
</svg>
