<?xml version="1.0" encoding="UTF-8"?>
<!DOCTYPE svg PUBLIC "-//W3C//DTD SVG 1.1//EN" "http://www.w3.org/Graphics/SVG/1.1/DTD/svg11.dtd">
<!-- Creator: CorelDRAW 2020 (64-Bit) -->
<svg xmlns="http://www.w3.org/2000/svg" xml:space="preserve" width="750px" height="700px" version="1.1" style="shape-rendering:geometricPrecision; text-rendering:geometricPrecision; image-rendering:optimizeQuality; fill-rule:evenodd; clip-rule:evenodd"
viewBox="0 0 750 700"
 xmlns:xlink="http://www.w3.org/1999/xlink"
 xmlns:xodm="http://www.corel.com/coreldraw/odm/2003">
 <defs>
  <style type="text/css">
   <![CDATA[
    .fil0 {fill:#FF9500;fill-opacity:0.800000}
   ]]>
  </style>
 </defs>
 <g id="Capa_x0020_1">
  <metadata id="CorelCorpID_0Corel-Layer"/>
  <polygon class="fil0" points="615.14,437.4 623.56,430 618.18,429.87 621.28,427.02 616.85,426.7 616.22,423.79 606.53,425.69 607.1,424.61 608.43,423.92 608.81,423.98 609.7,423.79 609.7,423.67 605.27,423.73 606.28,419.99 610.52,421.58 616.85,418.1 607.8,414.93 607.74,412.33 625.84,421.7 637.74,423.67 637.23,427.53 646.41,434.43 657.87,451.01 668.94,444.62 668.75,435.88 677.93,423.16 723.51,423.16 722.62,544.44 720.79,545.64 717.81,545.45 720.47,544.94 721.42,543.49 715.47,538.42 712.56,549.44 707.3,557.35 701.99,561.08 700.66,549.06 696.67,545.83 699.9,547.22 701.1,542.92 699.01,533.17 695.21,533.23 696.92,528.04 692.55,534.69 680.97,539.06 680.59,530.26 669.7,526.4 663.44,511.46 658.75,506.78 653.44,507.47 652.55,517.03 646.6,523.68 649.01,525.51 645.9,525.13 645.21,533.68 632.04,557.98 626.66,584.82 621.79,589.57 624.32,592.86 621.47,595.08 626.03,596.03 623.94,603.37 632.29,606.72 627.74,607.1 622.67,613.88 625.71,620.02 621.34,621.6 623.94,624.51 617.74,625.08 619.83,626.28 619.13,628.56 615.33,624.19 616.91,628.24 611.15,627.61 614.63,631.54 610.9,630.84 614,634.13 610.01,636.28 613.37,639.07 607.74,644.76 611.03,647.99 607.04,653.69 612.74,660.34 606.6,656.41 607.61,660.08 603.81,662.05 601.6,658.18 601.15,662.87 593.81,653.69 567.23,639.51 557.41,651.22 557.73,663.12 553.05,668.31 540.39,668.57 512.16,660.72 508.99,652.3 525.64,627.23 529.25,630.71 527.35,624.51 530.83,628.31 533.04,626.41 531.02,630.71 533.36,629.95 531.72,632.93 537.03,639.45 537.41,634.76 542.29,637.93 543.55,651.73 549.63,650.46 554.06,642.23 550.58,637.99 553.43,633.05 550.07,633.56 546.59,625.77 552.48,626.09 552.67,624.64 543.68,624.45 538.87,621.34 548.55,613.81 535.26,612.67 530.64,615.58 537.03,605.46 531.9,602.54 538.42,599.76 536.27,597.04 540.45,597.29 536.71,592.23 542.86,593.05 538.99,591.34 540.01,586.47 546.27,578.62 539.5,579.12 542.29,574.88 539.88,575.83 538.99,574.88 543.36,572.86 539.37,569.76 548.05,568.87 541.21,565.58 544.82,562.41 540.51,562.73 542.73,561.59 539.88,554.82 545.26,551.91 540.77,551.97 540.89,550.01 543.05,548.43 544.94,549.94 544.25,547.92 547.03,544.82 546.02,542.73 551.65,539.31 544.25,539.06 544,541.72 543.11,541.84 543.3,539.18 537.54,538.17 532.79,543.61 533.68,539.44 527.6,541.02 522.35,537.92 536.34,535.07 530.64,534.31 533.17,531.52 538.42,533.68 536.27,529.25 540.13,533.99 540.83,531.02 545.07,533.61 541.65,530.45 546.34,531.97 543.61,529.12 547.41,530.26 549.31,526.02 537.85,524.37 525.7,520.51 524.5,518.74 544.88,519.5 545.13,510.19 548.62,517.66 559.76,513.42 564.5,503.36 562.67,498.04 570.01,486.39 563.43,483.42 555.89,485.76 560.2,481.96 550.64,477.03 550.89,474.18 546.21,475.63 549.94,473.73 546.78,470.82 540.89,472.4 535.2,466.64 544.18,469.75 541.65,467.4 542.22,463.1 545.13,469.43 558.05,470.76 554.19,473.35 558.74,473.73 563.17,466.96 564.95,473.42 565.26,468.8 568.24,468.29 567.03,476.01 572.8,476.01 578.87,466.14 574.44,460.5 579.63,462.4 584.57,458.1 583.49,455 586.02,456.96 596.09,452.85 602.35,444.17 607.86,464.24 607.61,458.04 612.42,455.76 610.33,453.29 614.57,453.16 610.84,447.84 615.52,444.93 610.01,438.73 613.43,438.86 612.8,438.22 614.26,438.16 614.76,437.27 "/>
 </g>
</svg>
