<?xml version="1.0" encoding="UTF-8"?>
<!DOCTYPE svg PUBLIC "-//W3C//DTD SVG 1.1//EN" "http://www.w3.org/Graphics/SVG/1.1/DTD/svg11.dtd">
<!-- Creator: CorelDRAW 2020 (64-Bit) -->
<svg xmlns="http://www.w3.org/2000/svg" xml:space="preserve" width="750px" height="700px" version="1.1" style="shape-rendering:geometricPrecision; text-rendering:geometricPrecision; image-rendering:optimizeQuality; fill-rule:evenodd; clip-rule:evenodd"
viewBox="0 0 750 700"
 xmlns:xlink="http://www.w3.org/1999/xlink"
 xmlns:xodm="http://www.corel.com/coreldraw/odm/2003">
 <defs>
  <style type="text/css">
   <![CDATA[
    .fil0 {fill:#FF9500;fill-opacity:0.800000}
   ]]>
  </style>
 </defs>
 <g id="Capa_x0020_1">
  <metadata id="CorelCorpID_0Corel-Layer"/>
  <polygon class="fil0" points="602.86,407.9 609.63,415.18 637.74,423.67 637.23,427.53 646.41,434.43 657.87,451.01 668.94,444.62 668.75,435.88 677.93,423.16 723.51,423.16 724.9,564.19 719.33,581.4 722.18,583.62 715.59,597.92 703.25,609.82 696.98,622.61 687.24,630.08 670.46,625.4 676.03,620.52 677.11,626.16 679.45,620.84 675.78,620.02 677.24,614.76 672.55,607.55 676.03,604.7 673.25,602.93 679.64,598.81 677.49,591.21 686.73,562.79 684.7,560.9 687.11,558.3 685.15,554.06 683.19,562.73 684.58,563.62 675.34,577.23 671.79,595.14 665.34,596.97 663.75,610.2 657.36,614.63 657.61,604.38 654.89,604.06 654.58,608.11 647.23,611.85 646.66,622.29 651.98,621.41 656.09,613.75 659.45,616.6 656.73,624.89 654.64,624.32 653.82,624.45 656.41,626.03 654.58,630.21 650.84,630.08 650.02,635.9 647.93,635.27 647.87,637.68 646.66,637.36 645.33,640.33 644.57,640.4 649.83,624.32 643.88,626.6 642.04,624.07 638.5,628.5 640.08,618.18 636.98,615.65 632.04,633.43 636.73,633.75 637.11,637.99 633.62,638.05 634.76,644.57 628.5,639.7 629.64,646.16 625.52,648.25 629.64,651.16 624.38,652.74 629.83,658.56 633.18,656.73 632.67,660.08 623.37,661.28 628.05,665.59 617.1,670.21 619.57,665.97 608.05,668.12 614.44,671.79 612.23,672.74 605.39,670.08 593.81,653.69 567.54,639.51 557.41,651.22 556.59,665.15 546.46,668.94 512.16,660.72 507.28,652.23 487.41,637.55 479.3,639.76 479.43,643.94 459.68,647.17 452.09,644.2 461.52,638.37 450.25,636.98 458.04,632.86 452.85,632.29 456.39,629.32 452.15,629.83 455.88,626.79 452.53,626.85 453.92,624.51 453.1,623.5 446.45,628.31 449.49,630.9 445.5,634.13 448.03,638.12 442.4,635.65 442.34,624.38 438.79,621.15 445.19,615.96 441.9,611.91 443.98,610.39 437.34,607.99 444.49,606.53 444.17,604.44 444.68,603.68 441.2,598.37 439.36,600.14 437.91,581.78 433.54,578.37 430.37,580.58 430.06,575.45 426.7,574.25 436.83,568.62 434.49,566.66 437.27,565.39 434.36,565.14 434.05,564.95 438.22,561.21 429.81,560.83 435.88,557.22 438.35,559.25 434.81,543.55 439.93,542.79 445.82,565.96 455.76,567.79 456.96,562.98 459.18,563.36 456.96,560.14 461.71,560.9 457.47,559.19 463.67,557.16 468.8,560.07 469.49,566.91 474.87,568.3 472.91,566.66 475.82,567.35 477.72,557.54 473.35,558.17 471.77,554.95 470.25,557.29 469.18,550.39 468.73,558.87 463.48,556.08 466.64,551.08 461.58,557.03 460.31,557.54 458.61,556.97 463.04,551.65 456.96,550.45 467.66,548.36 458.35,547.54 457.15,544.75 465.13,545.51 466.33,543.74 459.75,544.63 460.25,541.27 454.43,539.31 462.02,540.96 465.88,534.82 471.26,538.23 470.95,542.92 471.71,542.98 471.52,540.64 472.47,540.2 476.39,543.55 479.05,541.84 488.67,549.44 491.27,545.45 501.96,543.11 495.44,542.67 501.9,539.56 497.28,530.01 487.91,531.27 484.87,536.78 475.7,532.73 476.14,538.17 468.73,531.52 460.31,531.27 457.72,534.5 450.88,534.31 455.76,532.47 454.81,528.93 460.95,530.39 459.18,522.09 463.35,531.14 472.91,530.07 471.14,525.51 475.19,523.36 473.92,528.61 476.27,524.5 478.04,532.28 483.35,531.91 492.03,522.35 496.08,524.62 489.94,512.6 485.63,519.05 477.72,522.41 472.47,519.31 478.61,519.24 480.82,518.42 481.39,516.65 478.42,518.17 467.28,515.89 469.56,511.33 476.9,516.52 482.98,513.67 471.77,504.94 486.58,510.13 481.52,505.83 485,504.88 483.73,502.34 487.72,503.42 483.48,497.47 486.84,499.5 490.06,497.47 487.03,494.81 492.09,492.98 490.25,488.67 486.84,490.25 487.22,486.9 481.2,484.81 485.32,482.09 488.86,485.82 493.8,485.13 493.23,488.36 496.77,488.8 498.42,485.32 493.42,481.52 503.36,477.97 496.96,477.6 493.1,471.9 498.29,473.29 499.12,470 499.94,474.24 503.67,467.97 501.78,465.51 506.77,461.9 503.36,461.07 508.17,456.58 502.85,446.64 507.41,452.85 511.14,450.12 511.9,456.58 515.32,453.92 516.21,457.34 523.55,458.86 519.37,449.11 526.52,445.95 523.42,450.63 526.14,449.36 530.58,456.01 527.28,458.54 531.4,457.97 533.87,463.67 533.3,456.2 537.41,456.9 532.79,453.23 536.78,452.4 536.21,441.58 526.65,444.05 515.95,439.3 517.41,436.58 512.54,435.57 509.94,432.72 517.92,435.88 519.94,433.6 520.19,438.03 527.22,439.36 526.71,432.84 528.23,430.76 533.61,438.54 536.27,432.91 530.58,430.12 529.5,426.39 535.01,422.78 537.79,425.5 536.27,417.97 540.13,419.87 540.89,410.82 543.49,410.94 541.72,419.11 547.73,420.63 541.78,421.83 542.6,424.55 549.06,423.35 549.63,422.59 550.2,422.21 550.32,422.34 540.26,431.89 542.92,432.34 540.13,436.89 546.08,439.87 543.61,441.26 540.26,438.22 539.18,439.36 547.03,452.53 547.03,459.87 554.25,459.37 550.64,462.47 550.01,463.54 550.32,464.81 557.73,460.95 555.45,458.23 557.98,454.3 561.21,457.28 558.93,452.21 564.38,452.53 562.48,446.71 568.93,449.17 566.65,453.35 569.19,455.06 576.66,452.09 571.78,450.69 574.06,448.35 570.83,445.76 576.85,445.38 573.81,438.54 580.71,442.46 579.5,448.54 582.92,450.88 584.13,444.49 588.87,446.33 586.21,438.16 592.86,442.59 590.77,437.97 595.9,437.27 595.71,433.6 590.39,433.48 593.18,429.87 581.59,430.44 593.87,427.34 593.37,422.4 589.13,421.07 592.16,420.88 591.97,416.77 585.71,414.23 581.47,418.92 580.39,417.59 586.02,413.22 "/>
 </g>
</svg>
