<?xml version="1.0" encoding="UTF-8"?>
<!DOCTYPE svg PUBLIC "-//W3C//DTD SVG 1.1//EN" "http://www.w3.org/Graphics/SVG/1.1/DTD/svg11.dtd">
<!-- Creator: CorelDRAW 2020 (64-Bit) -->
<svg xmlns="http://www.w3.org/2000/svg" xml:space="preserve" width="750px" height="700px" version="1.1" style="shape-rendering:geometricPrecision; text-rendering:geometricPrecision; image-rendering:optimizeQuality; fill-rule:evenodd; clip-rule:evenodd"
viewBox="0 0 750 700"
 xmlns:xlink="http://www.w3.org/1999/xlink"
 xmlns:xodm="http://www.corel.com/coreldraw/odm/2003">
 <defs>
  <style type="text/css">
   <![CDATA[
    .fil0 {fill:#FF9500;fill-opacity:0.800000}
   ]]>
  </style>
 </defs>
 <g id="Capa_x0020_1">
  <metadata id="CorelCorpID_0Corel-Layer"/>
  <polygon class="fil0" points="539.63,407.27 542.35,411.58 544.25,408.28 542.6,418.54 551.84,418.79 543.87,423.79 549.06,423.1 551.46,421.13 552.6,420.94 553.17,421.26 545.45,426.07 547.29,428.73 542.54,428.29 540.96,432.08 541.53,431.83 543.68,432.02 540.64,433.79 542.54,439.05 547.03,439.11 540.83,440.5 548.11,452.47 547.35,459.49 554.69,459.18 559.63,451.39 562.54,453.1 561.46,445.38 569.31,448.67 568.43,452.72 572.67,454.49 573.24,447.78 570.2,445.57 575.71,446.96 574.44,438.1 579.12,438.35 581.4,448.98 584,444.24 587.73,444.68 585.52,437.08 592.04,442.34 589.38,438.16 595.27,435.82 589.32,433.86 591.47,428.73 579.38,431.2 592.73,425.82 588.18,421.01 591.97,420.56 591.4,417.65 585.96,414.55 580.14,420.63 577.67,417.65 601.28,407.97 609.63,415.18 637.74,423.67 637.23,427.53 646.41,434.43 657.87,451.01 668.94,444.62 668.75,435.88 677.93,423.16 723.51,423.16 724.9,564.19 718.25,593.18 708.44,607.74 703.25,609.82 696.98,622.61 687.24,630.08 669.13,625.21 668.37,622.23 672.43,623.24 675.46,619.38 673.06,617.48 675.84,616.79 672.81,612.17 675.02,610.96 671.1,607.17 675.08,604.95 673.06,602.42 677.81,601.41 676.86,591.02 679.96,588.24 677.49,584.06 681.35,581.59 679.45,579.82 681.79,578.93 681.35,576.28 684.9,566.47 684.39,564.31 675.72,577.1 672.87,596.03 666.54,600.2 665.53,610.65 659.32,615.27 660.84,620.27 655.46,630.97 651.16,630.84 652.11,636.41 645.9,638.75 645.78,644.64 644.57,640.97 642.11,643.37 645.52,635.71 642.74,634.45 646.22,634.38 644.57,631.03 647.8,631.22 649.39,626.47 642.04,625.14 637.86,629.38 639.38,618.37 637.93,616.53 632.99,631.73 637.8,633.5 637.68,638.5 633.18,641.47 635.78,645.21 628.5,640.46 627.61,644.89 630.52,646.09 625.96,648.44 630.97,650.65 625.08,652.68 629.83,654.58 629.64,657.87 633.88,655.46 633.05,660.08 623.94,662.05 629,664.89 616.72,670.4 609.44,667.99 615.2,671.54 612.23,672.74 605.39,670.08 593.81,653.69 567.54,639.51 557.41,651.22 554.69,667.55 540.39,668.57 512.16,660.72 507.28,652.23 487.41,637.55 479.3,639.76 479.43,643.94 456.64,646.98 451.07,644.32 454.62,640.21 449.55,637.11 454.55,633.12 451.64,626.6 447.66,638.69 442.34,637.93 441.58,630.14 436.89,629.32 441.83,626.09 435.69,620.52 442.21,618.31 443.6,613.56 440.12,613.12 440.25,609.32 432.02,607.74 439.36,604.89 435.19,603.05 437.34,596.6 432.72,594.76 439.36,594.89 437.53,583.68 431.51,581.09 429.17,584.95 427.72,574.69 421.77,572.54 434.74,570.07 431.45,565.26 434.17,564.57 433.6,563.11 426.01,560.71 437.4,556.08 437.65,551.46 433.98,552.29 430.57,550.51 435.38,546.4 429.81,540.7 430.18,536.46 436.58,543.49 442.4,538.93 440.19,546.15 445.12,548.36 443.6,554.82 448.03,555.2 443.73,560.45 449.05,560.45 448.16,566.02 454.87,566.02 454.49,558.87 457.97,557.03 455.69,556.65 460.82,555.89 455.25,556.08 457.97,551.02 454.74,552.73 454.3,552.1 466.39,546.78 455.82,550.26 454.87,546.59 457.78,547.67 458.73,546.21 453.23,544.63 460.12,542.16 450.12,541.21 457.4,536.65 461.77,540.64 465.63,534.18 466.64,537.16 471.65,536.84 469.18,532.28 460.25,531.91 460.19,534.94 454.81,533.99 451.07,538.61 452.78,534.06 448.92,537.79 450.63,534.56 445.63,535.2 446.9,531.52 450.31,533.68 448.48,528.17 451.07,533.23 454.49,532.54 450.31,525.51 460.7,529.37 460.57,524.12 452.91,516.52 456.96,518.74 456.33,516.4 457.91,515.89 463.61,530.13 472.34,529.88 469.56,524.75 474.68,522.73 476.77,531.08 482.72,531.91 489.81,523.55 495.82,523.87 489.87,513.42 486.2,520.64 478.99,523.42 477.03,520.13 470.06,520.13 474.68,517.6 470.76,515.45 465,517.22 469.56,514.18 467.59,510 476.33,515.95 482.72,512.92 469.3,505.13 468.99,503.29 475.19,503.1 476.33,506.78 485.95,509.75 480.76,505.19 484.56,504.37 482.91,502.03 487.22,503.1 481.96,496.58 486.46,498.99 490.64,490.38 480,484.62 485.51,480.32 488.93,485.44 493.86,484.43 493.36,487.91 496.39,485.95 492.79,480.38 496.58,478.16 496.84,482.09 500.19,477.47 496.58,477.97 495.32,473.29 493.67,473.92 493.29,472.21 490.25,471.71 489.24,471.26 489.24,471.08 496.84,472.78 496.08,468.42 500.32,470.7 501.02,464.62 506.08,461.71 501.59,460.57 506.33,459.68 504.37,456.71 507.41,455.88 503.04,453.16 505.32,452.53 502.15,444.11 507.6,452.47 511.71,448.92 511.71,455.76 515.32,453.35 523.49,458.48 517.66,448.92 526.52,445.95 524.75,449.24 530.77,455.38 527.66,458.1 535.01,462.72 532.92,455.82 536.4,456.9 537.03,456.77 531.9,453.04 536.46,452.47 535.83,443.67 515.51,440.25 517.22,436.77 512.03,436.77 509.43,432.72 509.56,433.54 508.36,434.87 508.23,430.31 517.73,435.63 520.45,431.2 519.56,436.77 526.84,438.03 527.16,429.49 533.3,438.16 535.64,433.35 529.37,430.94 528.42,425.31 530.77,426.83 532.6,422.08 538.42,422.08 533.87,416.77 540.45,418.85 "/>
 </g>
</svg>
