<?xml version="1.0" encoding="UTF-8"?>
<!DOCTYPE svg PUBLIC "-//W3C//DTD SVG 1.1//EN" "http://www.w3.org/Graphics/SVG/1.1/DTD/svg11.dtd">
<!-- Creator: CorelDRAW 2020 (64-Bit) -->
<svg xmlns="http://www.w3.org/2000/svg" xml:space="preserve" width="750px" height="700px" version="1.1" style="shape-rendering:geometricPrecision; text-rendering:geometricPrecision; image-rendering:optimizeQuality; fill-rule:evenodd; clip-rule:evenodd"
viewBox="0 0 750 700"
 xmlns:xlink="http://www.w3.org/1999/xlink"
 xmlns:xodm="http://www.corel.com/coreldraw/odm/2003">
 <defs>
  <style type="text/css">
   <![CDATA[
    .fil0 {fill:#FF9500;fill-opacity:0.800000}
   ]]>
  </style>
 </defs>
 <g id="Capa_x0020_1">
  <metadata id="CorelCorpID_0Corel-Layer"/>
  <polygon class="fil0" points="602.86,407.9 609.63,415.18 637.74,423.67 637.23,427.53 646.41,434.43 657.87,451.01 668.94,444.62 668.75,435.88 677.93,423.16 723.51,423.16 724.9,564.19 719.33,581.4 722.18,583.62 696.92,622.67 687.24,630.08 685.47,630.08 685.09,629.32 683.88,629.64 682.74,628.24 683.63,626.66 683.69,628.75 686.86,629.19 691.04,616.03 688.38,615.65 691.86,612.61 688.31,612.8 690.91,607.55 687.62,605.58 689.77,602.29 686.16,603.18 685.59,599.95 691.48,601.66 693.63,597.04 688.88,599.51 688.5,598.18 689.33,595.2 689.14,594.63 686.35,598.18 685.97,590.58 690.21,582.61 690.28,591.4 693.38,581.66 698,576.28 695.21,577.67 695.78,572.86 691.98,576.09 692.3,569.63 696.1,571.78 698.5,557.73 694.01,567.79 693.82,537.98 692.11,543.17 688.57,540.2 688.82,545.13 681.1,547.03 671.73,557.03 671.6,551.27 669.51,554.95 669.07,554.12 671.73,545.77 673,545.77 673.12,539.06 669.32,538.74 671.67,534.18 667.99,534.69 664.77,527.85 661.86,512.66 653.94,508.42 655.65,510.38 652.11,512.35 655.71,515.89 647.61,523.8 651.09,527.47 647.61,526.78 644.83,532.66 646.22,533.17 647.68,534.31 641.79,538.42 644.89,542.6 640.65,540.51 638.31,545.26 636.03,553.3 640.4,553.74 633.69,558.11 635.71,561.72 632.42,563.11 628.69,582.99 631.6,588.37 626.35,592.16 632.29,594.38 629.38,599 635.27,598.37 635.02,602.73 638.62,603.11 644.64,608.24 641.6,609.13 642.8,612.29 636.98,607.86 628.18,612.86 631.16,617.67 628.31,617.8 626.98,631.66 618.18,637.3 621.66,637.55 618.24,643.5 620.14,646.35 614.38,651.6 622.48,657.74 618.31,660.46 620.01,663.18 617.61,661.41 604.57,668.75 593.81,653.69 567.54,639.51 557.41,651.22 557.73,663.12 553.05,668.31 540.39,668.57 512.16,660.72 507.28,652.23 486.33,636.85 495.13,623.81 496.08,614.07 499.31,609.57 498.1,607.99 501.14,607.23 497.91,603.75 502.34,604.25 499.69,600.33 503.55,601.28 502.6,593.49 524.82,612.48 527.54,609.13 520.13,602.86 524.06,596.53 528.55,598.18 528.93,593.49 526.14,593.24 528.8,590.01 532.85,589.95 528.04,584.38 538.23,586.91 538.74,582.99 531.59,582.04 529.94,579.06 537.6,579.25 533.93,577.67 536.97,573.49 534.56,573.68 532.28,572.6 537.16,572.54 537.16,567.42 535.51,567.98 532.54,566.84 539.37,565.26 536.02,560.64 533.68,561.85 532.92,561.65 536.71,558.87 535.58,547.98 540.58,545.45 528.68,551.46 530.07,546.34 526.84,542.86 522.79,544.12 521.46,550.51 520.38,545.83 512.92,547.35 514.94,538.68 505.07,541.59 509.56,536.72 513.29,537.98 515.07,531.14 519.5,533.42 528.17,523.23 515.32,518.36 512.54,522.73 507.22,526.14 503.42,526.33 511.97,517.03 508.74,510.76 507.09,511.71 507.47,510.51 503.93,510.13 503.86,509.5 503.04,509.43 502.34,509.05 502.15,508.67 508.93,508.93 510.38,501.97 509.75,506.52 515.64,514.24 521.14,515.64 520.64,512.92 523.99,510.95 523.3,516.27 533.99,517.92 539.88,508.61 531.78,505.26 534.88,503.42 528.8,497.6 537.54,503.04 538.61,500.83 540.13,505.57 541.84,501.2 542.41,502.41 541.4,503.29 541.84,503.93 541.59,505.38 541.91,505.95 545.96,502.85 542.54,502.22 542.92,498.17 549.44,494.56 551.15,505 547.86,511.84 558.3,510.07 553.62,506.21 559.25,505.51 558.49,497.09 565.71,487.28 559.82,485.89 550.39,492.72 554.12,482.28 545.58,479.05 547.73,475.76 541.84,477.6 547.98,473.04 541.78,472.72 537.6,478.8 540.26,470.89 537.03,471.33 534.31,479.43 532.73,479.94 529.82,476.52 537.09,468.8 528.49,464.87 521.71,466.27 526.71,464.68 522.73,462.47 541.08,467.15 541.59,461.2 538.17,459.62 541.91,458.92 537.35,445.31 537.92,444.36 542.98,455.95 542.29,462.02 546.72,463.54 543.61,466.2 545.64,468.48 550.26,471.14 552.67,467.85 555.14,470.76 561.53,469.43 557.41,466.2 562.79,464.18 564,466.77 564.5,466.9 566.28,461.77 567.73,466.45 571.28,466.58 568.17,473.67 570.96,474.37 576.4,465.88 570.96,466.14 568.68,464.62 567.16,460.44 573.81,462.47 570.39,459.43 581.4,455.25 578.37,450.5 584.82,453.35 585.96,450.06 588.05,451.26 592.48,449.3 600.9,440.12 599.63,437.72 603.11,442.53 602.29,434.62 606.09,437.46 607.74,447.02 606.03,448.98 606.85,453.86 605.33,455.44 605.84,458.61 610.96,443.41 607.55,437.59 615.52,434.87 616.03,428.29 609.25,426.64 604.13,432.91 604.44,430.12 601.22,430.31 605.27,429.05 599.13,425.94 602.48,422.27 600.27,418.6 605.9,416.64 600.08,412.27 603.75,409.87 598.94,410.12 "/>
 </g>
</svg>
