<?xml version="1.0" encoding="UTF-8"?>
<!DOCTYPE svg PUBLIC "-//W3C//DTD SVG 1.1//EN" "http://www.w3.org/Graphics/SVG/1.1/DTD/svg11.dtd">
<!-- Creator: CorelDRAW 2020 (64-Bit) -->
<svg xmlns="http://www.w3.org/2000/svg" xml:space="preserve" width="750px" height="700px" version="1.1" style="shape-rendering:geometricPrecision; text-rendering:geometricPrecision; image-rendering:optimizeQuality; fill-rule:evenodd; clip-rule:evenodd"
viewBox="0 0 750 700"
 xmlns:xlink="http://www.w3.org/1999/xlink"
 xmlns:xodm="http://www.corel.com/coreldraw/odm/2003">
 <defs>
  <style type="text/css">
   <![CDATA[
    .fil0 {fill:#FF9500;fill-opacity:0.800000}
   ]]>
  </style>
 </defs>
 <g id="Capa_x0020_1">
  <metadata id="CorelCorpID_0Corel-Layer"/>
  <path class="fil0" d="M544.06 404.11l2.09 8.67 -2.98 5.12 11.02 -0.63 -9.69 4.69 1.58 1.26 6.08 -2.53 2.34 0.82 -8.23 4.94 1.9 1.01 0 2.16 -3.35 -2.03 -3.1 3.99 2.4 0.12 -1.39 7.09 5.63 -1.2 -5 5.51 6.52 16.14 4.75 -0.7 3.86 -7.21 3.73 0.69 -1.83 -7.34 9.05 3.55 -0.76 4.3 1.84 -0.32 -0.32 2.03 1.65 -0.06 0.95 -6.71 -3.3 -1.9 6.59 -0.19 -4.12 -6.9 8.1 -0.57 1.27 10.7 2.21 -4.37 3.93 0.19 -2.4 -7.98 6.58 5.51 -3.23 -4.12 6.01 -2.09 -6.07 -1.96 2.84 -4.68 -13.86 2.59 15.13 -6.2 -1.2 -3.1 -3.36 1.96 1.97 -8.48 -4.44 -0.7 -6.71 6.65 1.65 -3.35 -3.67 0 -1.08 -0.58 25.64 -9.93 8.35 7.21 28.11 8.49 -0.51 3.86 9.18 6.9 11.46 16.58 11.07 -6.39 -0.19 -8.74 9.18 -12.72 45.58 0 1.39 141.03 -6.65 28.99 -9.81 14.56 -5.19 2.08 -6.27 12.79 -9.74 7.47 -18.93 -4.87 -0.69 -3.93 4.36 1.71 2.85 -4.18 -3.61 -1.58 3.93 -0.57 -4.69 -9.81 6.46 -5.19 -0.13 -17.47 4.43 -5.89 -0.95 -2.09 1.71 -0.95 -0.57 -3.03 2.85 -5.7 -0.76 -1.01 -6.9 11.9 -2.15 17.21 -6.83 7.03 -0.57 9.24 -4.5 2.98 -6.08 17.78 -10.5 14.75 -5.38 -0.32 1.14 -8.92 3.03 -1.08 -2.21 -2.34 3.67 -0.44 -2.6 -2.28 4.94 -5.32 -6.64 0.76 -0.51 4.18 -4.18 1.33 -0.57 -8.8 -2.21 10.38 4.05 -0.25 -2.41 3.16 2.47 0.95 -4.68 4.88 3.1 -0.57 -0.63 4.43 -6.02 -2.91 -0.19 4.36 -3.98 0.32 5.63 2.03 -1.77 5.5 3.73 -2.21 -0.44 6.9 -16.84 10.5 -3.42 -1.77 2.85 2.34 -3.67 1.52 -6.84 -2.66 -11.58 -16.39 -26.27 -14.18 -10.13 11.71 -0.82 13.93 -10.13 3.79 -34.3 -8.22 -4.88 -8.49 -19.87 -14.68 -8.11 2.21 0.13 4.18 -19.75 3.23 -8.99 -2.22 1.59 -5.44 -12.41 -2.59 1.08 -5.51 -6.46 -2.15 6.58 -2.79 -8.04 -6.01 8.11 -3.23 -1.4 -7.53 -6.77 -1.46 -3.1 2.41 -1.71 0.57 3.29 -3.11 -3.61 -1.26 10.19 -1.9 -5.95 -3.35 4.56 -1.02 -0.5 -4.43 -6.33 -0.76 2.97 -3.8 1.2 2.54 4.81 0.25 -2.91 -1.71 0.7 -9.24 -10.95 3.42 2.66 -3.23 -3.8 1.46 -0.57 -3.17 4.56 -1.27 -4.75 -4.05 3.04 -1.58 -8.93 -3.86 14.43 -1.33 -0.38 -6.84 -9.36 -0.76 7.34 -2.65 -3.1 -1.65 0 -0.82 8.67 -2.22 -8.29 -5.13 6.77 -0.06 -1.77 -8.48 -3.93 1.58 1.4 -2.59 -5.32 -2.85 6.07 1.39 -0.31 -7.66 5.95 11.27 6.58 -5.51 2.41 1.9 0.69 2.66 -3.79 6.27 5.19 0.25 -3.61 2.53 0.82 3.86 5.89 0.25 -1.9 2.47 -2.09 0.26 -1.84 2.09 6.14 0.57 -2.84 3.48 3.29 -0.89 -0.89 2.28 4.3 -1.58 -2.08 -10.83 3.73 -3.86 -2.72 1.9 1.14 -4.18 -3.17 -1.14 3.55 -2.15 -7.34 -0.31 3.86 -5.51 -4.12 4.3 1.96 -5.57 -5.25 1.27 -0.32 -5.32 2.47 0.7 -0.12 -4.31 1.52 3.55 1.2 -0.45 -0.07 -5.25 4.63 4.62 -0.89 -2.97 -1.46 -0.57 0.13 -0.38 -0.7 -0.26 -0.19 -0.69 -1.07 -0.95 -0.13 -0.7 -0.5 -0.31 -0.07 -0.32 11.9 5.25 -2.59 -8.29 -7.16 -4.56 6.46 2.35 -2.66 -6.52 4.12 2.02 -1.27 5.32 5.51 1.9 2.09 7.02 6.58 0.64 -2.6 -3.99 7.35 -4.31 -7.41 0.83 5 -3.17 -3.35 -2.4 -5.83 2.02 -0.69 -3.79 5.63 -0.07 -2.72 -4.49 9.43 6.14 5.95 -2.41 -16.96 -11.45 8.41 2.91 1.71 -2.66 1.46 4.62 8.73 3.29 -5.31 -4.87 4.55 -3.61 -3.73 -5.57 5.06 2.91 -0.5 -5.51 3.29 0.83 1.07 -3.49 -3.67 0.89 -1.33 -5.63 -6.01 -0.83 6.39 -4.93 2.03 4.05 6.01 0.13 2.34 -9.56 -2.46 0.25 -5.76 -5.13 9.3 2.66 -1.77 -5.7 4.11 2.47 1.97 -6.45 3.1 0.69 -4.37 -3.73 0.06 -0.95 5.89 0.63 -1.96 -2.66 2.59 -0.63 -7.34 -11.77 4.75 -0.19 3.98 7.97 3.23 -4.05 2.03 -0.63 -1.71 5.76 4.11 -0.95 7.28 5.51 -5.76 -8.99 9.62 -2.72 -1.64 3.1 6.14 7.15 -3.04 1.58 6.52 4.88 -1.96 -6.9 0.31 -0.26 1.59 0.7 0.57 -0.13 -3.49 -3.1 4.5 -0.82 0.51 -4.56 -3.99 -0.06 3.04 -3.48 -20.32 -2.72 1.39 -4.44 -5.38 0.51 -7.66 -10.7 5.95 4.18 1.96 -2.72 -2.09 3.48 2.41 2.22 3.54 -1.71 2.28 3.1 2.79 -4.05 -0.26 5.63 7.35 0.44 -1.9 -8.16 4.18 -1.46 -2.98 -3.29 3.67 2.03 1.58 -5 3.93 -0.07 -2.66 -5.69 7.03 2.4 -2.85 -11.64 5.19 4.43 1.33 -6.71zm113.81 151.97l-1.02 -10 4.06 -0.57 -0.89 -2.34 -5.57 2.03 -1.71 -3.23 -3.92 2.21 1.2 2.54 -6.59 0.06 0.83 4.05 4.11 -2.09 3.93 4.69 -12.66 3.6 8.04 3.04 -10.77 6.9 4.94 3.23 -7.09 3.67 6.97 1.08 -6.65 4.62 2.72 4.75 3.67 -1.52 2.22 5.31 -3.23 7.09 2.72 1.27 4.12 -0.06 0.19 -3.87 3.98 1.97 -1.52 -4.69 4.25 -1.71 -4.88 -5.63 6.21 -0.51 0.56 -2.97 -5.5 -2.79 6.52 -2.85 -5.51 0.83 -0.7 -4.5 5.32 0.45 1.65 -14.06z"/>
 </g>
</svg>
