<?xml version="1.0" encoding="UTF-8"?>
<!DOCTYPE svg PUBLIC "-//W3C//DTD SVG 1.1//EN" "http://www.w3.org/Graphics/SVG/1.1/DTD/svg11.dtd">
<!-- Creator: CorelDRAW 2020 (64-Bit) -->
<svg xmlns="http://www.w3.org/2000/svg" xml:space="preserve" width="750px" height="700px" version="1.1" style="shape-rendering:geometricPrecision; text-rendering:geometricPrecision; image-rendering:optimizeQuality; fill-rule:evenodd; clip-rule:evenodd"
viewBox="0 0 750 700"
 xmlns:xlink="http://www.w3.org/1999/xlink"
 xmlns:xodm="http://www.corel.com/coreldraw/odm/2003">
 <defs>
  <style type="text/css">
   <![CDATA[
    .fil0 {fill:#FF9500;fill-opacity:0.800000}
   ]]>
  </style>
 </defs>
 <g id="Capa_x0020_1">
  <metadata id="CorelCorpID_0Corel-Layer"/>
  <polygon class="fil0" points="520.7,434.81 527.6,437.21 525.64,429.11 529.82,427.65 526.84,424.36 530.51,426.39 532.09,421.39 536.02,421.32 532.52,417.02 533.68,415.98 540.39,418.03 539.31,410.16 542.73,410.82 543.61,406.66 544.69,406.44 545.96,415.25 543.17,417.9 554.19,417.27 544.5,421.96 546.08,423.22 552.16,420.69 554.5,421.51 546.27,426.45 548.17,427.46 548.17,429.62 544.82,427.59 541.72,431.58 544.12,431.7 542.73,438.79 548.36,437.59 543.36,443.1 549.88,459.24 554.63,458.54 558.49,451.33 562.22,452.02 560.96,445.32 569.44,448.23 568.68,452.53 570.52,452.21 570.2,454.24 571.85,454.18 572.8,447.47 569.5,445.57 576.09,445.38 571.97,438.48 580.07,437.91 581.34,448.61 583.55,444.24 587.48,444.43 585.08,436.45 591.66,441.96 588.43,437.84 594.44,435.75 588.37,433.79 591.21,429.11 577.35,431.7 592.48,425.5 591.28,422.4 587.92,424.36 589.89,415.88 585.45,415.18 578.74,421.83 580.39,418.48 576.49,417.97 601.11,408.03 609.63,415.18 637.7,423.68 637.29,427.61 646.38,434.43 657.87,451.01 668.94,444.62 668.82,435.81 677.94,423.16 723.51,423.19 724.9,564.16 718.25,593.13 708.41,607.73 703.25,609.82 696.92,622.64 686.53,630.2 675.99,628.75 667.24,622.93 674.7,619.26 671.22,617.23 675.15,616.66 670.46,606.85 676.92,601.66 676.79,584.19 681.22,578.3 680.27,576.21 681.98,575.26 681.41,572.23 684.26,566.53 683.95,565.26 676.6,577.42 674.45,594.63 667.62,601.66 667.05,610.9 662.55,613.88 656.47,631.66 645.97,646.41 640.59,646.09 641.73,637.17 644.76,636.09 642.55,633.75 646.22,633.31 643.62,631.03 648.56,625.71 635.97,631.54 637.24,623.11 634.06,620.63 632.29,633.37 638.56,633.37 636.09,636.41 638.31,638.37 634.07,641.09 636.66,645.4 630.33,643.25 630.14,647.61 626.16,647.93 631.79,649.96 630.02,655.46 633.75,653.25 633.31,660.15 616.44,670.65 613.05,668.88 615.9,671.17 612.17,672.74 605.43,670.08 593.81,653.69 567.54,639.51 557.41,651.22 556.59,665.14 546.34,668.94 512.09,660.65 507.28,652.23 487.3,637.51 479.3,639.76 479.41,643.92 459.36,647.17 450.71,644.95 452.78,640.71 449.93,637.68 439.87,636.92 440.95,631.41 434.49,629.07 440.69,624.83 434.11,620.78 441.14,617.23 439.74,609.7 432.97,608.24 429.87,610.65 428.16,611.22 431.45,608.11 427.78,606.98 438.03,604.95 432.08,601.6 436.64,600.58 436.14,596.15 429.81,595.39 432.78,591.59 433.98,594.13 438.79,594.38 435.88,592.67 436.58,583.43 425.63,586.85 428.29,583.62 424.61,585.08 423.54,583.75 428.22,581.53 427.53,576.97 421.43,572.67 422.97,569.82 431.32,571.72 433.22,566.53 429.99,561.78 428.48,563.17 422.53,562.1 429.87,559.57 426.77,557.92 426.77,557.1 435.44,554.88 427.94,549.94 433.92,549.69 431.77,539.49 436.07,542.35 442.65,536.84 445.69,541.4 441.9,547.67 447.09,547.92 443.48,550.45 444.3,554.31 450.19,554.5 448.29,557.03 446.2,557.29 444.36,559.38 450.5,559.95 447.66,563.43 450.95,562.54 450.06,564.82 454.36,563.24 452.28,552.41 456.01,548.55 453.29,550.45 454.43,546.27 451.26,545.13 454.81,542.98 447.47,542.67 451.33,537.16 447.21,541.46 449.17,535.89 443.92,537.16 443.6,531.84 446.07,532.54 445.95,528.23 447.47,531.78 448.67,531.33 448.6,526.08 453.23,530.7 452.34,527.73 450.88,527.16 451.01,526.78 450.31,526.52 450.12,525.83 449.05,524.88 448.92,524.18 448.42,523.87 448.35,523.55 460.25,528.8 460.19,524.25 455.31,520.83 457.4,515.83 464.75,528.04 471.33,528.68 468.73,524.69 476.08,520.38 468.67,521.21 473.67,518.04 470.32,515.64 464.49,517.66 463.8,513.87 469.43,513.8 466.71,509.31 476.14,515.45 482.09,513.04 468.61,505.64 470.51,502.82 474.05,504.43 475.25,501.84 476.71,506.46 485.44,509.75 480.13,504.88 484.68,501.27 480.95,495.7 486.01,498.61 485.51,493.1 488.8,493.93 489.87,490.44 486.2,491.33 484.94,485.76 483.23,486.27 482.53,485 479.6,485.13 479.52,484.62 485.25,479.94 487.28,483.99 493.29,484.12 495.63,474.56 488.34,471.84 496.96,472.21 495.32,467.71 499.05,469.11 501.02,462.66 504.12,463.35 499.75,459.62 499.81,458.67 505.7,459.3 503.74,456.64 506.33,456.01 498.99,444.24 503.74,444.05 507.72,452.02 510.95,447.97 512.98,447.34 511.27,453.1 515.38,452.15 522.66,457.66 517.09,448.48 528.36,452.66 531.02,456.26 527.98,457.78 534.5,462.66 532.54,455.76 532.85,455.5 534.44,456.2 535.01,456.07 531.52,453.12 537.65,452.15 535.58,444.05 519.5,441.45 515.76,436.26 511.78,436.39 510.81,432.15 517.66,435.25 520.45,431.2 "/>
  <polygon class="fil0" points="457.51,514.37 457.91,513.93 458.42,513.8 457.3,515 "/>
  <polygon class="fil0" points="511.37,430.76 511.9,431.01 511.08,431.58 511.04,431.51 "/>
  <polygon class="fil0" points="560.94,445.31 560.83,445.31 560.83,445.28 "/>
  <polygon class="fil0" points="457.28,515.06 457.28,515.07 457.27,515.07 "/>
 </g>
</svg>
