<?xml version="1.0" encoding="UTF-8"?>
<!DOCTYPE svg PUBLIC "-//W3C//DTD SVG 1.1//EN" "http://www.w3.org/Graphics/SVG/1.1/DTD/svg11.dtd">
<!-- Creator: CorelDRAW 2020 (64-Bit) -->
<svg xmlns="http://www.w3.org/2000/svg" xml:space="preserve" width="750px" height="700px" version="1.1" style="shape-rendering:geometricPrecision; text-rendering:geometricPrecision; image-rendering:optimizeQuality; fill-rule:evenodd; clip-rule:evenodd"
viewBox="0 0 750 700"
 xmlns:xlink="http://www.w3.org/1999/xlink"
 xmlns:xodm="http://www.corel.com/coreldraw/odm/2003">
 <defs>
  <style type="text/css">
   <![CDATA[
    .fil0 {fill:#FF9500;fill-opacity:0.800000}
   ]]>
  </style>
 </defs>
 <g id="Capa_x0020_1">
  <metadata id="CorelCorpID_0Corel-Layer"/>
  <polygon class="fil0" points="537.65,451.6 539.73,452.85 535.14,454.1 540.14,458.27 537.65,458.68 537.23,458.68 536.39,458.68 535.56,457.85 535.14,458.27 540.98,461.6 539.31,465.77 525.56,462.85 528.48,459.52 525.56,459.1 526.4,455.35 525.14,454.93 524.31,462.02 522.23,460.35 511.81,458.68 525.14,464.52 518.9,467.85 512.23,465.77 518.06,468.69 510.14,469.52 510.56,470.35 508.89,469.93 509.73,470.77 506.81,470.77 506.39,471.19 506.39,471.6 514.31,471.19 510.56,474.52 510.14,477.85 512.64,479.1 512.23,473.68 528.48,465.35 530.15,468.69 535.98,468.69 526.4,477.02 531.81,477.85 527.64,479.94 531.81,484.1 539.31,479.94 543.48,482.85 548.06,480.77 550.15,484.1 543.89,492.02 530.56,497.02 533.06,492.02 531.81,487.02 525.56,494.52 521.39,492.85 522.65,489.52 522.65,487.85 520.56,492.02 518.06,488.27 513.06,489.52 521.39,493.69 520.56,495.77 517.64,497.44 518.06,497.85 521.81,494.52 522.23,497.85 527.64,498.69 530.15,500.77 524.73,507.02 519.73,507.44 518.9,513.69 513.06,507.02 515.15,497.85 510.14,498.69 513.06,496.6 511.4,490.77 500.56,489.1 505.56,497.44 495.98,492.44 498.48,497.44 509.31,501.6 506.39,506.6 503.9,507.85 504.73,504.1 501.81,506.19 500.98,501.6 493.89,497.85 500.15,504.52 495.56,502.85 490.98,505.35 491.39,504.1 490.14,502.02 488.48,511.19 490.14,506.19 496.81,505.77 494.31,512.85 500.56,509.52 497.64,513.27 503.9,512.85 500.56,514.1 506.81,513.69 509.31,517.02 504.73,518.27 505.56,523.69 502.23,522.02 501.39,521.6 502.23,524.52 498.89,524.52 496.4,527.02 493.06,526.6 487.64,529.52 497.23,527.85 503.06,533.27 509.73,527.02 513.89,533.69 506.39,534.52 507.23,538.27 505.56,534.52 503.06,534.52 505.14,539.94 501.39,540.77 504.31,540.77 502.64,549.1 497.64,549.94 500.56,552.44 496.4,553.69 487.23,552.02 485.98,552.85 493.48,555.35 492.23,557.85 498.48,555.35 495.56,557.85 498.06,560.77 500.15,553.69 501.39,553.27 502.23,558.69 502.64,551.6 504.73,553.27 502.23,549.94 506.39,548.27 504.31,546.19 509.31,539.52 513.48,539.94 508.89,542.02 511.81,549.52 516.81,549.52 517.64,552.85 526.4,551.6 522.23,553.69 523.48,557.02 533.48,549.52 534.31,554.94 529.31,557.85 534.31,556.6 534.73,559.52 528.48,562.44 535.14,562.02 535.56,566.19 531.39,564.52 529.73,567.44 527.23,567.85 526.4,568.69 526.4,569.1 530.15,569.1 529.31,574.52 530.56,572.44 535.56,575.77 527.23,577.44 525.56,574.94 524.73,575.35 533.9,583.69 523.06,580.77 526.4,584.94 524.73,592.44 517.64,596.19 518.9,597.02 517.64,602.44 512.23,592.02 504.73,590.35 507.23,588.27 501.39,584.94 504.31,581.19 500.15,582.02 499.73,572.44 495.14,567.02 496.81,570.77 493.06,568.69 489.73,579.94 488.48,580.35 479.73,575.77 474.73,579.52 469.73,576.19 468.48,582.44 476.81,587.85 472.23,589.52 475.14,590.35 474.31,594.52 471.81,594.94 473.9,604.52 469.31,609.52 470.56,611.19 470.56,612.85 468.48,620.77 464.73,624.52 464.31,631.19 468.48,632.02 463.48,633.69 468.89,634.52 464.73,635.77 469.31,637.85 464.73,640.77 470.98,639.1 471.39,639.1 464.73,642.44 474.73,640.35 475.56,634.94 479.73,634.94 476.39,635.77 479.73,639.1 469.73,644.52 474.31,643.27 475.98,643.69 459.31,647.02 450.98,644.94 449.73,638.27 431.39,637.85 429.73,633.27 435.98,614.52 435.14,611.6 428.9,612.85 425.98,610.35 428.48,602.85 423.89,593.69 420.14,594.52 418.48,585.77 422.64,577.02 421.4,565.77 414.31,562.02 414.73,558.69 423.06,559.1 431.81,539.52 439.31,534.94 437.64,529.52 441.39,525.35 455.56,519.52 457.64,513.27 475.98,497.85 478.89,501.19 480.56,499.52 477.65,497.02 483.48,493.27 483.89,488.27 479.31,484.52 487.64,476.6 490.14,479.94 492.23,476.6 487.64,472.44 496.4,467.44 497.23,460.35 501.39,456.19 497.64,448.69 500.15,448.69 496.81,446.6 499.31,440.35 528.06,454.93 527.23,452.02 "/>
  <polygon class="fil0" points="548.06,448.69 554.31,454.93 560.15,444.94 569.31,447.02 567.23,445.35 572.23,443.68 568.9,442.02 572.65,435.35 579.73,434.52 573.89,433.27 578.06,430.77 574.73,427.02 577.64,424.1 574.31,423.69 576.4,417.85 593.48,411.19 597.65,411.6 594.73,414.52 601.81,413.68 595.56,417.43 598.9,419.94 595.98,419.52 598.48,422.85 595.15,424.52 601.81,432.02 594.73,428.68 600.56,436.6 593.06,445.77 589.73,443.68 591.81,447.02 588.06,449.94 583.9,448.27 585.56,452.02 578.48,449.94 577.64,448.69 578.06,448.27 578.06,447.43 578.48,446.6 578.9,445.77 578.48,445.77 575.15,448.69 579.31,455.77 574.73,453.27 575.15,457.02 570.14,456.19 568.9,460.35 564.73,454.52 564.31,462.43 560.15,459.94 562.64,463.27 555.56,464.1 558.06,467.85 554.73,469.52 552.23,466.18 551.39,469.93 546.4,464.94 549.73,461.6 543.06,461.6 545.56,457.44 540.98,442.02 545.56,450.77 "/>
  <path class="fil0" d="M547.23 407.02l1.67 2.08 -1.26 1.25 -5.41 -0.83 0.83 8.75 -4.16 -1.25 2.08 6.67 -2.08 -2.09 -6.67 5.42 5.42 4.17 -1.67 6.25 -4.17 -7.09 -0.42 8.34 -6.66 -1.67 -2.08 -4.59 -2.51 2.09 -7.91 -3.33 6.67 8.74 18.75 3.34 0.41 6.25 -2.08 -4.58 -18.34 -3.75 -6.24 -5.01 -0.42 -4.16 0.83 -0.83 -0.41 -0.42 0.83 -2.09 3.75 2.51 0 -3.34 2.08 -0.83 2.08 4.17 2.09 -3.75 -2.5 -2.51 3.75 1.67 1.25 -2.5 17.5 -17.08 5 0 0 0zm-34.25 25.95l0.06 0 0 -0.05 -0.06 0 0 0.05zm23.91 -20.19l0.01 0 0 -0.02 -0.01 0 0 0.02zm-0.76 0.82l0.02 0 0 -0.02 -0.02 0 0 0.02z"/>
  <polygon class="fil0" points="547.64,410.77 556.81,417.43 555.98,420.35 557.65,417.85 562.23,421.18 561.81,425.35 558.48,423.69 555.14,427.85 553.9,423.69 544.73,434.94 545.15,427.85 553.06,422.44 546.4,422.85 550.98,420.35 545.98,419.1 "/>
  <polygon class="fil0" points="544.31,436.18 548.48,433.27 552.65,432.43 548.48,445.35 543.06,439.1 548.9,439.52 "/>
  <polygon class="fil0" points="538.9,434.52 537.23,432.43 538.48,430.35 539.73,433.69 "/>
  <polygon class="fil0" points="536.39,437.85 536.39,437.02 537.23,437.02 536.81,438.27 "/>
  <polygon class="fil0" points="479.73,486.19 480.14,486.6 480.56,487.02 479.73,487.02 "/>
  <polygon class="fil0" points="538.06,449.94 538.48,450.77 538.06,450.77 "/>
  <polygon class="fil0" points="538.06,450.77 538.48,451.18 538.06,451.18 "/>
  <polygon class="fil0" points="547.92,448.16 548.17,448.16 548.17,447.66 547.92,447.66 "/>
  <polygon class="fil0" points="496.2,462.91 496.46,462.91 496.46,462.59 496.2,462.59 "/>
  <polygon class="fil0" points="538.18,449.68 538.3,449.68 538.3,449.55 538.18,449.55 "/>
  <polygon class="fil0" points="526.97,452.21 527.07,452.21 527.07,452.19 526.97,452.19 "/>
  <polygon class="fil0" points="433.82,614.94 433.86,614.94 433.86,614.89 433.82,614.89 "/>
  <polygon class="fil0" points="511.37,430.76 511.4,430.76 511.4,430.7 511.37,430.7 "/>
  <polygon class="fil0" points="433.91,615.03 433.92,615.03 433.92,615.01 433.91,615.01 "/>
 </g>
</svg>
