<?xml version="1.0" encoding="UTF-8"?>
<!DOCTYPE svg PUBLIC "-//W3C//DTD SVG 1.1//EN" "http://www.w3.org/Graphics/SVG/1.1/DTD/svg11.dtd">
<!-- Creator: CorelDRAW 2020 (64-Bit) -->
<svg xmlns="http://www.w3.org/2000/svg" xml:space="preserve" width="750px" height="700px" version="1.1" style="shape-rendering:geometricPrecision; text-rendering:geometricPrecision; image-rendering:optimizeQuality; fill-rule:evenodd; clip-rule:evenodd"
viewBox="0 0 750 700"
 xmlns:xlink="http://www.w3.org/1999/xlink"
 xmlns:xodm="http://www.corel.com/coreldraw/odm/2003">
 <defs>
  <style type="text/css">
   <![CDATA[
    .fil0 {fill:#FF9500;fill-opacity:0.800000}
   ]]>
  </style>
 </defs>
 <g id="Capa_x0020_1">
  <metadata id="CorelCorpID_0Corel-Layer"/>
  <polygon class="fil0" points="723.13,475.73 694.09,480.25 671.6,490.18 612.49,532.58 609.35,513.57 597.85,533.44 554.98,522.98 546.08,477.45 548.25,449.49 552.1,452.78 551.21,458.23 551.53,458.35 561.27,450.19 558.28,448.42 560.07,445.01 571.78,447.66 568.05,444.43 572.8,444.17 569.63,441.45 574.31,440.82 570.71,438.6 572.13,436.26 580.2,435.31 581.91,443.48 584.76,443.16 583.94,435.44 590.2,435.88 586.66,434.11 589.76,431.45 583.11,431.83 582.92,434.55 574.45,432.65 578.74,430.63 574.97,427.91 582.8,425.44 581.34,421.64 575.07,423.48 576.49,417.93 603.05,407.93 609.63,415.18 637.7,423.68 637.29,427.61 646.38,434.43 657.87,451.01 668.94,444.62 669.46,435.38 677.94,423.16 723.51,423.19 "/>
 </g>
</svg>
