<?xml version="1.0" encoding="UTF-8"?>
<!DOCTYPE svg PUBLIC "-//W3C//DTD SVG 1.1//EN" "http://www.w3.org/Graphics/SVG/1.1/DTD/svg11.dtd">
<!-- Creator: CorelDRAW 2020 (64-Bit) -->
<svg xmlns="http://www.w3.org/2000/svg" xml:space="preserve" width="750px" height="700px" version="1.1" style="shape-rendering:geometricPrecision; text-rendering:geometricPrecision; image-rendering:optimizeQuality; fill-rule:evenodd; clip-rule:evenodd"
viewBox="0 0 750 700"
 xmlns:xlink="http://www.w3.org/1999/xlink"
 xmlns:xodm="http://www.corel.com/coreldraw/odm/2003">
 <defs>
  <style type="text/css">
   <![CDATA[
    .fil0 {fill:#FF9500;fill-opacity:0.800000}
   ]]>
  </style>
 </defs>
 <g id="Capa_x0020_1">
  <metadata id="CorelCorpID_0Corel-Layer"/>
  <polygon class="fil0" points="545.77,406.21 547.41,417.59 554.55,416.2 552.67,419.99 559.19,422.59 553.17,422.21 548.05,426.64 549.31,429.81 545.32,428.29 543.17,431.2 543.42,438.29 548.87,435.19 550.32,437.21 544.37,443.6 545.58,448.79 550.83,451.64 551.08,458.73 558.3,450.69 562.35,450.76 558.29,448.29 560.07,445.01 572.23,447.72 568.3,444.87 573.62,444.43 571.09,440.69 575.2,442.34 571.15,438.6 571.91,436.61 579.76,435.88 579,440.44 582.35,444.87 585.58,443.86 583.3,438.86 584.69,435.5 590.52,436.2 587.1,434.11 590.52,430.44 582.54,434.17 574.63,432.4 579.06,430.44 575.07,428.16 581.21,428.29 582.61,423.03 585.33,423.1 583.94,426.7 590.84,425.44 586.66,424.49 588.75,416.39 579,423.92 574.77,422.4 579.25,419.3 576.49,417.93 601.11,408.03 609.63,415.18 637.7,423.68 637.29,427.61 646.38,434.43 657.87,451.01 668.94,444.62 668.82,435.81 677.94,423.16 723.51,423.19 724.9,564.16 718.25,593.13 708.41,607.73 703.25,609.82 696.92,622.64 686.53,630.2 666.73,625.08 672.93,619.07 669.13,607.23 674.64,600.9 673.06,597.1 653.5,638.63 649.26,639.45 645.38,648.37 642.61,645.14 639.74,648.69 639.19,643.12 642.87,635.97 640.27,635.27 642.11,631.28 639.32,631.54 636.16,650.33 634.57,645.97 631.16,647.74 630.9,654.07 635.52,651.92 632.1,663.67 612.17,672.74 605.43,670.08 593.81,653.69 567.54,639.51 557.41,651.22 556.59,665.14 546.34,668.94 512.09,660.65 507.28,652.23 487.3,637.51 479.3,639.76 479.41,643.92 452.15,645.84 450.19,638.44 438.29,637.29 438.16,631.92 432.21,634.26 431.92,628.81 437.65,626.6 434.18,617.48 438.92,617.93 436.33,612.99 438.67,610.77 432.4,609.63 428.79,612.91 426.7,610.96 430.18,608.31 425.87,607.17 426.13,605.33 433.67,605.01 428.79,600.84 430.06,596.34 422.21,591.59 424.24,586.28 419.26,583.18 424.49,578.3 425,580.01 425.75,580.52 425.94,581.53 426.51,581.91 426.2,577.86 421.63,575.01 421.97,568.68 425.37,571.47 429.87,568.43 427.46,562.22 421.83,564.12 421.91,560 426.64,559.06 426.2,554.38 429.24,557.1 432.21,554.56 427.59,553.36 426.99,551.21 433.03,548.11 431.77,539.49 437.34,540.39 437.02,536.97 441.39,535.58 442.97,524.82 455.69,519.63 457.85,513.41 460.31,512.34 457.97,518.55 461.14,516.4 459.43,519.88 467.09,521.59 467.53,520.26 470.7,518.36 470.82,517.98 464.43,518.36 464.18,514.94 461.9,514.5 463.67,511.65 466.64,513.87 465.53,507.91 469.87,507.41 467.89,504.56 473.92,503.55 474.68,499.43 478.04,506.08 482.53,503.36 479.71,495.19 485.51,496.65 485.19,487.6 479.49,484.42 484.49,479.57 488.04,479.56 488.61,483.42 491.14,481.52 494.31,474.68 487.8,472.44 491.39,468.92 496.14,471.77 494.05,468.03 499.05,468.29 502.09,462.09 498.8,460.82 499.78,457.47 503.67,458.16 500.19,453.04 502.6,450.5 499.24,449.68 501.59,446.71 498.04,445.95 496.88,442.3 499.88,444.05 502.09,441.11 507.79,450.76 511.97,446.51 528.36,452.66 531.65,456.64 528.68,457.02 529.25,458.54 533.23,458.16 530.51,453.12 537.65,452.15 535.9,444.91 518.04,441.31 510.79,432.06 513.93,430.5 517.28,432.91 516.84,430 521.33,428.92 521.14,435.38 524.31,434.49 523.3,427.27 528.49,427.78 525.46,423.35 530.96,425.37 531.08,420.63 535.45,419.36 530.75,418.6 534.64,415.12 540.96,415.69 538.99,410.5 "/>
  <polygon class="fil0" points="511.37,430.76 511.9,431.01 511.08,431.58 511.04,431.51 "/>
  <polygon class="fil0" points="499.78,456.39 500.13,456.83 500.13,457.15 499.78,456.83 "/>
  <polygon class="fil0" points="540.64,408.73 540.58,408.98 540.28,409.11 "/>
  <polygon class="fil0" points="525.45,423.36 525.45,423.41 525.39,423.41 "/>
  <polygon class="fil0" points="526.78,422.17 526.78,422.21 526.73,422.21 "/>
  <polygon class="fil0" points="526.84,422.11 526.84,422.15 526.8,422.15 "/>
  <polygon class="fil0" points="526.9,422.05 526.9,422.08 526.87,422.08 "/>
  <polygon class="fil0" points="545.83,406.2 545.83,406.2 545.83,406.2 "/>
 </g>
</svg>
