<?xml version="1.0" encoding="UTF-8"?>
<!DOCTYPE svg PUBLIC "-//W3C//DTD SVG 1.1//EN" "http://www.w3.org/Graphics/SVG/1.1/DTD/svg11.dtd">
<!-- Creator: CorelDRAW 2020 (64-Bit) -->
<svg xmlns="http://www.w3.org/2000/svg" xml:space="preserve" width="750px" height="700px" version="1.1" style="shape-rendering:geometricPrecision; text-rendering:geometricPrecision; image-rendering:optimizeQuality; fill-rule:evenodd; clip-rule:evenodd"
viewBox="0 0 750 700"
 xmlns:xlink="http://www.w3.org/1999/xlink"
 xmlns:xodm="http://www.corel.com/coreldraw/odm/2003">
 <defs>
  <style type="text/css">
   <![CDATA[
    .fil0 {fill:#FF9500;fill-opacity:0.800000}
   ]]>
  </style>
 </defs>
 <g id="Capa_x0020_1">
  <metadata id="CorelCorpID_0Corel-Layer"/>
  <path class="fil0" d="M576.4 417.85l23.33 -7.08 0 1.25 -1.25 0.42 -0.42 0.41 5.42 3.34 -4.58 0 2.5 2.08 -4.59 1.67 4.59 2.08 -4.17 1.25 -0.42 2.92 4.59 0.83 2.49 6.67 4.59 -1.26 1.25 -4.99 4.58 0.83 0 3.75 -7.5 5 -8.75 -6.25 3.75 6.25 -2.91 -0.42 -4.59 10.42 -2.91 -2.08 -7.92 7.91 -2.09 0 0 -1.67 -4.16 -2.08 3.33 5.83 -11.25 3.34 3.34 3.75 -6.26 -5 -0.83 7.5 -1.25 -1.25 -0.41 0 -1.26 -1.67 -0.41 0 1.67 3.34 -5.42 -0.84 -2.5 1.67 3.33 2.5 -3.75 2.08 -3.33 -3.33 -0.84 3.75 -6.24 -3.75 2.08 -0.84 -2.08 -0.83 2.91 -1.66 0.42 -0.84 -0.42 -0.83 -5.41 0 1.66 -5.42 -4.17 -12.92 2.09 -1.66 5.41 7.92 0.84 -4.59 -5.42 -6.25 5.84 0.83 -4.17 -3.33 0.42 -8.75 7.91 -5.41 -6.66 0.83 4.58 -2.92 -5 -1.25 1.66 -9.17 -4.99 -0.83 2.08 6.25 -2.5 3.34 -3.33 -1.67 2.08 6.67 -2.08 -2.09 -6.67 5.42 6.67 4.17 -2.09 7.08 -5 -7.92 -0.42 8.34 -6.66 -1.67 -2.08 -4.59 -0.84 0.42 -0.83 1.67 -8.75 -2.92 6.67 5 0 3.33 19.16 3.34 -2.08 3.33 2.5 1.25 2.92 10.42 -5.42 0.83 5.42 2.09 -0.84 4.99 -22.5 -5.83 7.92 4.17 -3.75 1.25 -0.42 -0.83 -6.66 5.83 8.33 -5 11.25 1.67 -6.67 9.58 4.58 0.83 -2.91 2.09 2.08 2.91 6.25 -10.83 -2.5 8.75 13.34 -1.25 2.49 5.83 -10.41 13.75 -5 -2.08 0 3.33 -6.25 -2.91 0.83 -5.84 -2.08 4.59 -1.25 -1.25 -5.84 -1.25 4.17 2.08 6.25 5.42 -3.75 6.25 9.17 0 -4.59 8.75 -9.16 -0.42 1.66 -7.5 -5.41 2.92 0.83 3.33 -5.41 -1.67 -4.59 -7.5 2.5 -5.41 -4.17 -1.67 1.67 -5 -2.5 -0.42 0.83 7.09 -4.58 -2.09 -1.67 0 7.09 3.34 -1.67 6.66 -5 0.42 0.42 -3.33 -2.92 0.83 0.83 -1.67 -0.83 -2.5 -0.83 3.75 -5 -1.25 -3.34 1.25 6.67 0 3.33 2.92 -2.5 -0.83 -2.08 0.41 0.83 1.25 5.42 1.67 -2.5 1.25 5 -0.42 -1.25 2.09 6.25 3.33 -4.58 7.92 -2.08 -1.25 0.83 1.25 -2.09 0.41 -3.33 1.67 -3.75 0 -0.42 0.42 9.59 -0.42 0.83 2.92 6.67 -3.34 -2.5 -2.08 2.5 0.83 3.33 -5.83 8.75 3.33 -6.25 8.75 -5.42 -2.91 2.09 5.83 -11.67 6.25 1.25 4.17 -1.67 0.41 0.84 1.25 -1.25 0.42 0.41 2.5 6.67 -10.83 5 1.25 -3.75 5 1.67 3.75 4.58 -0.84 1.67 3.75 5.83 -1.25 1.25 -5.41 3.75 3.33 -3.33 1.25 0.83 3.33 7.92 -2.91 0 5 -3.34 1.66 3.34 -0.41 0.83 3.75 -5 2.5 5 -1.25 0.83 5.41 -5 -0.41 -1.66 2.08 6.66 -0.42 0 4.59 -6.24 -0.84 6.24 4.17 -9.58 2.08 8.75 6.67 -2.08 2.92 -7.92 -5.84 4.59 7.92 -2.51 -1.25 -2.91 2.92 1.67 5 -0.42 0 -0.84 -1.67 -1.25 -0.83 -5.41 6.66 5.83 5.42 0.83 4.17 -15 -16.67 -3.75 1.25 -11.25 -17.92 0 6.25 -9.58 4.17 1.67 1.25 -0.84 2.08 3.34 1.67 -4.17 0.83 0.83 12.92 -3.33 14.17 -5 10.83 -3.75 2.92 10 3.33 -5 0.42 0 6.66 -22.08 2.92 -6.25 -2.08 -1.25 -6.67 -20 -1.25 4.58 -21.67 -9.16 -5.83 0.41 -8.75 -8.33 -13.75 5.41 -10 -1.66 -17.92 10.41 -13.33 0.42 -6.25 5 -2.5 0.42 -6.67 18.33 -10.83 2.08 -6.25 23.34 -19.17 -1.67 -9.58 8.33 -5 0 -7.08 8.76 -5 -0.42 -6.25 3.75 -2.51 -2.92 -12.08 2.5 -6.25 28.75 14.58 -0.83 -2.91 10.42 0 0.41 -2.5 -2.08 -2.09 0 -2.49 -18.34 -3.75 -6.24 -5.01 -0.42 -4.16 0.83 -0.83 0.42 -2.51 8.33 -4.16 2.92 2.08 18.75 -19.58 5 -0.42 15 15 -0.42 3.75 -7.08 4.59 -4.58 14.58 4.16 8.33 5.84 -7.91 6.66 2.49 9.17 -13.33 -2.5 0 2.92 -16.25 0 0zm-63.42 15.12l0.06 0 0 -0.05 -0.06 0 0 0.05z"/>
  <polygon class="fil0" points="526.97,452.21 527.07,452.21 527.07,452.19 526.97,452.19 "/>
  <polygon class="fil0" points="511.37,430.76 511.4,430.76 511.4,430.7 511.37,430.7 "/>
  <polygon class="fil0" points="540.56,449.52 540.56,449.94 540.56,450.35 "/>
 </g>
</svg>
