<?xml version="1.0" encoding="UTF-8"?>
<!DOCTYPE svg PUBLIC "-//W3C//DTD SVG 1.1//EN" "http://www.w3.org/Graphics/SVG/1.1/DTD/svg11.dtd">
<!-- Creator: CorelDRAW 2020 (64-Bit) -->
<svg xmlns="http://www.w3.org/2000/svg" xml:space="preserve" width="750px" height="700px" version="1.1" style="shape-rendering:geometricPrecision; text-rendering:geometricPrecision; image-rendering:optimizeQuality; fill-rule:evenodd; clip-rule:evenodd"
viewBox="0 0 750 700"
 xmlns:xlink="http://www.w3.org/1999/xlink"
 xmlns:xodm="http://www.corel.com/coreldraw/odm/2003">
 <defs>
  <style type="text/css">
   <![CDATA[
    .fil0 {fill:#FF9500;fill-opacity:0.800000}
   ]]>
  </style>
 </defs>
 <g id="Capa_x0020_1">
  <metadata id="CorelCorpID_0Corel-Layer"/>
  <polygon class="fil0" points="443.9,637.85 440.15,636.19 440.98,630.35 436.4,629.52 440.98,624.1 435.14,620.35 442.23,618.27 443.06,613.69 439.73,613.27 440.56,609.52 430.56,607.44 438.48,604.94 434.31,602.85 436.81,596.19 431.81,594.1 439.31,594.94 437.23,583.69 430.98,581.6 430.14,584.52 428.06,585.77 427.64,574.94 420.98,572.02 431.39,572.44 433.89,566.19 430.14,561.6 420.56,559.1 428.48,560.35 427.64,557.85 436.4,556.19 437.23,551.6 429.73,550.35 435.14,549.52 429.73,540.77 432.23,536.6 436.4,543.27 440.15,539.1 442.23,538.27 443.9,539.1 440.56,546.19 445.56,548.27 442.64,550.35 443.9,554.94 448.48,554.94 443.9,559.94 449.73,560.35 448.48,565.77 455.98,564.1 453.89,558.69 460.14,555.77 454.73,556.6 457.64,553.69 454.73,554.52 456.81,551.6 454.31,552.85 453.48,552.02 457.23,548.27 454.31,547.44 458.48,546.19 453.48,545.77 452.64,544.52 460.14,542.85 456.81,539.94 455.15,542.02 451.4,542.85 454.73,540.35 452.23,540.35 450.56,541.6 449.31,541.6 457.64,536.6 461.39,539.52 464.73,534.1 467.23,536.6 470.98,536.6 469.31,532.44 461.81,532.44 448.06,539.1 450.56,534.52 445.14,535.77 446.81,530.77 449.73,532.44 448.06,527.85 451.4,532.85 453.48,530.77 449.31,524.94 460.56,529.1 458.06,520.77 451.4,515.77 461.81,521.19 464.73,529.94 471.81,529.52 469.73,524.1 476.81,523.27 477.23,520.35 469.73,519.94 473.9,517.85 470.98,515.77 468.48,517.85 464.73,517.44 465.14,514.94 469.31,514.1 469.31,509.52 476.39,515.77 482.64,512.85 468.89,504.94 468.89,502.85 475.14,502.85 476.39,506.6 485.56,509.94 480.56,504.94 486.81,503.27 481.4,496.19 486.39,498.69 485.98,493.69 489.31,494.52 490.56,490.35 486.39,490.77 485.15,485.77 480.14,484.52 485.56,480.35 488.9,485.35 491.39,482.85 493.48,487.85 495.56,485.77 492.65,481.6 495.98,474.1 493.48,474.1 493.48,472.44 490.56,472.02 489.31,471.19 488.9,470.35 496.81,472.85 495.56,467.85 500.15,470.35 500.98,464.52 505.56,461.6 502.64,462.02 500.98,459.94 506.39,459.52 504.31,456.6 507.23,456.19 503.06,453.27 501.81,443.68 507.65,452.44 511.4,448.69 512.23,448.69 512.23,455.77 515.56,453.27 521.81,457.85 517.64,449.1 524.73,447.85 523.89,450.77 530.15,455.35 526.81,457.02 535.14,462.43 533.06,455.77 536.39,457.02 536.81,456.6 531.81,452.85 536.39,452.44 536.81,447.43 533.48,446.6 535.56,443.68 515.56,440.35 517.23,436.6 511.81,437.02 506.39,428.27 517.64,436.18 518.9,431.6 520.98,432.02 519.73,437.85 527.64,437.44 528.48,425.35 530.56,426.6 532.64,422.02 537.65,421.6 533.06,416.6 540.56,418.69 541.81,414.52 538.48,409.52 539.73,407.02 542.65,411.6 543.89,407.02 545.56,414.94 542.65,418.27 552.65,418.27 543.48,422.02 544.31,423.69 552.23,420.77 553.9,421.6 545.56,426.19 547.64,428.68 542.65,428.27 543.48,433.27 540.56,433.69 542.65,439.1 547.64,438.69 540.98,440.35 550.56,459.52 559.73,454.52 558.48,451.6 562.23,452.85 561.4,445.35 569.31,448.69 568.48,452.44 570.14,454.93 572.65,454.52 573.06,447.43 570.14,445.77 575.56,447.02 572.65,442.02 576.4,442.02 574.73,437.85 579.31,438.27 578.06,440.77 580.98,442.44 579.73,447.85 582.23,449.1 583.9,444.1 587.65,444.52 585.56,437.02 591.81,442.02 588.89,437.85 594.73,435.77 589.31,433.69 591.4,428.68 578.9,431.19 581.81,427.85 592.64,425.35 591.4,422.02 588.48,423.69 588.48,420.35 591.81,420.35 589.31,415.35 578.9,421.18 580.56,418.27 576.81,418.27 585.98,413.27 603.06,407.85 609.73,415.35 636.81,425.77 639.73,431.6 634.73,429.1 632.23,430.77 636.4,430.35 639.31,433.27 629.73,434.1 635.98,437.44 635.15,442.44 629.31,440.77 628.48,444.94 626.81,439.93 625.56,440.35 629.31,448.69 623.9,444.1 625.15,450.35 619.73,450.35 623.06,457.02 620.15,456.19 621.81,458.27 618.06,459.1 620.56,460.77 614.73,463.69 615.56,466.18 613.48,464.94 612.23,465.35 614.73,469.52 605.98,470.35 602.23,460.35 597.23,460.77 585.98,467.02 574.31,483.27 568.48,482.44 570.56,483.27 574.73,487.44 570.98,497.85 550.56,521.19 521.81,572.02 517.64,569.52 521.81,561.6 514.73,560.35 512.23,555.35 510.98,555.35 507.65,559.1 511.81,560.77 512.64,566.19 511.4,569.1 505.98,565.35 506.39,573.27 512.23,574.94 508.48,577.44 514.31,586.19 485.56,637.85 479.31,639.94 479.31,644.1 459.73,647.02 450.98,644.52 451.4,637.85 "/>
  <polygon class="fil0" points="641.81,625.77 646.4,597.44 649.73,597.02 647.23,594.1 651.4,594.94 651.4,589.94 654.73,589.1 654.31,584.1 650.15,582.85 655.98,582.85 656.39,579.1 651.4,575.35 657.65,573.27 652.64,573.69 651.4,570.35 657.65,570.35 660.14,549.94 657.23,548.69 660.98,547.85 657.65,546.19 661.4,545.35 653.48,542.02 656.39,538.69 661.4,539.52 657.65,536.6 660.14,535.35 656.39,522.02 656.39,501.19 660.98,501.6 658.06,499.94 658.48,498.27 663.06,501.6 664.73,498.69 669.73,498.27 681.81,529.1 681.81,538.69 688.9,542.85 693.9,532.85 698.9,532.85 701.81,544.94 708.9,542.85 710.56,530.77 722.65,528.27 724.73,564.1 719.31,581.6 722.23,583.69 715.56,598.27 703.06,609.94 693.48,625.77 686.81,630.35 673.48,627.44 668.06,622.44 675.15,619.94 672.65,617.44 675.56,617.44 672.23,612.02 674.73,610.77 670.98,607.02 674.31,606.19 673.06,602.02 677.65,601.19 679.73,584.94 677.23,584.1 681.4,579.1 684.73,566.6 683.9,564.94 676.4,577.44 675.56,589.1 673.06,596.19 665.98,601.6 665.98,610.77 659.31,615.35 661.4,620.35 655.56,631.19 651.4,630.77 652.23,636.6 645.98,638.69 645.98,644.94 641.81,644.1 645.14,635.77 642.65,634.52 645.98,634.1 644.31,630.77 649.31,626.6 "/>
  <polygon class="fil0" points="521.81,572.44 519.73,575.77 518.06,575.35 517.64,573.69 "/>
  <polygon class="fil0" points="518.06,578.69 517.64,579.52 517.23,578.69 517.64,578.69 "/>
  <polygon class="fil0" points="722.78,525.89 722.81,525.89 722.81,525.07 722.78,525.07 "/>
  <polygon class="fil0" points="722.8,523.36 722.81,523.36 722.81,522.03 722.8,522.03 "/>
  <polygon class="fil0" points="722.79,524.31 722.81,524.31 722.81,523.55 722.79,523.55 "/>
  <polygon class="fil0" points="641.2,629.57 641.28,629.57 641.28,629.51 641.2,629.51 "/>
  <polygon class="fil0" points="429.7,541.02 429.74,541.02 429.74,540.95 429.7,540.95 "/>
  <polygon class="fil0" points="521.65,572.39 521.67,572.39 521.67,572.35 521.65,572.35 "/>
  <polygon class="fil0" points="429.66,541.08 429.68,541.08 429.68,541.06 429.66,541.06 "/>
 </g>
</svg>
