<?xml version="1.0" encoding="UTF-8"?>
<!DOCTYPE svg PUBLIC "-//W3C//DTD SVG 1.1//EN" "http://www.w3.org/Graphics/SVG/1.1/DTD/svg11.dtd">
<!-- Creator: CorelDRAW 2020 (64-Bit) -->
<svg xmlns="http://www.w3.org/2000/svg" xml:space="preserve" width="750px" height="700px" version="1.1" style="shape-rendering:geometricPrecision; text-rendering:geometricPrecision; image-rendering:optimizeQuality; fill-rule:evenodd; clip-rule:evenodd"
viewBox="0 0 750 700"
 xmlns:xlink="http://www.w3.org/1999/xlink"
 xmlns:xodm="http://www.corel.com/coreldraw/odm/2003">
 <defs>
  <style type="text/css">
   <![CDATA[
    .fil0 {fill:#FF9500;fill-opacity:0.800000}
   ]]>
  </style>
 </defs>
 <g id="Capa_x0020_1">
  <metadata id="CorelCorpID_0Corel-Layer"/>
  <polygon class="fil0" points="547.64,527.02 495.56,522.85 485.56,507.85 480.14,504.94 484.73,501.19 480.98,495.77 485.98,498.69 485.56,493.27 488.9,494.1 489.73,490.35 486.39,491.19 485.15,485.77 479.73,484.52 485.15,479.94 487.23,484.1 493.48,484.1 495.56,474.52 488.48,472.02 496.81,472.02 495.14,467.85 498.89,469.1 500.15,464.1 504.31,463.27 499.73,459.52 499.73,458.68 505.98,459.1 501.81,452.85 504.73,452.02 502.64,445.77 502.23,444.94 500.15,445.35 498.89,444.1 503.9,444.1 505.98,449.94 507.23,447.85 507.65,452.02 510.98,447.85 512.23,447.43 510.56,453.27 515.56,452.02 522.65,457.85 516.81,448.69 526.4,452.02 530.98,456.19 527.64,456.19 526.81,457.44 532.23,458.68 534.31,462.85 532.64,455.77 533.06,455.35 534.31,456.19 535.14,456.19 531.39,453.27 537.65,452.02 538.06,449.52 535.14,445.77 535.56,444.1 530.56,444.1 519.31,441.6 515.98,436.6 526.81,442.85 538.48,443.27 535.98,446.6 541.4,453.27 541.81,441.6 550.98,459.1 558.48,451.18 562.23,452.02 560.98,445.35 569.31,448.27 568.48,452.44 570.56,452.02 570.14,454.1 571.81,454.1 572.65,447.43 569.31,445.77 575.98,445.35 571.81,438.69 580.15,437.85 581.39,448.69 583.48,444.1 587.65,444.52 585.14,436.6 591.81,442.02 588.48,437.85 594.31,435.77 588.48,433.69 591.4,429.1 577.23,431.6 592.64,425.35 591.4,422.44 588.06,424.52 589.31,415.77 585.56,415.35 582.65,420.77 577.23,421.6 580.56,418.69 576.4,417.85 585.98,413.27 603.06,407.85 609.73,415.35 638.06,424.1 637.23,427.44 646.4,434.94 646.4,436.18 645.56,437.02 644.31,437.02 643.48,438.69 643.9,440.35 642.65,439.93 643.06,445.77 643.48,445.77 643.9,445.77 644.31,449.1 640.98,448.27 639.73,449.94 642.23,451.18 642.23,456.19 639.31,452.85 636.81,452.44 639.31,454.1 639.73,456.19 633.06,455.35 633.06,458.27 631.81,458.27 632.65,455.77 630.56,457.02 631.4,461.19 620.98,473.68 605.98,472.85 601.81,476.19 603.48,477.02 602.23,480.77 597.65,480.35 598.48,482.85 597.23,484.1 598.48,484.52 597.23,486.19 598.48,487.44 598.48,488.27 597.65,490.77 596.39,490.77 598.48,494.94 597.23,495.35 594.73,494.52 595.15,497.85 591.81,497.44 593.9,499.1 590.15,500.35 589.31,499.52 590.56,502.02 588.06,502.44 587.65,500.77 588.48,504.52 583.9,506.19 588.06,505.77 587.65,514.1 594.31,516.6 593.06,517.85 590.15,517.44 590.15,519.52 593.9,522.44 593.06,524.94 589.31,526.19 590.15,526.6 590.98,528.27 588.06,529.1 587.65,527.85 586.4,527.85 589.31,531.19 585.98,532.02 555.14,522.85 "/>
  <polygon class="fil0" points="525.14,437.44 527.64,437.02 525.56,429.1 529.73,427.85 526.81,424.52 530.56,426.19 536.39,419.52 532.64,417.02 538.9,416.19 540.98,423.69 538.9,421.6 532.23,427.02 538.9,431.19 536.81,438.27 531.81,430.35 529.31,432.85 531.81,438.27 "/>
  <polygon class="fil0" points="540.56,417.43 541.81,414.52 539.73,409.52 544.73,413.68 543.06,418.27 "/>
  <polygon class="fil0" points="546.4,417.02 546.4,419.1 552.65,418.27 553.9,417.43 554.31,417.43 550.56,419.94 548.06,419.94 545.98,419.1 "/>
  <polygon class="fil0" points="515.56,436.18 511.81,436.6 510.98,432.85 513.48,433.27 "/>
  <polygon class="fil0" points="546.4,422.85 552.23,420.77 554.31,421.6 550.98,422.85 "/>
  <polygon class="fil0" points="519.31,434.52 518.06,433.27 518.06,430.77 521.39,432.02 "/>
  <polygon class="fil0" points="543.06,438.69 545.56,440.35 545.56,440.77 544.73,441.19 "/>
  <polygon class="fil0" points="546.4,427.02 548.06,427.44 548.06,429.52 545.98,429.52 "/>
  <polygon class="fil0" points="543.48,409.52 543.48,406.6 544.73,406.6 544.73,410.35 "/>
  <polygon class="fil0" points="515.56,433.27 515.98,432.43 517.23,434.1 516.39,434.1 "/>
  <polygon class="fil0" points="550.98,423.69 551.39,424.52 550.56,425.35 550.15,424.52 "/>
  <polygon class="fil0" points="547.23,438.69 548.06,437.44 548.48,437.44 548.06,438.69 "/>
  <polygon class="fil0" points="484.31,509.94 483.89,509.1 484.31,509.1 "/>
  <polygon class="fil0" points="483.09,508.67 483.17,508.67 483.17,508.61 483.09,508.61 "/>
  <polygon class="fil0" points="560.83,445.31 560.94,445.31 560.94,445.28 560.83,445.28 "/>
  <polygon class="fil0" points="515.45,436.26 515.48,436.26 515.48,436.21 515.45,436.21 "/>
  <polygon class="fil0" points="484.48,509.95 484.49,509.95 484.49,509.94 484.48,509.94 "/>
  <polygon class="fil0" points="548.67,425.56 548.68,425.56 548.68,425.56 548.67,425.56 "/>
 </g>
</svg>
