<?xml version="1.0" encoding="UTF-8"?>
<!DOCTYPE svg PUBLIC "-//W3C//DTD SVG 1.1//EN" "http://www.w3.org/Graphics/SVG/1.1/DTD/svg11.dtd">
<!-- Creator: CorelDRAW 2020 (64-Bit) -->
<svg xmlns="http://www.w3.org/2000/svg" xml:space="preserve" width="750px" height="700px" version="1.1" style="shape-rendering:geometricPrecision; text-rendering:geometricPrecision; image-rendering:optimizeQuality; fill-rule:evenodd; clip-rule:evenodd"
viewBox="0 0 750 700"
 xmlns:xlink="http://www.w3.org/1999/xlink"
 xmlns:xodm="http://www.corel.com/coreldraw/odm/2003">
 <defs>
  <style type="text/css">
   <![CDATA[
    .fil0 {fill:#FF9500;fill-opacity:0.800000}
   ]]>
  </style>
 </defs>
 <g id="Capa_x0020_1">
  <metadata id="CorelCorpID_0Corel-Layer"/>
  <polygon class="fil0" points="651.79,638.62 645.89,647.36 642.42,644.51 639.45,647.04 641.41,636.79 644.2,636.35 641.03,634.19 644.51,633.81 642.99,631.09 647.93,626.03 642.36,626.72 634.89,641.73 638.18,640.21 636.66,647.87 630.65,644.32 627.8,648.44 632.74,649.26 630.65,654.77 633.75,652.55 634.64,652.55 631.92,663.63 629.83,662.8 611.36,672.74 605.43,670.08 593.81,653.69 567.54,639.51 557.41,651.22 556.59,665.14 546.34,668.94 512.09,660.65 507.28,652.23 487.3,637.51 479.3,639.76 479.41,643.92 457.29,647.04 450.78,645.06 450.19,638.44 438.98,637.3 438.79,631.34 433.54,632.61 435.5,630.08 432.78,629.26 440.57,626.53 436.39,624.95 434.3,618.24 438.92,619.32 440.76,614.51 436.51,608.69 427.4,611.61 430.63,608.24 425.91,607.04 433.6,606.41 430.18,600.46 436.33,599.19 434.68,596.15 429.99,598.37 427.34,592.23 437.21,590.77 434.11,589 435.63,583.68 433.67,587.42 431.96,584.38 429.05,588.49 426.13,587.1 425.44,590.52 424.68,586.02 427.78,583.94 423.92,585.83 420.44,583.18 424.36,579.57 427.65,581.15 426.89,577.29 422.46,576.9 425.44,575.45 422.21,575.2 422.08,569.31 429.55,571.09 431.64,566.59 430.88,563.81 426.83,561.46 426.58,562.29 425,563.24 422.21,563.36 420.56,558.54 428.73,560.01 426.58,555.33 430.18,557.54 433.41,554.82 427.4,550.7 433.67,549.18 431.77,539.49 437.65,541.02 437.46,537.98 442.78,536.02 447.09,522.52 459.68,527.6 459.49,523.93 456.2,524.5 455.44,524.12 457.09,520.7 453.1,521.78 457.78,515.83 467.85,527.09 474.62,520.32 467.4,521.65 473.04,517.85 463.67,517.73 463.16,512.85 466.83,514.31 468.23,511.59 465.76,509.37 470.32,508.23 476.14,515 481.33,513.48 467.63,504.94 473.92,504.05 475.38,500.64 477.09,505.95 482.22,507.66 480.32,495.19 485.82,497.66 485.63,488.04 479.51,484.56 485.13,479.56 487.53,483.54 491.33,482.03 494.69,473.8 487.95,472.28 492.6,469.43 496.46,472.03 494.5,468.1 499.75,468.1 502.47,461.9 499.24,460.06 499.78,457.97 502.85,460.06 504.75,455.63 499.94,449.49 501.9,445.25 498.29,445.5 498.67,444.3 496.88,443.22 496.88,442.46 500,444.43 501.14,441.71 502.45,441.64 507.85,451.52 510.38,447.4 511.71,447.53 512.28,446.64 512.72,446.77 514.75,448.86 511.46,452.91 515.89,451.64 519.18,456.01 515.76,447.97 528.36,452.66 531.4,456.14 528.8,458.42 534.06,461.58 531.21,453.12 537.65,452.15 535.9,444.91 518.74,441.48 511.57,436.31 510.8,432.08 517.79,434.55 517.6,430.5 521.33,428.92 520.57,436.01 525.64,436.89 524.44,428.16 529.25,427.72 525.7,423.13 530.26,424.24 530.58,425.88 531.59,421.01 535.89,419.49 531.6,417.84 540.51,416.96 539.18,410.3 543.23,406.74 546.59,412.4 544.63,418.03 547.1,415.31 547.03,418.29 555.14,416.51 551.46,420.18 558.55,422.27 552.73,421.96 546.78,426.58 548.87,429.62 545.07,427.97 542.54,431.39 543.05,438.48 546.46,438.79 549.06,436.58 549.82,437.02 543.87,442.91 550.07,452.09 549.94,458.99 562.6,450.88 558.62,447.84 560.26,445.08 569.57,447.97 570.14,452.09 572.54,447.66 568.93,445.12 575.77,445.38 570.77,441.45 575.45,442.27 571.53,438.6 571.64,437.02 580.83,437.97 578.68,440.57 581.47,447.15 586.85,444.49 583.55,440.06 586.02,440.25 585.08,436.01 588.62,439.05 592.99,436.33 587.86,433.98 590.9,429.93 582.29,433.41 575.83,432.02 583.81,424.61 585.64,427.59 591.21,425.82 590.84,422.72 587.16,424.55 589.38,415.88 578.68,423.16 574.95,422.21 579.69,419.74 576.49,417.93 601.11,408.03 609.63,415.18 637.7,423.68 637.29,427.61 646.38,434.43 657.87,451.01 668.94,444.62 668.82,435.81 677.94,423.16 723.51,423.19 724.9,564.16 719.33,581.4 722.18,583.6 708.41,607.73 686.53,630.2 666.16,622.93 673.82,619.13 670.15,617.17 673.75,615.52 670.84,612.48 673,610.27 669.64,607.61 675.78,601.09 677.36,589.76 676.22,586.66 674.51,595.52 666.85,605.65 668.18,610.71 663.56,613.5 "/>
  <polygon class="fil0" points="457.12,515.51 457.85,513.41 460.31,512.34 459.81,513.87 "/>
  <polygon class="fil0" points="511.04,431.51 511.4,430.69 511.78,430.69 511.9,431.01 "/>
  <polygon class="fil0" points="560.07,445.01 560.22,445.06 560.07,445.06 "/>
  <polygon class="fil0" points="457.08,515.64 457.08,515.62 457.09,515.61 457.09,515.64 "/>
  <polygon class="fil0" points="502.41,441.57 502.41,441.58 502.41,441.58 "/>
 </g>
</svg>
