<?xml version="1.0" encoding="UTF-8"?>
<!DOCTYPE svg PUBLIC "-//W3C//DTD SVG 1.1//EN" "http://www.w3.org/Graphics/SVG/1.1/DTD/svg11.dtd">
<!-- Creator: CorelDRAW 2020 (64-Bit) -->
<svg xmlns="http://www.w3.org/2000/svg" xml:space="preserve" width="750px" height="700px" version="1.1" style="shape-rendering:geometricPrecision; text-rendering:geometricPrecision; image-rendering:optimizeQuality; fill-rule:evenodd; clip-rule:evenodd"
viewBox="0 0 750 700"
 xmlns:xlink="http://www.w3.org/1999/xlink"
 xmlns:xodm="http://www.corel.com/coreldraw/odm/2003">
 <defs>
  <style type="text/css">
   <![CDATA[
    .fil0 {fill:#FF9500;fill-opacity:0.800000}
   ]]>
  </style>
 </defs>
 <g id="Capa_x0020_1">
  <metadata id="CorelCorpID_0Corel-Layer"/>
  <polygon class="fil0" points="664.84,624.88 655.71,638.75 649.26,639.45 645.38,648.37 636.98,648.75 631.66,664.12 612.17,672.74 605.43,670.08 593.81,653.69 567.54,639.51 557.41,651.22 556.59,665.14 546.34,668.94 512.09,660.65 507.28,652.23 487.3,637.51 479.3,639.76 479.41,643.92 452.51,646.03 449.62,638.18 429.36,636.87 434.18,615.38 425.19,609.55 425.64,600.78 417.33,587.08 422.5,576.98 419.86,559.84 431.3,545.94 431.77,539.49 436.8,537.09 437.04,530.16 441.34,525.37 455.69,519.63 457.85,513.41 463.35,511.02 467.89,504.56 481.04,494.08 479.49,484.42 487.8,479.4 487.8,472.44 496.49,467.42 496.11,461.04 499.78,458.72 496.88,446.55 499.2,440.17 527.85,454.81 527.09,452.22 537.65,452.15 535.9,444.91 517.62,441.2 511.57,436.31 510.79,432.06 511.9,431.01 512.33,428.6 520.45,424.52 523.55,426.77 542.29,406.94 547.31,406.75 562.38,421.43 550.6,444.43 554.46,452.93 560.07,445.01 566.63,447.32 575.33,431.29 576.49,417.93 603.05,407.93 609.63,415.18 637.7,423.68 637.23,427.53 645.84,433.97 646.41,436.01 643.69,440.25 642.55,440.06 643.06,445.82 643.56,445.69 643.88,445.88 644.32,449.11 641.09,448.29 639.76,449.81 642.36,451.39 642.04,456.26 637.68,452.4 636.66,453.48 638.75,453.67 639.13,453.92 639.83,455.06 638.88,456.9 637.61,457.53 633.43,455.19 634.32,456.77 633.12,458.16 631.66,458.23 632.8,455.69 630.71,456.9 631.22,461.14 624.95,466.2 619.57,474.3 611.28,475.13 605.96,472.72 601.91,476.01 603.68,476.84 602.42,480.57 600.58,481.33 597.8,480.19 597.1,482.09 597.8,481.71 598.56,481.84 598.68,488.36 596.85,494.69 598.18,494.62 598.43,495.13 597.1,495.38 594.76,494.69 595.14,498.04 591.97,497.28 593.81,499.12 590.14,500.32 589.19,499.5 590.71,501.97 588.24,502.53 587.54,500.95 588.37,504.43 584.06,506.02 587.92,505.7 587.54,513.93 594.51,516.46 593.18,517.79 590.26,517.28 590.26,519.69 594,522.6 592.86,524.82 589.57,525.39 590.9,527.92 590.33,528.68 588.18,528.93 587.48,527.73 586.59,527.6 587.35,529.75 586.15,529.94 587.04,530.01 587.23,530.58 587.86,530.51 587.86,531.27 588.56,530.7 589.44,530.96 589.44,531.21 585.58,532.03 584.38,529.82 583.55,531.91 581.97,532.73 581.97,532.03 581.72,531.91 579.76,533.74 580.52,533.68 579.95,534.69 581.34,533.36 590.01,537.6 589.44,538.93 587.99,538.23 587.86,538.61 589.19,538.99 588.75,539.63 591.72,539.88 589.51,541.72 591.4,541.91 591.97,545.32 591.34,546.15 590.84,546.08 590.65,546.59 589.89,546.78 589.63,547.16 591.78,546.27 592.23,546.34 592.29,546.84 589.95,548.17 596.03,548.49 595.83,554.95 596.91,549.69 598.94,547.67 599.57,547.98 598.56,549.12 598.49,550.64 600.27,547.86 601.91,549.06 607.23,538.93 608.31,539.06 608.87,526.97 607.67,524.88 612.48,513.42 619.83,502.91 624,503.67 621.09,500.19 630.21,491.52 629.51,486.2 634.57,485.06 632.74,482.28 637.93,478.61 636.98,473.61 641.47,475.13 643.5,469.62 645.9,472.59 661.03,464.75 669.7,468.67 660.34,474.62 658.06,479.24 659.45,477.97 663.25,478.55 664.83,474.56 670.46,476.9 674.39,473.86 680.4,476.58 675.34,470.76 678.19,464.24 682.81,462.34 688.38,462.28 690.34,467.97 696.16,466.58 692.87,460.7 698.82,460 691.98,458.16 697.62,453.67 698.95,455.57 702.81,455.06 706.8,458.29 707.37,459.18 707.05,460.63 709.33,462.47 711.04,466.83 711.92,466.77 714.2,469.87 714.08,470.51 715.97,461.83 717.11,461.83 719.71,466.9 717.75,475.7 719.14,476.27 723.06,483.93 724.9,563.31 719.33,581.4 722.18,583.6 715.42,598.11 693.58,625.65 686.53,630.2 "/>
  <polygon class="fil0" points="526.97,452.19 527.07,452.21 526.97,452.21 "/>
  <polygon class="fil0" points="511.37,430.76 511.4,430.7 511.4,430.76 "/>
 </g>
</svg>
