<?xml version="1.0" encoding="UTF-8"?>
<!DOCTYPE svg PUBLIC "-//W3C//DTD SVG 1.1//EN" "http://www.w3.org/Graphics/SVG/1.1/DTD/svg11.dtd">
<!-- Creator: CorelDRAW 2020 (64-Bit) -->
<svg xmlns="http://www.w3.org/2000/svg" xml:space="preserve" width="750px" height="700px" version="1.1" style="shape-rendering:geometricPrecision; text-rendering:geometricPrecision; image-rendering:optimizeQuality; fill-rule:evenodd; clip-rule:evenodd"
viewBox="0 0 750 700"
 xmlns:xlink="http://www.w3.org/1999/xlink"
 xmlns:xodm="http://www.corel.com/coreldraw/odm/2003">
 <defs>
  <style type="text/css">
   <![CDATA[
    .fil0 {fill:#FF9500;fill-opacity:0.800000}
   ]]>
  </style>
 </defs>
 <g id="Capa_x0020_1">
  <metadata id="CorelCorpID_0Corel-Layer"/>
  <polygon class="fil0" points="603.48,666.6 593.9,653.69 567.65,639.52 557.23,651.19 556.4,664.94 546.4,669.1 512.23,660.77 507.23,652.44 487.23,637.44 479.73,639.52 478.06,643.69 476.39,642.44 469.31,644.94 462.23,644.1 466.81,638.27 464.31,637.44 466.4,636.19 460.56,634.52 467.23,632.02 462.23,632.02 462.23,616.19 469.31,604.52 466.4,594.94 469.31,592.85 469.31,587.44 461.39,573.27 471.39,577.02 482.64,572.85 488.9,577.85 491.39,574.1 489.31,574.1 488.9,572.02 493.06,571.19 490.14,569.94 489.73,569.1 496.4,569.94 491.81,567.44 494.73,563.69 501.39,572.02 499.31,576.6 503.06,577.02 499.73,577.85 500.56,582.02 503.06,578.69 505.98,583.69 501.81,583.69 503.06,587.02 513.06,591.6 517.64,602.44 515.56,594.94 523.48,594.52 520.14,593.69 524.73,589.94 521.81,580.35 529.73,582.44 523.48,575.35 528.06,577.02 529.73,569.1 525.14,568.69 530.98,564.1 535.14,565.35 534.73,562.02 527.64,562.44 534.31,559.52 534.31,557.02 528.89,557.85 534.31,554.52 533.48,549.94 522.23,558.69 525.14,556.19 522.65,552.85 514.73,552.02 508.48,546.19 510.56,542.85 508.06,542.44 509.73,541.19 511.4,541.19 512.64,540.77 512.64,540.35 509.73,539.94 506.81,542.44 498.89,554.52 483.48,553.69 480.14,552.02 499.73,552.02 496.4,549.1 501.81,548.69 501.39,544.94 503.9,541.19 503.06,541.6 500.15,541.19 505.14,539.94 501.81,535.35 505.56,534.1 500.98,532.44 498.48,528.69 487.23,530.35 502.23,524.52 500.56,520.77 504.31,522.85 503.48,517.85 508.89,517.44 499.73,512.85 496.81,514.52 497.64,512.02 494.31,514.1 496.4,508.69 494.31,509.52 492.23,506.19 490.14,510.77 486.39,512.44 489.31,500.77 492.23,504.1 495.14,501.6 499.73,504.94 498.89,502.44 493.48,498.27 492.65,497.44 493.06,496.6 500.56,500.77 501.39,505.77 504.73,503.69 505.98,506.6 508.48,502.02 497.64,497.85 492.65,490.35 502.23,497.02 505.14,497.02 499.31,489.1 502.23,485.35 503.9,490.77 505.56,488.27 511.81,490.77 513.48,494.1 513.48,496.6 510.14,498.27 515.15,497.02 516.39,502.02 513.06,506.6 518.06,512.02 518.9,506.6 528.89,500.77 522.23,499.1 522.23,494.52 517.23,499.1 520.98,493.69 517.23,489.94 513.89,491.6 513.48,489.94 511.4,489.52 508.48,487.02 507.65,486.19 508.06,485.77 512.23,489.1 518.48,487.44 520.14,491.6 523.06,487.02 521.81,492.02 525.98,494.1 532.23,485.35 534.31,491.6 532.64,492.02 533.06,492.85 531.81,493.69 530.98,495.77 531.81,496.19 543.89,491.19 549.31,483.69 539.31,480.35 535.56,484.93 531.39,484.1 527.23,480.35 527.23,479.94 530.56,479.1 530.56,478.69 525.98,477.02 535.56,468.69 529.31,469.1 528.06,465.77 512.64,474.1 512.23,477.02 515.98,476.19 515.98,477.85 512.64,478.27 514.31,478.69 514.31,479.94 515.15,480.77 515.15,481.6 511.4,477.43 508.89,480.35 510.56,471.6 503.9,473.68 509.31,470.77 507.65,468.27 517.64,468.69 511.81,465.77 511.4,464.1 518.48,467.44 525.14,464.94 510.56,458.68 510.14,457.02 523.89,461.19 525.14,454.52 525.56,462.85 530.15,461.19 531.81,465.77 539.31,465.35 540.56,461.6 534.73,457.85 537.65,458.68 540.14,457.85 534.31,453.69 539.31,452.85 537.23,441.19 533.48,440.35 530.15,442.02 525.98,441.19 535.98,439.52 534.73,437.02 538.06,427.85 536.81,439.1 545.15,456.6 543.06,461.6 550.56,461.6 546.81,464.52 548.9,468.69 556.81,467.85 554.31,464.52 560.56,464.1 560.15,459.1 563.9,462.43 563.06,454.93 565.15,453.69 568.48,459.94 570.14,455.77 574.73,457.44 574.73,452.85 579.31,455.35 574.73,449.1 578.48,444.52 578.48,449.94 583.48,452.44 584.73,446.6 588.06,449.94 590.98,447.43 588.89,443.27 593.06,445.35 594.31,439.93 596.81,441.19 599.73,435.35 593.06,427.85 600.14,431.6 594.73,424.52 598.48,417.43 595.56,419.1 594.73,418.27 600.56,414.1 594.31,415.35 597.23,411.6 590.56,414.1 590.98,411.6 600.98,407.85 609.73,415.35 637.64,423.69 637.23,427.44 646.4,434.52 658.06,451.18 668.9,444.52 668.9,435.77 678.06,423.27 723.48,423.27 724.73,564.1 718.06,593.27 693.48,625.77 686.4,630.35 679.31,629.52 675.98,628.69 674.31,627.02 677.65,628.69 680.56,621.6 685.56,623.69 688.48,619.52 680.15,618.27 685.98,616.6 685.15,606.6 680.98,612.02 681.4,608.27 678.06,607.85 680.98,607.44 681.81,605.35 680.15,604.94 680.15,603.69 683.06,596.6 681.4,591.19 684.31,587.85 681.81,585.77 685.98,581.19 684.73,572.85 687.23,572.85 686.81,566.19 689.73,564.94 687.23,560.77 690.15,559.94 691.4,554.1 688.06,555.77 688.48,552.44 691.4,547.85 683.9,550.35 679.31,565.77 668.06,577.85 667.23,574.52 666.4,577.44 662.65,577.85 665.15,573.69 662.23,571.19 665.98,569.1 661.4,561.6 665.98,554.1 662.23,552.02 665.98,551.19 663.9,549.52 666.4,543.27 663.48,542.02 666.4,541.6 663.9,536.6 666.81,535.35 662.65,532.85 658.9,514.1 656.39,510.77 653.9,512.44 656.81,517.02 651.81,524.1 652.64,529.1 648.06,527.85 649.31,531.19 646.4,531.6 649.31,534.52 645.56,534.94 647.65,537.85 644.31,539.94 646.4,544.94 641.39,542.44 640.98,551.6 638.06,552.85 645.98,552.85 635.15,558.69 640.56,560.77 633.89,564.52 633.06,569.52 636.81,570.77 632.65,573.69 636.4,576.19 631.81,579.1 633.89,587.85 637.23,587.44 635.56,592.02 643.48,603.69 642.23,606.6 650.15,602.44 648.06,608.27 642.65,609.1 646.4,623.27 641.39,622.44 639.73,609.94 631.81,613.27 633.89,614.1 634.73,619.52 630.14,622.44 632.23,623.27 627.65,634.94 631.81,635.77 631.81,638.27 625.56,638.69 623.06,642.85 625.98,644.52 625.56,650.35 622.23,653.27 629.73,660.77 620.98,658.69 622.64,666.6 617.65,662.44 605.98,668.27 606.4,669.94 608.9,670.35 610.98,672.02 605.98,670.35 "/>
  <polygon class="fil0" points="491.81,557.44 492.23,559.1 490.14,559.94 491.39,557.85 "/>
  <polygon class="fil0" points="488.9,557.02 489.73,557.02 488.48,557.44 "/>
  <polygon class="fil0" points="493.89,562.02 493.48,562.44 493.48,562.02 "/>
  <polygon class="fil0" points="493.48,560.35 493.48,560.77 493.06,560.77 493.06,560.35 "/>
 </g>
</svg>
