<?xml version="1.0" encoding="UTF-8"?>
<!DOCTYPE svg PUBLIC "-//W3C//DTD SVG 1.1//EN" "http://www.w3.org/Graphics/SVG/1.1/DTD/svg11.dtd">
<!-- Creator: CorelDRAW 2020 (64-Bit) -->
<svg xmlns="http://www.w3.org/2000/svg" xml:space="preserve" width="750px" height="700px" version="1.1" style="shape-rendering:geometricPrecision; text-rendering:geometricPrecision; image-rendering:optimizeQuality; fill-rule:evenodd; clip-rule:evenodd"
viewBox="0 0 750 700"
 xmlns:xlink="http://www.w3.org/1999/xlink"
 xmlns:xodm="http://www.corel.com/coreldraw/odm/2003">
 <defs>
  <style type="text/css">
   <![CDATA[
    .fil0 {fill:#FF9500;fill-opacity:0.800000}
   ]]>
  </style>
 </defs>
 <g id="Capa_x0020_1">
  <metadata id="CorelCorpID_0Corel-Layer"/>
  <polygon class="fil0" points="524.2,363.22 521.42,380.14 517.09,378.98 513.15,385.14 507.06,382.14 504.66,386.34 507.11,388.79 491.99,397.93 473.14,400.89 464.86,392.63 468.29,378.86 466.61,357.89 461.5,348.51 448.23,343.34 440.19,356.18 436.81,384.17 435.44,381.95 434.05,381.95 439.24,397.67 427.44,395.56 381.88,357.59 341.06,273.82 324.92,184.59 316.77,61.62 320.51,62.06 347.83,94.33 361.08,101.94 370.86,99.35 381.76,101.99 397.97,98.69 399.93,94.07 420.88,98.96 488.86,96.73 487.38,110.02 482.34,111.48 476.83,140.79 479.6,150.33 471.26,154.59 461.36,184.15 452.72,195.41 451.52,214.53 469.53,224.98 461.9,242.06 462.66,251.56 468.92,257.29 468.86,280.55 491.27,300.87 515.95,315.4 515.26,335.81 521.31,340.69 520.75,342.81 516.71,350.04 514.24,351.25 515.06,355.65 513.74,357.96 522.25,356.44 "/>
  <polygon class="fil0" points="512.35,385.14 512.16,385.14 512.16,385.12 512.35,385.12 "/>
 </g>
</svg>
