<?xml version="1.0" encoding="UTF-8"?>
<!DOCTYPE svg PUBLIC "-//W3C//DTD SVG 1.1//EN" "http://www.w3.org/Graphics/SVG/1.1/DTD/svg11.dtd">
<!-- Creator: CorelDRAW 2020 (64-Bit) -->
<svg xmlns="http://www.w3.org/2000/svg" xml:space="preserve" width="750px" height="700px" version="1.1" style="shape-rendering:geometricPrecision; text-rendering:geometricPrecision; image-rendering:optimizeQuality; fill-rule:evenodd; clip-rule:evenodd"
viewBox="0 0 750 700"
 xmlns:xlink="http://www.w3.org/1999/xlink"
 xmlns:xodm="http://www.corel.com/coreldraw/odm/2003">
 <defs>
  <style type="text/css">
   <![CDATA[
    .fil0 {fill:#FF9500;fill-opacity:0.800000}
   ]]>
  </style>
 </defs>
 <g id="Capa_x0020_1">
  <metadata id="CorelCorpID_0Corel-Layer"/>
  <path class="fil0" d="M325.14 534.1l-6.25 0 8.75 -7.5 0.84 -4.58 -5 -1.67 4.16 -11.66 -7.08 7.91 -1.67 -7.5 -9.16 9.59 -2.92 -1.25 0.42 6.66 -7.5 -9.58 6.66 -93.34 -2.5 1.26 -27.08 -19.17 -12.5 -3.75 -11.25 16.25 -5 0.42 -6.25 17.91 -2.92 1.25 -0.41 -5 -1.25 0 0.41 5.42 -6.66 0.41 -2.5 19.59 -9.17 7.92 -2.08 12.5 5.41 17.08 -4.58 0 -0.83 5.83 5.41 9.17 -1.25 6.67 -2.5 2.08 -1.66 -0.42 -0.42 0.84 3.33 1.25 -3.75 0.41 3.34 1.25 0 1.25 -4.59 0.42 3.75 4.17 -2.91 -1.67 -1.25 0.83 7.08 5.42 -7.92 20 -3.33 1.67 2.08 -6.25 -1.66 0 -0.84 -0.42 2.92 -0.42 2.08 -10.41 -0.41 -2.5 -12.09 2.08 -0.41 1.25 1.25 1.67 -0.42 0 -2.5 -1.25 3.33 -4.17 -2.5 -2.92 -3.33 3.75 -9.17 -2.08 -1.66 5 -2.92 3.75 3.33 -9.58 -5.41 4.16 -2.5 -2.08 2.5 -2.5 -4.17 -0.83 4.17 0 -0.42 -2.92 -7.92 1.25 4.17 -2.08 -2.08 -1.25 0.41 -0.84 0.84 1.25 4.58 -0.83 -1.67 -3.33 -6.25 0 2.92 -1.67 -2.92 -3.75 5.42 1.67 -0.42 -1.67 -10.41 -5.83 2.08 -3.75 -3.75 -1.67 0.42 -9.58 5 -15 -5 -0.42 0.41 -2.08 5.42 -3.34 -4.17 0 2.09 -8.75 4.16 -2.08 -3.75 0.83 -0.41 -2.5 5 -1.25 -2.09 -3.33 2.92 -5 -5.42 -1.25 6.25 -2.09 -3.33 -7.5 5.83 -0.83 -3.75 -6.67 9.59 -15.41 -0.42 -19.58 -9.58 12.91 -5 23.75 -2.92 2.92 -0.42 -3.75 -5.41 0.42 -0.42 3.75 5 1.25 -6.25 3.75 2.92 7.5 -3.75 -3.75 -2.09 14.16 2.5 1.67 5 -4.58 1.25 8.74 -2.91 0.84 2.91 4.17 -2.5 2.49 -0.83 -3.75 -2.5 0 -2.92 7.5 -4.58 1.67 0.42 7.09 -4.17 0.41 3.33 2.09 -3.75 0.83 3.75 1.25 2.92 -2.92 6.67 3.75 0.41 3.75 -8.75 8.75 -2.08 -10 -3.33 1.67 4.58 7.5 -4.58 2.5 0.41 4.58 6.25 -2.08 1.25 1.25 -5.41 2.5 2.08 2.5 -4.17 5.83 2.92 1.25 0 0.84 -4.17 -1.25 4.59 5 -5.42 -2.92 0.83 2.92 -2.91 0.41 5.83 9.17 -6.25 -2.08 -3.75 2.91 8.33 5.84 -4.16 0.41 1.66 6.67 5.42 1.25 -4.58 3.33 7.08 8.75 3.75 -1.25 -2.08 5.84 12.5 8.33 -12.09 -3.33 -18.33 -11.67 -4.17 -7.5 -12.08 1.67 -9.17 -5.84 -10 -22.5 -8.75 0 5.84 -0.83 3.33 -14.17 0.83 6.25 2.5 -0.41 -2.91 1.66 3.33 -0.41 2.92 3.75 6.66 -8.34 -7.08 -1.66 6.67 -1.67 -2.5 -5 -4.59 0 5 -2.08 -2.5 -2.92 4.59 -5.42 -5 -0.41 4.16 -1.25 -3.75 -3.75 3.34 0.83 1.25 -4.58 -3.75 -0.42 0.41 -0.42 -2.08 -0.83 0 -0.83 4.58 0.41 2.09 2.5 -1.67 2.09 3.33 0 -5.41 -7.92 2.5 -1.25 -2.09 -3.75 3.34 0 -1.67 -16.67 -5.42 -7.08 -5 12.08 -5.83 -13.33 -7.5 -8.33 -9.17 -0.42 6.67 -3.33 1.67 -6.26 -12.5 -10.41 -2.09 2.08 -1.25 -0.41 -9.16 -13.34 2.91 -4.58 -2.91 0 2.5 -1.67 -3.34 -5 -1.25 0.42 -0.83 4.58 -4.17 -5 -4.58 5 -0.42 -2.91 -2.08 -0.42 0.42 4.17 -2.92 0.83 4.58 2.5 -2.5 6.25 0 -6.67 -4.16 -1.25 4.16 -4.17 -1.25 -3.33 -1.66 0 -0.42 -1.25 6.25 -18.75 4.17 -0.83 0 -5.42 -1.67 0 0 2.09 -0.83 -0.42 0.83 -2.92 1.25 0.42 -1.25 -0.83 4.17 -12.5 7.5 -1.67 5.41 -8.75 5.84 3.33 3.75 -2.5 0.41 6.67 5 2.08 -5.83 -1.25 -1.67 7.5 1.67 2.09 2.92 -5.01 1.66 0 0.84 3.75 2.5 -3.33 0.83 0 -2.5 5.84 4.58 1.24 -0.83 5.84 -2.92 0 0.84 5.41 1.25 0 0.83 2.51 -5.42 13.75 5.42 9.16 5.42 -1.25 0.41 2.08 -1.25 1.26 2.09 8.75 8.33 5.83 -2.92 4.17 3.34 0.83 2.08 14.17 4.58 4.58 0.42 -7.08 3.75 -1.67 -5 -4.59 5 -0.83 -2.5 -10.42 2.92 6.26 1.66 1.66 -1.25 -5.83 2.09 -1.67 -1.67 -4.58 2.08 -4.17 -4.16 -27.5 2.5 -11.66 -4.17 -3.75 3.33 0.41 -0.83 -4.58 4.58 -5.42 -2.5 -2.08 3.75 -0.84 -4.16 -4.16 3.75 -1.67 2.91 4.17 1.25 -7.09 -2.91 0.84 -1.67 -5.42 2.92 -0.41 -9.59 -8.34 11.25 4.17 -1.25 2.91 3.34 1.26 -0.84 2.91 0.84 0.84 0 -3.75 2.08 -0.84 -2.5 -0.42 2.5 -0.41 -2.92 -1.25 2.5 -1.67 -2.5 -3.75 2.5 0.84 3.34 -9.59 -4.59 -0.83 -0.83 4.16 -1.25 -4.99 -1.25 2.91 -2.5 -3.75 -4.17 -0.42 0 1.26 -1.25 -0.84 -0.41 0.84 -2.09 0.41 -0.41 -0.41 5.83 -2.51 -2.92 -2.08 3.75 -0.42 -0.41 -1.25 0 -1.24 10 7.5 3.75 -1.67 -0.84 -4.59 3.34 2.09 1.25 -0.84 -3.75 -2.91 5.83 0 -5 -1.67 2.92 -3.75 -3.34 -5.83 2.92 -2.92 -8.33 -1.25 -1.25 -1.25 4.16 -1.25 -3.33 -3.75 -2.08 -7.5 8.33 10.84 1.67 -3.34 -0.42 4.17 2.92 -2.92 3.33 7.92 -2.5 9.17 2.08 -5.42 2.09 -1.25 -3.34 8.33 5 11.25 2.92 -10 13.75 -2.5 -2.08 -2.92 0.83 -1.66 2.5 5 5.42 0.83 0.41 -2.92 7.92 4.17 -3.75 -0.42 2.5 4.17 2.08 0 1.25 -0.83 1.67 0 -3.75 1.67 5 2.91 0.42 7.5 3.75 -0.42 -3.75 3.34 0 12.08 6.66 -1.25 0.84 2.5 -4.17 4.17 -2.92 -4.17 -3.75 6.67 -0.41 6.25 2.91 -2.08 -1.25 3.75 3.75 1.25 -5.41 -0.42 0.41 6.25 -2.5 -0.84 -0.41 0.84 3.33 1.67 4.58 -5.84 2.09 6.67 -7.5 2.92 -4.59 8.74 4.59 -0.83 2.5 -6.25 4.16 4.17 2.5 -3.33 1.25 0.41 -4.58 10.84 -2.92 -2.09 -4.58 3.34 -1.25 9.16 6.25 -7.92 5 -0.83 2.08 9.59 4.17 -12.51 -1.67 1.26 -1.66 -2.92 5 -3.33 -0.42 -4.17 -5.42 0 5.84 -3.75 -5.42 2.5 -1.25 -3.75 2.5 -3.33 4.58 2.08 -5 -3.75 5 0.83 -2.91 -4.17 3.75 0.84 -3.34 -4.17 3.75 1.67 -2.08 -2.92 5.42 -3.33 -1.67 -8.75 5 -6.67 0.83 0 1.67 1.67 0 -0.42 -0.83 -2.91 3.75 0.41 -1.25 -3.75 5.41 1.67 -1.25 -4.59 3.34 -2.91 2.91 1.25 2.5 -5.42 -3.75 -2.92 -0.41 -5.83 -6.67 5 -3.33 -5 -13.34 13.75 3.34 -10.41 -2.92 -3.75 -2.5 4.99 2.5 -12.49 -16.25 -1.67 -4.58 -6.67 10.83 5.83 2.5 -3.75 -4.17 -5.41 4.59 0.83 0 -5.42 2.08 1.67 0.83 -0.83 -0.41 -0.42 -0.84 -0.42 -0.41 -0.83 -0.84 -0.42 -0.83 -0.41 4.58 2.08 -1.66 -1.67 -0.42 -2.5 -0.83 -0.41 0 -0.42 10.83 9.17 0.42 3.33 7.91 -2.08 -3.75 2.08 4.59 4.17 -1.25 4.17 10 -5.84 -0.42 -7.08 2.92 -1.67 2.08 0 1.25 19.58 10.42 -4.16 5.83 1.66 8.33 -5.83 -4.58 -9.17 -5.83 -1.66 0 -8.75 -5.84 5.41 -2.91 -3.33 -3.34 2.09 0.84 -5.84 1.25 2.09 0.83 -3.34 2.92 -0.41 -3.34 -0.42 5.84 -6.25 1.66 5.41 5.84 3.75 -3.75 -4.58 6.25 2.92 6.66 -4.58 -10 12.08 2.92 2.08 0.42 -2.08 2.08 -1.67 2.08 0.84 -3.33 0.83 2.92 1.66 -2.5 4.17 5.41 1.67 0 -2.5 0.42 -0.42 0.83 2.92 -4.16 -0.42 3.33 1.67 -2.92 -0.84 0.42 2.51 2.5 2.49 1.67 -1.66 1.25 0.41 1.66 8.34 4.17 1.67 -3.75 2.08 3.75 5.83 5.83 -5.83 0.42 -5.42 12.08 -10.42 -1.66 -4.99 7.08 -3.34 -4.17 -4.58 5.84 -3.33 -6.25 -10.01 -5.84 7.92 -4.16 -2.08 -3.34 2.91 -1.66 -2.91 -5.42 3.75 1.67 -2.5 -4.17 -3.75 -4.58 2.5 7.5 -14.17 -3.75 0 2.08 -2.92 -11.25 -1.24 3.33 -0.84 0.42 -2.5 -5.83 0 2.91 -3.33 -5.83 2.08 1.67 -6.25 -4.17 2.5 -3.75 -8.33 2.92 -21.67 5 -14.58 3.75 -2.09 -3.34 -5 2.5 -6.25 -5.41 -3.75 6.66 -2.91 2.09 5 11.25 -30 12.08 -14.59 -2.08 -12.5 -4.17 7.09 3.75 -13.75 -2.5 -0.84 -3.75 -7.91 2.08 7.91 -1.66 0 -4.59 -3.75 2.09 -1.66 -2.09 -7.92 -0.41 9.17 -2.09 -0.84 -0.83 1.67 1.67 3.33 3.75 1.67 -3.75 -1.25 -0.84 2.5 -4.16 -6.25 -0.42 -10 4.17 -2.92 -3.75 -0.41 6.25 -2.09 -5.42 -1.66 3.75 -0.84 -2.92 -3.75 5.84 -2.91 -0.42 -8.34 -4.17 1.25 0.84 6.25 -8.34 7.09 -2.5 1.25 0 -7.92 -4.58 7.92 -1.67 -4.17 -1.25 7.5 2.5 0.83 -2.91 2.09 6.66 0 1.67 3.75 -5.83 -0.84 -2.09 6.25 5 4.59 2.5 -4.17 2.92 7.92 -4.17 -2.09 -5.83 2.92 4.58 2.92 -1.25 6.25 5.42 2.5 -7.92 6.66 6.67 2.5 -2.5 0 1.25 2.09 -0.42 3.33 -8.75 -5.83 1.25 7.08 -2.08 0.83 -0.83 -1.66 -2.09 0 4.17 7.5 -5.42 -4.17 3.34 5.83 -4.59 1.67 7.5 4.17 -1.66 4.16 -2.5 -1.66 -3.75 3.75 9.16 4.16 0.84 2.5 -6.25 -2.91 -3.34 4.58 5 5 -4.16 -0.42 2.5 4.17 -3.75 7.08 3.75 1.67 -3.34 0.42 0.84 3.33 -4.59 -1.67 -6.25 16.25 5.42 6.25 -7.5 -3.75 -3.33 8.75 3.33 4.59 -9.17 1.25 0.84 20.83 -7.92 -6.25 -2.92 3.75 -4.16 -0.42 6.66 -3.75 -9.16 -7.08 -10.42 5 2.08 -4.58 11.67 -3.75 -8.33 -10.84 -2.92 0 -1.67 -0.41 -0.41 -0.42 5.83 0.42 1.25 -5.42 5.83 0.83 -2.91 -4.16 6.25 6.66 5 -0.83 -2.09 -6.67 3.75 -2.08 1.25 -3.33 -5 2.5 2.92 -4.17 -3.33 0.42 -2.92 3.33 1.25 -3.33 -8.33 -2.09 3.33 -4.16 10.83 -1.67 -1.66 -5 3.75 -1.67 1.66 -7.08 2.5 5.83 4.17 0 -1.67 -2.5 4.17 -0.41 2.08 -9.17 -5 0 0.42 -3.75 -3.75 3.75 -3.75 -1.67 1.25 7.5 -4.58 -4.58 -3.75 6.25 2.08 3.33 -3.75 1.67 0.42 -2.5 -10 -2.5 1.25 -5 -0.84 1.25 -2.91 -0.42 2.91 -0.41 1.25 -2.5 -7.08 3.33 0.83 -4.58 -4.16 4.16 -5.42 -3.75 -0.42 2.09 -1.25 2.08 -0.83 0 0 -10 -5 8.75 -2.08 -9.58 -3.34 10.83 -5 0.42 3.34 -6.25 -3.75 -5.42 7.5 -0.83 3.33 -7.92 -2.08 4.58 -2.5 0.84 2.08 -7.09 -7.92 3.34 -4.58 -4.59 7.92 -0.83 -12.5 -5.42 17.91 4.17 -10 -6.67 2.5 0 7.5 1.25 3.34 5.42 -1.67 -7.92 -6.67 -2.08 7.09 -1.25 -7.5 -2.5 2.08 -0.83 10.42 2.91 5 0 -4.17 -6.66 -9.17 1.25 1.25 -7.92 11.67 7.5 2.08 -2.92 -7.08 -3.33 -1.25 -1.67 0 -0.41 12.08 5 6.67 -5 -2.92 0 -1.25 -0.84 2.92 -3.75 -2.5 -2.91 7.5 0.83 0.83 -5.42 2.92 -0.41 -9.58 -4.59 11.66 -2.08 -1.66 -3.75 -7.09 -0.83 -0.41 0 8.75 -0.42 -0.42 -6.67 27.92 -7.5 1.25 -7.91 8.33 -0.84 0.83 -23.33 11.25 -30 -2.08 -12.92 5 -2.91 18.33 7.91 0 12.09 7.09 -2.92 0.83 -3.33 -1.67 2.08 -3.75 -3.33 2.92 -2.92 1.25 2.92 7.92 0 7.5 8.33 -1.25 10.83 28.33 3.34 27.08 32.5 13.34 7.5 10 -2.5 10.83 2.5 16.25 -3.34 1.67 -4.58 21.25 5 65.83 -2.5 -6.25 5 2.5 2.5 -3.75 4.58 -5 21.67 -2.5 -10 -3.33 2.92 5 10 -1.25 2.5 -2.92 -6.25 -1.67 0.41 -1.66 7.09 3.75 2.91 -3.75 2.92 5.41 2.08 0.42 2.09 -7.5 1.66 -0.42 20 -6.66 8.75 -2.5 -0.83 3.75 2.08 0.42 0.84 -5.42 0.83 1.67 3.75 -8.76 13.75 1.67 10.42 -12.92 27.91 2.92 3.75 -2.5 0.42 -1.25 14.58 2.92 4.59 0.41 -6.25 5.84 -5.84 -3.75 -1.66 1.66 -8.34 8.34 -10 1.67 3.34 -0.42 -6.25 6.25 -3.34 -2.92 23.75 5.42 0.42 1.25 14.17 3.33 -5.42 4.58 3.34 -0.41 22.5 12.92 11.25 -3.75 1.66 1.66 2.5 -5.41 0.83 2.49 13.34 -6.66 15.83 5 -1.25 5 13.75 -2.5 3.33 2.91 -1.24 5.84 7.08 -1.25 6.25 5 -2.92 -2.09 -4.17 2.5 -4.58 7.09 -5 -3.75 0.42 -0.83 -4.17 -0.42 4.17 -7.5 2.08 -6.25 -7.08 2.92 -10.42 -4.17 -3.33 1.66 -7.5 3.34 4.16 0.41 -6.66 2.51 4.16 3.33 -1.66 -1.25 9.16 7.08 7.09 6.25 0.83 -1.67 -5.83 5.42 3.33 2.5 -2.08 0.42 -7.5 -0.84 -0.84 -2.49 -0.41 -2.51 -1.25 0 -0.42 6.26 0 5.83 5 2.08 7.09 -5.42 10.41 2.09 5.83 5 -0.41 0.83 2.5 -15.83 15.83 -2.08 -2.08 0.41 6.25 -8.75 13.75 -1.25 -9.17 -8.33 10.42 -8.75 -1.67 -7.08 9.59 0.41 4.16 5.83 1.67 -2.08 -3.33 7.5 -0.42 2.08 -6.25 3.75 0.42 2.09 8.33 2.5 -3.34 5.41 2.51 2.09 -2.92 -5 -2.08 7.08 -2.09 -3.75 -3.75 3.33 0.83 -0.83 -4.58 5 2.92 -1.66 -5.42 1.24 -1.25 4.59 1.25 -2.08 2.5 0.41 0.42 5.83 -5 -1.66 6.67 5 0.41 -1.67 -2.5 0.42 -4.58 4.16 -0.42 -3.75 -1.67 2.51 -1.66 -3.75 -4.17 3.75 0.42 2.49 2.92 2.5 -2.92 -0.83 5.83 5 -2.5 0.42 10.42 7.5 0 -4.59 -3.33 6.26 -4.59 5.83 1.25 3.75 -3.75 2.08 4.17 -4.16 6.67 4.16 0.41 0 4.17 -14.58 12.5 -8.33 -5 -3.75 -10.83 -5.42 6.25 -0.42 -0.42 -2.5 0.42 -3.33 -2.92 -2.5 4.17 12.5 4.16 -1.25 9.59 6.67 -0.42 0.41 8.33 -7.91 0 -1.67 4.17 -5.83 -1.67 -5.42 -7.08 1.67 -2.08 0.83 -0.42 -0.83 0 -2.09 1.66 -0.83 -4.58 9.16 -0.41 -6.24 -5 -5.84 2.08 2.5 0.83 -2.92 5.42 3.34 0.42 -4.58 0.41 1.66 2.92 2.5 -2.5 -2.08 2.92 -3.34 1.66 2.5 -2.5 -3.33 0.84 -2.92 -6.67 -5.83 3.75 -2.92 9.17 3.34 -0.42 -0.83 10.41 -4.17 0.84 2.08 2.08 0.42 1.25 -7.5 17.5 7.91 12.5 -9.58 -2.5 -1.25 16.25 -6.25 0.42 0 5 -8.33 4.17 -0.42 4.58 -5.42 2.92 -4.58 9.58 -10 0.83 -0.83 -5.83 -6.67 0.42 0 -4.59 -2.5 15 -14.58 11.25 0 5.42 -4.17 0.42 5 6.66 -5 4.59 -7.92 0 -7.08 -6.25 -3.33 7.08 3.33 10.42 -4.58 3.75 2.91 0.83 2.5 3.33 0 -2.5 4.59 0.84 9.58 -5.42 2.08 2.08 0.84 6.25 -5.42 7.09 1.67 7.91 -14.17 1.67 -1.67 4.58 15.84 7.92 1.66 14.17 -2.5 2.91 3.75 2.5 0 6.25 -5.41 3.75 -2.09 18.75 6.25 1.67 5.84 7.92 -7.92 -1.67 -9.58 -7.5 -1.67 -10.42 -2.08 3.75 -3.75 -3.33 1.25 -10 9.58 5.42 -0.83 -7.92 6.25 -6.67 -6.67 -3.33 2.92 -6.25 -5.42 -0.42 5.83 -8.33 -2.08 -2.08 -12.5 6.66 -1.67 -5.83 2.5 -2.08 0.84 -0.84 -0.42 -0.41 -6.67 2.5 -1.25 5.41 -8.33 -11.66 -9.17 0 4.17 -2.92 -1.67 -4.58 8.34 -14.17 0.41 -10 5.84 -3.75 -6.67 -1.25 1.67 -18.75 3.75 10.42 8.75 -3.34 -14.17 -13.75 7.92 -12.91 5.41 14.16 4.17 -4.16 -1.67 -4.17 4.17 -0.42 -9.17 -7.08 -0.41 -2.5 5.83 3.33 -3.75 -7.5 2.5 -4.17 -3.75 0 -0.83 2.92 -4.17 -7.91 1.25 -5 -8.33 6.24 0 6.67 0.83 -2.92 4.58 1.26 -3.75 4.16 1.25 4.59 -2.91 -0.84 -5.84 10.42 1.67 9.58 -4.58 10 -12.92 8.75 -4.58 7.92 -14.59 -7.08 -8.75 0.41 0 0zm168.21 -131.57l0.01 0 0 -0.01 -0.01 0 0 0.01zm-13.41 29.23l0.31 0 0 -0.46 -0.31 0 0 0.46zm-0.07 0.09l0.02 0 0 -0.02 -0.02 0 0 0.02zm-0.57 0.81l0.01 0 0 -0.01 -0.01 0 0 0.01z"/>
  <polygon class="fil0" points="485.15,421.18 484.73,422.44 484.31,423.27 484.31,421.6 "/>
  <polygon class="fil0" points="512.16,385.14 512.35,385.14 512.35,385.12 512.16,385.12 "/>
  <polygon class="fil0" points="485.95,401.69 485.97,401.69 485.97,401.64 485.95,401.64 "/>
  <polygon class="fil0" points="494.62,405.56 494.62,405.56 494.62,405.56 494.62,405.56 "/>
 </g>
</svg>
