<?xml version="1.0" encoding="UTF-8"?>
<!DOCTYPE svg PUBLIC "-//W3C//DTD SVG 1.1//EN" "http://www.w3.org/Graphics/SVG/1.1/DTD/svg11.dtd">
<!-- Creator: CorelDRAW 2020 (64-Bit) -->
<svg xmlns="http://www.w3.org/2000/svg" xml:space="preserve" width="750px" height="700px" version="1.1" style="shape-rendering:geometricPrecision; text-rendering:geometricPrecision; image-rendering:optimizeQuality; fill-rule:evenodd; clip-rule:evenodd"
viewBox="0 0 750 700"
 xmlns:xlink="http://www.w3.org/1999/xlink"
 xmlns:xodm="http://www.corel.com/coreldraw/odm/2003">
 <defs>
  <style type="text/css">
   <![CDATA[
    .fil0 {fill:#FF9500;fill-opacity:0.800000}
   ]]>
  </style>
 </defs>
 <g id="Capa_x0020_1">
  <metadata id="CorelCorpID_0Corel-Layer"/>
  <polygon class="fil0" points="664.84,624.88 655.71,638.75 649.26,639.45 645.38,648.37 636.98,648.75 631.66,664.12 612.17,672.74 605.43,670.08 593.81,653.69 567.54,639.51 557.41,651.22 556.59,665.14 546.34,668.94 512.09,660.65 507.28,652.23 487.3,637.51 479.3,639.76 479.41,643.92 459.36,647.17 450.78,645.06 449.62,638.18 429.56,637.17 433.86,612.61 425.19,609.55 426.51,602.99 420.25,595.39 419.36,586.47 409.87,584.38 413.54,579.19 418.92,580.14 414.17,574.25 399.04,570.45 416.2,567.42 410.37,560.96 413.98,557.16 418.29,558.68 415.88,554.75 420.56,551.65 416.45,548.49 421.7,544.5 418.29,540.32 412.33,542.6 413.09,539.44 408.6,538.8 402.84,542.79 398.73,542.16 405.18,537.54 398.28,533.36 407.14,535.96 412.52,535.26 413.6,531.14 419.3,532.22 420.31,525.57 414.36,522.28 419.36,508.61 413.22,506.78 416.89,501.65 412.21,500 412.59,493.04 408.98,490.38 417.97,483.99 419.74,485.63 419.99,489.24 420.56,489.75 421.26,476.52 416.64,480.19 414.42,475.06 410.75,476.71 413.22,473.54 409.49,473.23 412.14,471.58 408.92,465 418.1,473.61 423.54,472.85 424.93,469.18 420.75,468.1 422.84,462.47 428.67,451.45 435.44,446.96 433.67,437.84 438.92,436.64 448.92,412.97 442.15,445.82 426.26,478.36 428.86,499.75 434.05,494.62 436.39,497.28 431.77,503.61 432.65,513.42 428.98,515.51 437.04,533.75 441.34,525.37 455.69,519.63 457.85,513.41 481.04,494.08 479.49,484.42 487.8,479.4 487.8,472.44 496.49,467.42 496.11,461.04 499.78,458.72 496.88,446.55 499.2,440.17 525.48,451.77 537.65,452.15 535.9,444.91 517.62,441.2 510.79,432.06 512.34,428.58 523.93,424.72 542.29,406.94 547.31,406.75 551.34,413.92 562.38,421.43 561.53,425.92 559.31,424.24 558.87,427.84 553.74,427.15 547.16,432.59 555.07,431.96 549.5,444.24 552.92,453.12 558.13,451.57 560.07,445.01 566.63,447.32 572.97,434.93 577.35,434.36 573.63,433.92 576.49,417.93 601.28,408 609.63,415.18 637.7,423.68 637.29,427.61 646.38,434.43 657.87,451.01 668.94,444.62 668.82,435.81 677.94,423.16 723.51,423.19 724.9,564.16 719.33,581.4 722.18,583.6 715.42,598.11 693.58,625.65 686.53,630.2 "/>
 </g>
</svg>
