<?xml version="1.0" encoding="UTF-8"?>
<!DOCTYPE svg PUBLIC "-//W3C//DTD SVG 1.1//EN" "http://www.w3.org/Graphics/SVG/1.1/DTD/svg11.dtd">
<!-- Creator: CorelDRAW 2020 (64-Bit) -->
<svg xmlns="http://www.w3.org/2000/svg" xml:space="preserve" width="750px" height="700px" version="1.1" style="shape-rendering:geometricPrecision; text-rendering:geometricPrecision; image-rendering:optimizeQuality; fill-rule:evenodd; clip-rule:evenodd"
viewBox="0 0 750 700"
 xmlns:xlink="http://www.w3.org/1999/xlink"
 xmlns:xodm="http://www.corel.com/coreldraw/odm/2003">
 <defs>
  <style type="text/css">
   <![CDATA[
    .fil0 {fill:#FF9500;fill-opacity:0.800000}
   ]]>
  </style>
 </defs>
 <g id="Capa_x0020_1">
  <metadata id="CorelCorpID_0Corel-Layer"/>
  <polygon class="fil0" points="684.87,423.16 723.51,423.19 722.76,528.33 710.72,530.92 708.73,542.88 701.75,544.87 698.76,532.91 693.78,532.91 688.79,542.88 681.82,538.89 681.82,528.92 669.39,492.36 658.63,498.3 635.62,550.1 630.02,578.6 618.58,590.41 612.49,566.89 612.49,526.22 587.92,529.98 571.36,523.3 566.91,510.35 570.53,492.68 586.67,471.25 638.86,434.93 645.97,434.05 650.16,443.8 655.06,444.47 653.08,446.71 658.15,451.01 668.89,444.63 668.82,435.81 677.94,423.16 "/>
 </g>
</svg>
