<?xml version="1.0" encoding="UTF-8"?>
<!DOCTYPE svg PUBLIC "-//W3C//DTD SVG 1.1//EN" "http://www.w3.org/Graphics/SVG/1.1/DTD/svg11.dtd">
<!-- Creator: CorelDRAW 2020 (64-Bit) -->
<svg xmlns="http://www.w3.org/2000/svg" xml:space="preserve" width="750px" height="700px" version="1.1" style="shape-rendering:geometricPrecision; text-rendering:geometricPrecision; image-rendering:optimizeQuality; fill-rule:evenodd; clip-rule:evenodd"
viewBox="0 0 750 700"
 xmlns:xlink="http://www.w3.org/1999/xlink"
 xmlns:xodm="http://www.corel.com/coreldraw/odm/2003">
 <defs>
  <style type="text/css">
   <![CDATA[
    .fil0 {fill:#FF9500;fill-opacity:0.800000}
   ]]>
  </style>
 </defs>
 <g id="Capa_x0020_1">
  <metadata id="CorelCorpID_0Corel-Layer"/>
  <path class="fil0" d="M603.5 666.62l-9.69 -12.93 -26.27 -14.18 -10.13 11.71 -0.82 13.92 -10.25 3.8 -34.25 -8.29 -4.81 -8.42 -19.98 -14.72 -8 2.25 0.11 4.16 -19.85 3.25 -7.47 -2.97 9.43 -5.83 -11.27 -1.39 7.79 -4.12 -5.19 -0.57 3.54 -2.97 -4.24 0.51 3.73 -3.04 -3.35 0.06 1.39 -2.34 -0.82 -1.01 -6.65 4.81 3.04 2.59 -3.99 3.23 2.53 3.99 -5.63 -2.47 -0.06 -11.27 -3.55 -3.23 6.4 -5.19 -3.29 -4.05 2.08 -1.52 -6.64 -2.4 7.15 -1.46 -0.32 -2.09 0.51 -0.76 -3.48 -5.31 -1.84 1.77 -1.45 -18.36 -4.37 -3.41 -3.17 2.21 -0.31 -5.13 -3.36 -1.2 8.61 -3.1 -0.82 -4.49 2.91 -1.02 -3.35 -0.69 4.17 -3.74 -5.25 0.44 -12.49 -2.59 9.64 1.33 5.89 -3.17 2.28 2.09 -3.55 -15.63 5.19 -0.89 6.14 22.92 9.69 2.08 1.2 -4.81 2.22 0.38 -2.22 -3.22 4.75 0.76 -4.24 -1.71 6.2 -2.03 5.13 2.91 -1.97 1.27 5.64 7.78 3.35 -1.77 1.9 -9.81 -4.37 0.63 -1.58 -3.22 -1.52 2.34 -1.07 -6.9 -0.45 8.48 -5.25 -2.79 3.16 -5 -5.06 5.95 -1.27 0.51 -1.7 -0.57 4.43 -5.32 -6.08 -1.2 10.7 -2.09 -9.31 -0.82 -1.2 -2.79 7.98 0.76 1.2 -1.77 -6.58 0.89 0.5 -3.36 -5.82 -1.96 7.59 1.65 3.86 -6.14 5.38 3.41 -0.31 4.69 0.76 0.06 -0.19 -2.34 0.95 -0.44 3.92 3.35 2.66 -1.71 9.43 7.6 2.79 -3.99 10.69 -2.34 -6.52 -0.44 6.65 -5.45 -9.24 -8.23 -7.98 7.79 -9.17 -4.05 0.44 5.44 -7.41 -6.65 -8.42 -0.25 -2.59 3.23 -6.84 -0.19 4.88 -1.84 -0.95 -3.54 6.14 1.46 -1.77 -8.3 4.17 9.05 9.56 -1.07 -1.77 -4.56 4.05 -2.15 -1.27 5.25 2.35 -4.11 1.77 7.78 5.31 -0.37 8.68 -9.56 4.05 2.27 -6.14 -12.02 -4.31 6.45 -7.91 3.36 -5.25 -3.1 6.14 -0.07 2.21 -0.82 0.57 -1.77 -2.97 1.52 -11.14 -2.28 2.28 -4.56 7.34 5.19 6.08 -2.85 -11.21 -8.73 14.81 5.19 -5.06 -4.3 3.48 -0.95 -1.27 -2.54 3.99 1.08 -4.24 -5.95 3.36 2.03 3.22 -2.03 -3.03 -2.66 5.06 -1.83 -1.84 -4.31 -3.41 1.58 0.38 -3.35 -6.02 -2.09 4.12 -2.72 3.54 3.73 4.94 -0.69 -0.57 3.23 3.54 0.44 1.65 -3.48 -5 -3.8 9.94 -3.55 -6.4 -0.37 -3.86 -5.7 5.19 1.39 0.83 -3.29 0.82 4.24 3.73 -6.27 -1.89 -2.46 4.99 -3.61 -3.41 -0.83 4.81 -4.49 -5.32 -9.94 4.56 6.21 3.73 -2.73 0.76 6.46 3.42 -2.66 2.34 4.05 6.46 0.64 -4.12 -9.03 8.36 3.08 2.22 3.54 -2.54 3.73 3.36 -1.96 0.25 3.61 3.8 1.08 -2.15 -6.46 3.29 0.95 0.82 -0.51 -4.62 -3.48 4.86 -1.01 -1.44 -10.57 -13.82 0.33 -5.11 -5.46 -4.74 -0.88 -1.14 -0.83 -0.31 -1.07 8.85 -0.07 0.25 4.43 7.03 1.33 -0.51 -6.52 1.52 -2.08 5.38 7.78 2.66 -5.63 -5.69 -2.79 -1.08 -3.73 5.51 -3.61 2.78 2.72 -1.52 -7.53 4.37 1.2 0.25 -8.35 3.11 4.05 -2.16 4.49 5.89 1.14 -5.95 1.33 0.82 2.72 7.72 -2.34 -10.06 9.68 2.66 0.45 -2.79 4.55 5.95 2.98 -6.9 -0.63 7.85 13.29 0 7.34 7.22 -0.5 -4.12 5.44 7.6 -3.86 -2.28 -2.72 2.53 -3.93 3.23 2.98 -2.28 -5.07 5.45 0.32 -1.9 -5.82 6.45 2.46 -2.28 4.18 2.54 1.71 7.47 -2.97 -4.88 -1.4 2.28 -2.34 -3.23 -2.59 6.02 -0.38 -3.04 -6.84 6.9 3.92 -1.21 6.08 3.42 2.34 1.21 -6.39 4.74 1.84 -2.66 -8.17 6.65 4.43 -2.09 -4.62 5.13 -0.7 -0.19 -3.67 -5.32 -0.12 2.79 -3.61 -11.59 0.57 12.28 -3.1 -0.5 -4.94 -4.24 -1.33 3.03 -0.19 -0.19 -4.11 -6.26 -2.54 -0.38 2.22 -4.94 1.19 5.64 -4.42 4.49 0.95 10.59 -6.14 8.52 7.15 28.07 8.5 -0.41 3.93 9.09 6.82 11.49 16.58 11.07 -6.39 -0.12 -8.81 9.12 -12.65 45.57 0.03 1.39 140.97 -6.65 28.97 -9.84 14.6 -5.16 2.09 -6.33 12.82 -9.3 7.15 -17.16 -4.43 5.57 -4.84 1.08 5.64 2.34 -5.32 -3.67 -0.82 1.46 -5.26 -4.69 -7.21 3.48 -2.85 -2.78 -1.77 6.39 -4.12 -2.15 -7.6 9.24 -28.42 -2.03 -1.89 2.41 -2.6 -1.96 -4.24 -1.96 8.67 1.39 0.89 -9.24 13.61 -3.55 17.91 -6.45 1.83 -1.59 13.23 -6.39 4.43 0.25 -10.25 -2.72 -0.32 -0.31 4.05 -7.35 3.74 -0.57 10.44 5.32 -0.88 4.11 -7.66 3.36 2.85 -2.72 8.29 -2.09 -0.57 -0.82 0.13 2.59 1.58 -1.83 4.18 -3.74 -0.13 -0.82 5.82 -2.09 -0.63 -0.06 2.41 -1.21 -0.32 -1.33 2.97 -0.76 0.07 5.26 -16.08 -5.95 2.28 -1.84 -2.53 -3.54 4.43 1.58 -10.32 -3.1 -2.53 0.06 5 -5.46 3.87 0.46 8.91 4.69 0.32 0.38 4.24 -3.49 0.06 1.14 6.52 -6.26 -4.87 1.14 6.46 -4.12 2.09 4.12 2.91 -5.26 1.58 5.45 5.82 3.35 -1.83 -0.57 3.48 -9.24 1.07 4.68 4.31 -11.02 4.62 2.54 -4.24 -11.52 2.15 6.39 3.67 -2.27 0.95 -8.67 -6.12zm-98.12 -100.72l1.02 -2.47 4.11 4.11 0.1 -0.82 -6.34 -6.22 -2.84 0.35 1.95 3.19 2 1.86z"/>
  <polygon class="fil0" points="511.08,433.63 510.99,433.16 511.27,433.35 "/>
 </g>
</svg>
