<?xml version="1.0" encoding="UTF-8"?>
<!DOCTYPE svg PUBLIC "-//W3C//DTD SVG 1.1//EN" "http://www.w3.org/Graphics/SVG/1.1/DTD/svg11.dtd">
<!-- Creator: CorelDRAW 2020 (64-Bit) -->
<svg xmlns="http://www.w3.org/2000/svg" xml:space="preserve" width="750px" height="700px" version="1.1" style="shape-rendering:geometricPrecision; text-rendering:geometricPrecision; image-rendering:optimizeQuality; fill-rule:evenodd; clip-rule:evenodd"
viewBox="0 0 750 700"
 xmlns:xlink="http://www.w3.org/1999/xlink"
 xmlns:xodm="http://www.corel.com/coreldraw/odm/2003">
 <defs>
  <style type="text/css">
   <![CDATA[
    .fil0 {fill:#FF9500;fill-opacity:0.800000}
   ]]>
  </style>
 </defs>
 <g id="Capa_x0020_1">
  <metadata id="CorelCorpID_0Corel-Layer"/>
  <polygon class="fil0" points="573.49,489.89 551.65,501.6 525.77,522.2 509.21,544.6 503.56,547.73 500.16,558.52 483.35,553.94 480.15,554.65 458.8,555.07 457.72,554.88 457.4,555.07 457.34,555.07 457.09,555.07 456.07,555.07 458.42,553.55 454.87,554.19 456.26,550.26 460.12,550.07 466.39,546.78 455.82,550.26 454.87,546.59 457.78,547.67 458.73,546.21 453.23,544.63 460.12,542.16 456.39,539.82 455.31,541.91 452.02,542.41 455,540.51 450.12,541.27 451.33,539.56 457.53,536.65 461.77,540.64 465.63,534.18 466.64,537.16 471.58,536.46 469.18,532.28 460.38,531.97 460.19,534.94 454.81,533.99 451.07,538.61 452.78,534.06 448.92,537.79 450.63,534.56 446.26,534.88 446.9,531.52 450.31,533.68 448.48,528.17 451.07,533.23 454.49,532.54 450.31,525.51 460.7,529.37 456.13,518.36 461.71,521.27 463.61,530.13 472.34,529.88 469.68,524.44 477.09,523.23 477.85,532.47 478.8,531.27 483.1,531.72 483.42,528.23 490.13,526.46 489.81,523.55 495.82,523.87 489.87,513.42 486.2,520.64 478.99,523.42 477.03,520.13 470.06,520.13 474.68,517.6 470.76,515.45 468.86,517.85 465,517.16 469.49,514.31 469.37,509.62 476.33,515.95 482.47,513.67 469.3,505.13 469.87,503.24 485.95,509.75 480.76,505.19 484.56,504.37 482.91,502.03 487.22,503.1 481.96,496.58 486.46,498.99 490.64,490.38 480,484.62 485.51,480.32 488.93,485.44 493.86,484.43 493.36,487.91 496.39,485.95 492.79,480.38 496.58,478.16 496.84,482.09 500.19,477.47 496.58,477.97 495.32,473.29 493.67,473.92 493.29,472.21 490.25,471.71 489.24,471.26 489.24,471.08 496.84,472.78 496.08,468.42 500.32,470.7 501.02,464.62 506.08,461.71 501.59,460.57 506.33,459.68 504.37,456.71 507.41,455.88 503.04,453.16 505.32,452.53 502.15,444.11 507.6,452.47 511.71,448.92 512.03,455.88 515.32,453.35 523.74,458.48 517.66,448.92 525.51,451.78 530.39,455.95 526.71,457.02 528.49,459.62 531.84,458.67 534.18,463.29 532.92,455.82 536.4,456.9 537.03,456.77 532.16,453.12 537.65,452.15 536.15,446.96 543.44,452.48 540.29,444.39 541.03,430.91 547.35,459.49 554.69,459.18 559.63,451.39 562.41,453.23 561.53,445.52 569.31,448.67 568.43,452.72 572.67,454.49 573.24,447.78 570.2,445.57 575.71,446.96 574.44,438.1 579.12,438.35 581.4,448.98 584,444.24 587.73,444.68 585.52,437.08 592.04,442.34 589.38,438.16 595.27,435.82 589.32,433.86 591.47,428.73 579.38,431.2 581.97,427.91 592.86,425.5 591.59,422.08 588.62,423.1 591.97,420.56 589.57,415.18 585.77,414.61 585.9,416.96 579.69,420.75 580.71,417.97 579.57,418.48 577.67,417.78 586.03,413.22 603.05,407.93 609.63,415.18 636.66,425.56 639.83,431.64 634.83,429.24 632.29,430.82 636.22,430.37 639.51,433.41 633.81,432.46 634.76,434.87 631.73,433.79 629.45,435.75 636.16,437.59 635.08,442.4 629.32,440.57 628.5,444.74 626.79,440.06 625.52,440.31 629.76,449.49 623.75,444.17 625.02,450.25 619.7,450.38 622.93,456.96 620.2,456.07 621.85,458.1 618.12,458.99 620.59,460.82 614.7,463.8 615.58,466.27 613.43,465.06 612.29,465.44 615.01,469.3 606.15,470.25 602.35,460.19 595.33,461.14 582.92,470 574.12,483.42 568.36,482.47 574.69,486.9 "/>
 </g>
</svg>
