<?xml version="1.0" encoding="UTF-8"?>
<!DOCTYPE svg PUBLIC "-//W3C//DTD SVG 1.1//EN" "http://www.w3.org/Graphics/SVG/1.1/DTD/svg11.dtd">
<!-- Creator: CorelDRAW 2020 (64-Bit) -->
<svg xmlns="http://www.w3.org/2000/svg" xml:space="preserve" width="750px" height="700px" version="1.1" style="shape-rendering:geometricPrecision; text-rendering:geometricPrecision; image-rendering:optimizeQuality; fill-rule:evenodd; clip-rule:evenodd"
viewBox="0 0 750 700"
 xmlns:xlink="http://www.w3.org/1999/xlink"
 xmlns:xodm="http://www.corel.com/coreldraw/odm/2003">
 <defs>
  <style type="text/css">
   <![CDATA[
    .fil0 {fill:#FF9500;fill-opacity:0.800000}
   ]]>
  </style>
 </defs>
 <g id="Capa_x0020_1">
  <metadata id="CorelCorpID_0Corel-Layer"/>
  <polygon class="fil0" points="627.65,665.77 618.06,669.52 620.15,665.35 616.4,663.69 613.06,665.77 617.65,666.19 616.81,667.85 606.81,668.69 613.06,672.44 607.23,671.19 593.9,653.69 567.23,639.52 557.23,651.19 554.73,667.44 540.56,668.69 512.23,660.77 507.23,652.44 487.23,637.44 479.31,639.94 479.31,644.1 457.23,646.19 453.06,643.69 455.56,640.77 460.56,642.85 458.9,640.77 462.65,637.85 451.81,636.6 460.14,633.27 459.31,630.77 454.31,631.6 457.64,628.69 453.89,629.1 456.81,626.19 452.64,622.02 446.39,625.77 447.65,630.77 444.73,634.1 442.64,620.77 446.39,614.52 444.31,609.94 449.31,610.35 451.4,603.27 447.23,598.27 447.65,595.77 444.31,596.6 446.81,588.69 443.9,589.94 440.15,584.1 445.56,578.27 446.81,578.27 448.06,577.02 448.89,577.44 449.73,577.44 449.73,577.02 448.06,576.6 445.56,577.44 444.73,577.02 442.64,578.27 445.56,574.1 440.56,578.27 439.73,574.52 432.65,574.94 441.81,569.52 438.48,569.52 439.31,561.19 435.56,560.77 435.56,559.94 438.89,559.52 441.39,552.02 441.81,559.1 445.56,567.02 462.23,569.52 458.48,565.77 460.56,561.6 462.65,563.69 463.48,557.85 468.48,569.52 475.98,570.35 477.65,563.27 481.4,562.02 486.81,567.85 487.23,563.69 483.89,561.6 477.65,561.19 478.06,554.94 473.06,556.6 475.56,547.02 470.98,547.85 470.98,553.69 468.89,549.94 467.64,554.52 465.14,554.94 466.81,550.77 463.89,552.44 462.23,550.77 468.48,548.69 464.73,546.19 469.73,547.85 472.23,544.94 460.98,544.1 463.89,542.02 460.98,542.02 460.14,540.35 465.98,541.6 464.73,536.6 465.56,535.77 467.64,542.02 468.48,542.02 469.31,539.52 470.15,539.52 471.81,544.1 475.14,542.02 478.48,544.94 477.23,542.85 477.23,542.44 481.81,549.1 487.64,548.69 488.48,549.94 499.31,546.6 502.64,542.85 496.4,542.44 496.81,539.94 497.64,541.6 504.31,538.69 500.15,537.44 497.23,529.1 487.23,530.77 484.73,535.77 475.56,532.02 475.14,535.77 472.64,532.02 471.39,532.85 467.64,530.77 462.65,532.02 460.56,530.77 473.06,530.35 473.9,525.35 476.39,531.6 483.89,532.02 490.56,524.1 495.98,525.35 498.89,522.02 496.81,519.52 500.15,517.44 494.31,518.69 490.14,512.02 481.81,519.94 478.89,519.94 482.23,516.19 478.48,517.85 475.56,517.02 473.9,515.77 483.48,513.69 483.48,512.85 481.81,512.02 481.4,510.77 478.06,509.1 477.65,508.27 487.23,510.77 482.64,505.77 485.15,502.85 488.48,505.35 488.06,502.44 484.31,500.35 484.73,499.1 489.73,497.85 490.56,500.35 491.81,501.19 490.98,497.02 488.06,495.35 492.65,495.35 493.06,492.44 483.89,484.52 490.98,484.93 497.23,490.35 498.89,485.35 494.73,482.02 499.31,483.27 506.39,476.19 497.64,477.02 495.98,473.27 499.73,471.6 499.31,474.52 500.98,474.52 505.14,462.85 510.14,464.94 505.98,460.35 521.39,464.1 507.23,459.94 509.31,456.6 505.56,453.69 504.73,449.1 511.81,457.02 515.56,454.52 515.15,457.85 521.39,459.1 524.31,458.27 520.56,449.94 528.48,452.85 528.06,460.35 530.98,459.1 533.9,464.1 538.9,462.02 535.14,462.02 533.9,456.6 537.65,456.6 533.48,454.52 538.06,449.52 536.39,441.19 527.64,443.27 513.89,435.35 519.73,434.1 520.14,438.27 527.23,439.93 528.06,432.85 533.9,439.1 536.81,429.1 531.39,427.85 538.06,425.77 542.65,414.52 540.56,420.77 543.06,421.18 541.4,424.93 541.81,425.35 544.73,424.1 545.56,424.1 545.98,424.1 546.4,424.1 546.81,423.69 547.23,423.69 540.14,427.85 542.23,432.85 539.73,437.02 543.48,440.35 539.73,437.85 538.48,439.52 545.98,452.44 544.73,460.35 553.48,459.52 549.73,466.18 559.31,462.02 556.81,458.27 558.06,454.93 559.73,458.27 563.9,457.44 559.73,452.85 564.73,452.85 563.9,447.85 567.65,449.52 568.06,456.6 576.81,453.27 572.23,450.77 572.23,446.19 577.64,445.35 575.56,439.52 580.15,442.85 579.31,449.1 582.65,451.6 583.9,444.94 589.31,446.19 586.81,439.52 592.23,443.68 591.4,438.27 595.15,438.69 596.39,433.27 591.4,433.27 591.81,428.27 589.31,429.52 583.9,429.1 594.31,427.44 593.48,421.18 592.23,422.02 590.56,421.18 593.06,413.68 590.98,417.43 586.81,413.68 585.56,413.68 584.31,415.77 583.9,415.35 583.06,416.19 582.65,416.19 585.98,413.27 600.14,409.93 600.98,407.85 609.73,415.35 637.64,423.69 637.23,427.44 646.4,434.52 658.06,451.18 668.9,444.52 668.9,435.77 678.06,423.27 723.48,423.27 724.73,564.1 719.31,581.6 722.23,583.69 715.56,598.27 693.48,625.77 686.4,630.35 672.65,627.02 670.98,623.69 675.98,622.02 676.81,627.85 679.73,621.19 679.31,617.85 678.06,619.52 676.81,619.52 678.48,615.35 674.73,602.85 680.56,599.1 678.48,591.19 687.65,563.27 685.15,560.77 688.48,559.52 685.56,557.02 686.81,554.52 686.4,550.35 683.48,561.6 680.15,561.6 683.9,564.1 675.56,576.19 673.9,576.19 673.06,587.85 667.23,590.35 670.15,590.35 670.56,593.69 667.23,592.85 664.31,597.02 659.73,594.52 656.81,599.52 658.9,603.69 661.81,600.35 663.06,602.85 660.98,609.52 658.06,610.35 658.06,604.1 654.73,602.85 653.48,607.44 646.4,610.77 645.98,617.02 648.48,617.02 646.4,622.44 651.81,622.44 655.98,616.19 656.81,618.27 647.23,634.94 650.56,623.69 643.9,624.94 643.06,622.44 639.31,626.19 639.31,612.85 637.23,615.35 635.56,614.52 636.4,619.94 630.14,629.1 635.98,637.85 633.06,637.44 633.89,643.69 630.98,639.52 626.39,640.77 628.48,646.19 625.15,648.69 628.06,652.02 624.31,650.77 623.9,654.94 632.23,659.94 625.98,662.85 623.06,660.35 622.23,663.27 "/>
 </g>
</svg>
