<?xml version="1.0" encoding="UTF-8"?>
<!DOCTYPE svg PUBLIC "-//W3C//DTD SVG 1.1//EN" "http://www.w3.org/Graphics/SVG/1.1/DTD/svg11.dtd">
<!-- Creator: CorelDRAW 2020 (64-Bit) -->
<svg xmlns="http://www.w3.org/2000/svg" xml:space="preserve" width="750px" height="700px" version="1.1" style="shape-rendering:geometricPrecision; text-rendering:geometricPrecision; image-rendering:optimizeQuality; fill-rule:evenodd; clip-rule:evenodd"
viewBox="0 0 750 700"
 xmlns:xlink="http://www.w3.org/1999/xlink"
 xmlns:xodm="http://www.corel.com/coreldraw/odm/2003">
 <defs>
  <style type="text/css">
   <![CDATA[
    .fil0 {fill:#FF9500;fill-opacity:0.800000}
   ]]>
  </style>
 </defs>
 <g id="Capa_x0020_1">
  <metadata id="CorelCorpID_0Corel-Layer"/>
  <polygon class="fil0" points="134.51,285.36 140.54,262.7 147.18,261.94 143.83,271.5 149.46,274.35 145.53,278.27 151.49,277.13 146.23,284.09 150.41,296.37 153.19,292.13 154.52,294.66 158.76,293.02 161.8,284.16 163.26,290.8 171.99,293.84 180.73,291.69 181.23,283.14 184.46,285.68 181.04,279.98 181.55,269.79 176.23,267.45 179.97,264.41 172.63,264.47 165.54,250.8 161.61,251.56 164.02,256.43 158.19,255.99 155.79,259.6 152.75,255.55 153.76,247.44 149.78,255.86 149.33,252.57 143.68,250.93 154.65,209.72 163.77,216.37 167.37,215.54 169.4,205.04 177.06,214.09 186.3,211.43 187.37,199.84 184.08,198.45 176.93,197.76 171.42,204.46 168.76,198.89 163.07,202 160.03,196.74 156.88,201.36 173.49,119.14 221.49,107.49 227.82,103.76 229.59,97.37 238.33,97.56 237.25,91.54 240.74,89.01 237.57,85.4 243.39,79.01 241.05,76.92 244.34,76.86 240.99,75.34 241.37,66.29 249.85,57.87 248.52,54.45 251.56,55.78 252.83,51.41 255.04,54.32 253.65,48.75 256.56,50.84 255.48,47.23 259.09,44.38 255.93,40.78 253.01,45.33 251.18,41.47 253.01,29.89 262.19,31.73 261.81,39.95 265.36,32.8 285.99,39.57 293.52,47.99 292.45,58.82 320.55,62.05 346.97,93.31 341.86,167.42 321.21,246.69 309.93,260.8 302.39,256.05 304.41,260.93 303.02,262.07 298.84,257.82 300.93,263.14 296.82,263.71 293.46,264.85 293.27,265.23 302.13,264.92 300.74,270 258.92,296.8 238.71,303.91 239.34,300.42 235.99,299.48 228.58,304.86 229.85,308.79 124.18,350.3 119.38,348.7 118.15,342.06 126.82,309.79 128.13,313.91 131.17,308.78 128.79,303.53 "/>
  <polygon class="fil0" points="238.39,305.54 234.59,307.12 236.37,304.6 "/>
  <polygon class="fil0" points="141.49,259.15 142.24,256.31 142.31,256.31 143.19,258.96 "/>
  <polygon class="fil0" points="233.71,307.49 233.39,307.62 233.14,307.7 233.14,307.32 "/>
  <polygon class="fil0" points="155.71,205.73 155.76,205.54 155.79,205.54 155.85,205.79 "/>
  <polygon class="fil0" points="225.99,103.82 226.05,103.95 225.92,104.01 225.92,103.89 "/>
  <polygon class="fil0" points="301.12,269.8 300.99,269.87 300.99,269.79 "/>
  <polygon class="fil0" points="175.79,291.31 175.92,291.31 175.92,291.37 175.79,291.37 "/>
  <polygon class="fil0" points="178.58,291.44 178.58,291.5 178.51,291.5 178.51,291.44 "/>
  <polygon class="fil0" points="164.59,251.69 164.52,251.69 164.52,251.62 164.59,251.62 "/>
  <polygon class="fil0" points="253.71,51.79 253.71,51.85 253.65,51.85 253.65,51.79 "/>
  <polygon class="fil0" points="293.78,264.98 293.84,264.98 293.84,265.04 293.78,265.04 "/>
  <polygon class="fil0" points="231.41,308.27 231.37,308.29 231.37,308.27 "/>
  <polygon class="fil0" points="234.55,307.13 234.53,307.14 234.53,307.13 "/>
  <polygon class="fil0" points="156.86,201.43 156.87,201.4 156.87,201.43 "/>
  <polygon class="fil0" points="140.59,262.51 140.6,262.49 140.6,262.51 "/>
  <polygon class="fil0" points="155.66,205.92 155.66,205.92 155.66,205.92 "/>
 </g>
</svg>
