<?xml version="1.0" encoding="UTF-8"?>
<!DOCTYPE svg PUBLIC "-//W3C//DTD SVG 1.1//EN" "http://www.w3.org/Graphics/SVG/1.1/DTD/svg11.dtd">
<!-- Creator: CorelDRAW 2020 (64-Bit) -->
<svg xmlns="http://www.w3.org/2000/svg" xml:space="preserve" width="750px" height="700px" version="1.1" style="shape-rendering:geometricPrecision; text-rendering:geometricPrecision; image-rendering:optimizeQuality; fill-rule:evenodd; clip-rule:evenodd"
viewBox="0 0 750 700"
 xmlns:xlink="http://www.w3.org/1999/xlink"
 xmlns:xodm="http://www.corel.com/coreldraw/odm/2003">
 <defs>
  <style type="text/css">
   <![CDATA[
    .fil0 {fill:#FF9500;fill-opacity:0.800000}
   ]]>
  </style>
 </defs>
 <g id="Capa_x0020_1">
  <metadata id="CorelCorpID_0Corel-Layer"/>
  <polygon class="fil0" points="339.54,494.66 342.26,503.04 346.57,494.12 352.2,490.51 348.47,483.37 353.28,483.93 353.47,491.58 359.99,486.91 356.89,503.48 358.09,505.7 358.85,504.81 360.43,504.69 363.91,502.85 364.23,502.72 364.42,502.85 358.53,510.19 361,511.78 352.33,517.6 358.34,517.09 356.51,518.8 343.98,519.69 345.18,516.65 341,518.54 333.85,512.41 332.77,508.55 339.16,498.23 330.81,502.53 331.25,496.88 "/>
  <polygon class="fil0" points="302.05,298.25 305.16,300.69 304.14,307.89 296.03,309.67 297.6,298.86 "/>
 </g>
</svg>
