<?xml version="1.0" encoding="UTF-8"?>
<!DOCTYPE svg PUBLIC "-//W3C//DTD SVG 1.1//EN" "http://www.w3.org/Graphics/SVG/1.1/DTD/svg11.dtd">
<!-- Creator: CorelDRAW 2020 (64-Bit) -->
<svg xmlns="http://www.w3.org/2000/svg" xml:space="preserve" width="750px" height="700px" version="1.1" style="shape-rendering:geometricPrecision; text-rendering:geometricPrecision; image-rendering:optimizeQuality; fill-rule:evenodd; clip-rule:evenodd"
viewBox="0 0 750 700"
 xmlns:xlink="http://www.w3.org/1999/xlink"
 xmlns:xodm="http://www.corel.com/coreldraw/odm/2003">
 <defs>
  <style type="text/css">
   <![CDATA[
    .fil0 {fill:#FF9500;fill-opacity:0.800000}
   ]]>
  </style>
 </defs>
 <g id="Capa_x0020_1">
  <metadata id="CorelCorpID_0Corel-Layer"/>
  <polygon class="fil0" points="439.52,456.79 435.17,453.18 454.75,398.13 461.56,289.75 465.28,279.41 469.23,278.2 472.33,281.01 473.12,293.56 463.85,326.71 470.43,349.48 468.78,370.42 452.48,441.4 "/>
  <polygon class="fil0" points="539.69,434.38 550.34,427.44 560.52,429.71 557.1,429.55 560.07,433.79 555.07,440.63 564.35,451.77 561.15,454.3 564.57,458.42 558.11,457.59 560.13,463.73 556.72,461.71 550.13,467.59 547.79,464.56 552.48,460.25 544.18,460.44 546.84,458.42 537.66,439.74 541.15,438.35 "/>
 </g>
</svg>
