<?xml version="1.0" encoding="UTF-8"?>
<!DOCTYPE svg PUBLIC "-//W3C//DTD SVG 1.1//EN" "http://www.w3.org/Graphics/SVG/1.1/DTD/svg11.dtd">
<!-- Creator: CorelDRAW 2020 (64-Bit) -->
<svg xmlns="http://www.w3.org/2000/svg" xml:space="preserve" width="750px" height="700px" version="1.1" style="shape-rendering:geometricPrecision; text-rendering:geometricPrecision; image-rendering:optimizeQuality; fill-rule:evenodd; clip-rule:evenodd"
viewBox="0 0 750 700"
 xmlns:xlink="http://www.w3.org/1999/xlink"
 xmlns:xodm="http://www.corel.com/coreldraw/odm/2003">
 <defs>
  <style type="text/css">
   <![CDATA[
    .fil0 {fill:#FF9500;fill-opacity:0.800000}
   ]]>
  </style>
 </defs>
 <g id="Capa_x0020_1">
  <metadata id="CorelCorpID_0Corel-Layer"/>
  <polygon class="fil0" points="460.88,375.93 452.78,384.81 441.78,384.27 431.59,375.69 422.59,365.75 425.12,359.86 420.18,359.8 426.39,346.32 417.53,348.97 416.83,360.14 402.34,343.56 400.56,332.39 397.27,334.02 392.9,321.44 390.78,323.02 384.47,313.4 386.57,296.88 380.71,308.78 380.12,304.16 376.19,305.05 357.01,289.24 345.74,270.46 336.79,241.8 338.94,216.32 357.24,167.88 363.15,125.34 356.38,126.06 338.6,115.84 273.54,70.15 279.35,63.82 277.38,64.58 276.43,64.26 276.18,60.46 279.66,53.44 276.5,52.74 275.23,51.54 280.42,51.98 278.59,47.36 282.77,47.49 282.07,38.31 293.52,48 292.43,58.82 320.51,62.06 347.83,94.33 360.87,101.48 368.78,98.91 381.76,101.99 397.97,98.69 399.93,94.07 420.88,98.96 463.29,97.05 431.85,135.39 425.31,149.85 407.44,195.68 405.83,231.63 409.86,254.43 419.87,260.95 418.29,261.94 419.8,265.1 422.27,262.51 426.58,266.62 427.46,295.8 434.3,269.41 434.95,269.16 439.8,271.36 452.34,280.22 460.56,302.99 464.31,343.83 "/>
  <polygon class="fil0" points="422.17,262.45 420.69,263.02 419.55,262.83 421.07,261.73 "/>
  <polygon class="fil0" points="420.56,261.4 420.18,261.62 419.74,261.69 420.12,261.12 "/>
  <polygon class="fil0" points="416.87,360.18 417.27,360.11 417.4,360.74 "/>
 </g>
</svg>
