<?xml version="1.0" encoding="UTF-8"?>
<!DOCTYPE svg PUBLIC "-//W3C//DTD SVG 1.1//EN" "http://www.w3.org/Graphics/SVG/1.1/DTD/svg11.dtd">
<!-- Creator: CorelDRAW 2020 (64-Bit) -->
<svg xmlns="http://www.w3.org/2000/svg" xml:space="preserve" width="750px" height="700px" version="1.1" style="shape-rendering:geometricPrecision; text-rendering:geometricPrecision; image-rendering:optimizeQuality; fill-rule:evenodd; clip-rule:evenodd"
viewBox="0 0 750 700"
 xmlns:xlink="http://www.w3.org/1999/xlink"
 xmlns:xodm="http://www.corel.com/coreldraw/odm/2003">
 <defs>
  <style type="text/css">
   <![CDATA[
    .fil0 {fill:#FF9500;fill-opacity:0.800000}
   ]]>
  </style>
 </defs>
 <g id="Capa_x0020_1">
  <metadata id="CorelCorpID_0Corel-Layer"/>
  <path class="fil0" d="M577.64 457.02l2.92 -2.09 -3.33 -5.83 6.25 3.75 7.92 -7.91 2.91 2.08 4.59 -10.42 2.91 0.42 -1.25 -3.33 -1.66 -0.84 -0.84 -2.08 8.75 6.25 7.5 -5 0 -3.75 -4.58 -0.83 -1.25 4.99 -4.59 1.26 -3.33 -2.5 0.84 -4.17 -4.59 -0.83 4.59 -4.17 -4.59 -2.08 4.59 -1.67 -2.5 -2.08 4.58 0 -7.09 -5.42 4.59 -2.92 8.75 7.5 27.91 8.34 -0.41 3.75 9.17 7.08 11.66 16.66 10.84 -6.66 0 -8.75 9.16 -12.5 45.42 0 -0.83 105 -12.09 2.5 -1.66 12.08 -7.09 2.09 -2.91 -12.09 -5 0 -6.25 9.17 -5.84 -3.33 0 -9.59 -10.83 -27.08 -1.67 -11.25 5.84 -20.84 -3.75 1.67 -20 38.34 -15.84 40 -5.42 28.75 -11.66 11.66 -5.83 -23.33 0 -48.33 -3.34 -5 -11.66 19.58 -42.51 -10.42 -7.5 4.17 15.84 20 20.83 7.5 0 25 13.34 13.33 -10.42 8.75 -16.67 25 -16.66 -14.58 -22.92 -1.25 -6.25 8.33 -4.17 25 -11.25 11.67 -19.17 -16.67 -9.58 0 3.75 -2.08 -10 -2.5 3.75 -3.75 -0.41 -2.08 0.41 0.41 0 -0.83 2.08 -1.67 -0.41 -0.41 1.25 -0.84 1.25 -3.33 -0.42 -1.67 1.25 -0.41 2.5 -27.09 4.17 -0.83 -3.34 -1.67 -0.83 -3.33 9.58 -4.17 -1.25 -2.08 0.84 -3.75 1.67 -0.42 9.99 17.92 3.75 -1.25 0.84 3.75 14.16 12.92 -6.66 -9.59 5.41 -6.66 2.51 2.5 -1.67 -5 2.91 -2.92 2.51 1.25 -4.59 -7.92 7.92 5.84 2.08 -2.92 -8.75 -6.67 9.58 -2.08 -6.24 -4.17 6.24 0.84 0 -4.59 -6.66 0.42 6.66 -1.67 -0.83 -5.41 -5 1.25 5 -2.5 -0.83 -3.75 -3.34 0.41 3.75 -4.16 -3.33 -3.34 -1.25 2.5 -3.75 1.25 -0.83 -3.33 3.33 -1.25 -3.33 -3.33 -3.75 7.08 -10 -3.33 -1.67 -3.75 3.75 -5 -5 -1.25 -6.67 10 0.42 -7.92 11.67 -6.25 -2.09 -5.83 5.42 2.91 6.25 -8.75 -8.75 -3.33 -3.33 5.83 -2.5 -0.83 0.41 0.83 0.84 0 1.25 1.25 -6.67 3.34 -0.83 -2.92 -9.59 0.42 10.84 -2.5 4.58 -7.92 -6.25 -3.33 1.25 -2.09 -5 0.42 2.5 -1.25 -5.42 -1.67 3.75 -0.83 -3.33 -2.92 -2.92 -0.83 -2.49 0.83 -1.26 0 3.34 -1.25 5 1.25 0.83 -3.75 2.5 6.67 5 -0.42 1.67 -6.66 -7.09 -3.34 6.25 2.09 -0.83 -7.09 2.5 0.42 -1.67 5 4.17 1.67 -2.5 5.41 4.59 7.5 5.41 1.67 -0.83 -3.33 5.41 -2.92 -1.66 7.5 9.16 0.42 4.59 -8.75 -9.17 0 3.75 -6.25 -6.25 -5.42 -1.25 0 -0.42 -0.83 -1.66 -0.84 -0.84 0 0 -0.41 5.84 1.25 1.25 1.25 0 -2.5 2.08 -2.09 -0.83 5.84 10.83 1.66 11.25 -16.66 -6.66 -3.75 -9.59 2.08 3.34 -6.25 -1.25 -2.5 -5.42 11.25 -2.5 -3.33 2.91 -2.09 -4.58 -0.83 8.33 -8.75 -12.91 -2.5 -6.67 5.42 -1.25 0 6.25 -6.25 4.17 -0.42 -7.92 -4.17 22.5 5.83 0.84 -4.99 -5.42 -2.09 5.42 -0.83 -3.34 -11.25 6.25 9.58 -1.66 5.42 5.83 0.41 -3.33 4.59 6.24 3.75 0.84 -3.75 3.33 3.33 3.75 -2.08 -3.33 -2.5 2.5 -1.67 5.42 0.84 -1.67 -3.34 3.33 2.92 0.83 -7.5 4.59 5.41 -1.67 -4.16 5.84 0 0.41 -4.17 2.08 2.92 0 0zm-25.83 40.42l0 0.41 0.42 0 0 -0.41 -0.42 0 0 0z"/>
  <polygon class="fil0" points="537.65,444.94 537.65,444.1 538.06,443.27 538.48,443.68 "/>
  <polygon class="fil0" points="480.98,623.69 481.4,623.69 481.4,624.1 480.98,624.1 "/>
  <polygon class="fil0" points="482.23,615.35 482.23,614.94 482.64,614.94 482.64,615.35 "/>
  <polygon class="fil0" points="688.54,542.86 688.76,542.86 688.76,542.73 688.54,542.73 "/>
  <polygon class="fil0" points="490.95,584.25 491.08,584.25 491.08,584.13 490.95,584.13 "/>
  <polygon class="fil0" points="488.23,585.52 488.36,585.52 488.36,585.39 488.23,585.39 "/>
  <polygon class="fil0" points="480.95,623.88 481.01,623.88 481.01,623.75 480.95,623.75 "/>
  <polygon class="fil0" points="482.66,615.33 482.72,615.33 482.72,615.21 482.66,615.21 "/>
  <polygon class="fil0" points="482.6,614.89 482.66,614.89 482.66,614.82 482.6,614.82 "/>
  <polygon class="fil0" points="482.6,637.42 482.66,637.42 482.66,637.36 482.6,637.36 "/>
  <polygon class="fil0" points="513.93,599.57 513.99,599.57 513.99,599.51 513.93,599.51 "/>
  <polygon class="fil0" points="486.27,592.54 486.33,592.54 486.33,592.48 486.27,592.48 "/>
  <polygon class="fil0" points="495.51,527.41 495.57,527.41 495.57,527.35 495.51,527.35 "/>
  <polygon class="fil0" points="531.84,571.66 531.9,571.66 531.9,571.59 531.84,571.59 "/>
  <polygon class="fil0" points="486.33,592.48 486.39,592.48 486.39,592.42 486.33,592.42 "/>
  <polygon class="fil0" points="486.52,592.23 486.58,592.23 486.58,592.16 486.52,592.16 "/>
  <polygon class="fil0" points="534.06,480.06 534.12,480.06 534.12,480 534.06,480 "/>
  <polygon class="fil0" points="502.79,549.37 502.84,549.37 502.84,549.31 502.79,549.31 "/>
  <polygon class="fil0" points="688.76,542.88 688.8,542.88 688.8,542.86 688.76,542.86 "/>
  <polygon class="fil0" points="688.43,542.67 688.44,542.67 688.44,542.67 688.43,542.67 "/>
 </g>
</svg>
